inconsolata_bold.sfdir
StartChar: exclam
Encoding: 33 33 4
Width: 1024
Flags: W
LayerCount: 2
Back
Fore
SplineSet
489 276 m 0,0,1
 524 276 524 276 553.5 263 c 128,-1,2
 583 250 583 250 605 229 c 128,-1,3
 627 208 627 208 639 181.5 c 128,-1,4
 651 155 651 155 651 127 c 0,5,6
 651 97 651 97 638 70.5 c 128,-1,7
 625 44 625 44 602.5 23.5 c 128,-1,8
 580 3 580 3 550.5 -8.5 c 128,-1,9
 521 -20 521 -20 489 -20 c 256,10,11
 457 -20 457 -20 428.5 -8.5 c 128,-1,12
 400 3 400 3 378.5 23 c 128,-1,13
 357 43 357 43 344.5 69.5 c 128,-1,14
 332 96 332 96 332 127 c 0,15,16
 332 157 332 157 344.5 184 c 128,-1,17
 357 211 357 211 378.5 231.5 c 128,-1,18
 400 252 400 252 428.5 264 c 128,-1,19
 457 276 457 276 489 276 c 0,0,1
494 1374 m 0,20,21
 560 1374 560 1374 598.5 1328 c 128,-1,22
 637 1282 637 1282 637 1178 c 0,23,24
 637 1158 637 1158 635 1131 c 128,-1,25
 633 1104 633 1104 630.5 1074 c 128,-1,26
 628 1044 628 1044 625 1015 c 128,-1,27
 622 986 622 986 621 963 c 2,28,-1
 584 406 l 1,29,-1
 399 406 l 1,30,-1
 371 963 l 2,31,32
 369 987 369 987 366 1018.5 c 128,-1,33
 363 1050 363 1050 359 1082.5 c 128,-1,34
 355 1115 355 1115 352.5 1145.5 c 128,-1,35
 350 1176 350 1176 350 1198 c 0,36,37
 350 1283 350 1283 387.5 1328.5 c 128,-1,38
 425 1374 425 1374 494 1374 c 0,20,21
EndSplineSet
EndChar
StartChar: quotedbl
Encoding: 34 34 5
Width: 1024
Flags: W
LayerCount: 2
Back
Fore
SplineSet
596 1245 m 2,0,1
 596 1282 596 1282 606.5 1309.5 c 128,-1,2
 617 1337 617 1337 635 1355 c 128,-1,3
 653 1373 653 1373 676 1382 c 128,-1,4
 699 1391 699 1391 725 1391 c 0,5,6
 750 1391 750 1391 774 1382 c 128,-1,7
 798 1373 798 1373 816 1353.5 c 128,-1,8
 834 1334 834 1334 845 1304.5 c 128,-1,9
 856 1275 856 1275 856 1235 c 0,10,11
 856 1206 856 1206 838 1141 c 128,-1,12
 820 1076 820 1076 788 985 c 0,13,14
 783 970 783 970 775.5 949 c 128,-1,15
 768 928 768 928 760.5 906 c 128,-1,16
 753 884 753 884 745 863 c 128,-1,17
 737 842 737 842 731 827 c 1,18,-1
 539 872 l 1,19,-1
 592 1038 l 2,20,21
 600 1063 600 1063 604 1084.5 c 128,-1,22
 608 1106 608 1106 608 1126 c 2,23,-1
 596 1245 l 2,0,1
240 1245 m 1,24,25
 240 1282 240 1282 250.5 1309.5 c 128,-1,26
 261 1337 261 1337 278.5 1355 c 128,-1,27
 296 1373 296 1373 319.5 1382 c 128,-1,28
 343 1391 343 1391 369 1391 c 0,29,30
 394 1391 394 1391 417.5 1382 c 128,-1,31
 441 1373 441 1373 459.5 1353.5 c 128,-1,32
 478 1334 478 1334 489 1304.5 c 128,-1,33
 500 1275 500 1275 500 1235 c 0,34,35
 500 1201 500 1201 483 1138.5 c 128,-1,36
 466 1076 466 1076 434 985 c 2,37,-1
 377 827 l 1,38,-1
 182 872 l 1,39,-1
 236 1038 l 2,40,41
 244 1063 244 1063 249 1084.5 c 128,-1,42
 254 1106 254 1106 254 1126 c 2,43,-1
 240 1245 l 1,24,25
EndSplineSet
EndChar
StartChar: numbersign
Encoding: 35 35 6
Width: 1024
Flags: W
LayerCount: 2
Back
Fore
SplineSet
326 1282 m 1,0,-1
 537 1284 l 1,1,-1
 498 963 l 1,2,-1
 608 963 l 1,3,-1
 645 1278 l 1,4,-1
 856 1280 l 1,5,-1
 819 967 l 1,6,-1
 991 967 l 1,7,-1
 971 803 l 1,8,-1
 799 803 l 1,9,-1
 768 526 l 1,10,-1
 950 526 l 1,11,-1
 938 367 l 1,12,-1
 750 367 l 1,13,-1
 709 27 l 1,14,-1
 498 14 l 1,15,-1
 541 360 l 1,16,-1
 426 360 l 1,17,-1
 385 25 l 1,18,-1
 180 23 l 1,19,-1
 217 358 l 1,20,-1
 39 358 l 1,21,-1
 51 518 l 1,22,-1
 240 518 l 1,23,-1
 270 797 l 1,24,-1
 68 797 l 1,25,-1
 78 958 l 1,26,-1
 289 958 l 1,27,-1
 326 1282 l 1,0,-1
475 799 m 1,28,-1
 444 522 l 1,29,-1
 557 522 l 1,30,-1
 590 799 l 1,31,-1
 475 799 l 1,28,-1
EndSplineSet
EndChar
StartChar: dollar
Encoding: 36 36 7
Width: 1024
Flags: W
LayerCount: 2
Back
Fore
SplineSet
436 1333 m 1,0,-1
 641 1333 l 2,1,2
 649 1330 649 1330 651 1324.5 c 128,-1,3
 653 1319 653 1319 653 1313 c 0,4,5
 653 1310 653 1310 651 1301.5 c 128,-1,6
 649 1293 649 1293 647 1283.5 c 128,-1,7
 645 1274 645 1274 643 1264.5 c 128,-1,8
 641 1255 641 1255 641 1249 c 2,9,-1
 641 1217 l 1,10,11
 726 1200 726 1200 798.5 1151.5 c 128,-1,12
 871 1103 871 1103 930 1032 c 1,13,-1
 809 879 l 1,14,15
 794 879 794 879 786.5 886 c 128,-1,16
 779 893 779 893 774 903 c 128,-1,17
 769 913 769 913 765.5 924.5 c 128,-1,18
 762 936 762 936 756 946 c 0,19,20
 736 969 736 969 702.5 991 c 128,-1,21
 669 1013 669 1013 631 1022 c 1,22,-1
 631 721 l 1,23,24
 712 695 712 695 774 663 c 128,-1,25
 836 631 836 631 877.5 589 c 128,-1,26
 919 547 919 547 940 494.5 c 128,-1,27
 961 442 961 442 961 375 c 0,28,29
 961 312 961 312 939 254.5 c 128,-1,30
 917 197 917 197 875.5 150 c 128,-1,31
 834 103 834 103 775 69 c 128,-1,32
 716 35 716 35 641 20 c 1,33,-1
 641 -90 l 1,34,-1
 436 -90 l 1,35,-1
 436 14 l 1,36,37
 342 30 342 30 255 77 c 128,-1,38
 168 124 168 124 100 199 c 1,39,-1
 225 375 l 1,40,41
 242 370 242 370 251.5 360 c 128,-1,42
 261 350 261 350 266 339 c 128,-1,43
 271 328 271 328 274.5 318 c 128,-1,44
 278 308 278 308 283 303 c 0,45,46
 317 266 317 266 355.5 240 c 128,-1,47
 394 214 394 214 446 203 c 1,48,-1
 446 569 l 1,49,50
 373 596 373 596 315.5 629 c 128,-1,51
 258 662 258 662 218.5 702.5 c 128,-1,52
 179 743 179 743 158 792.5 c 128,-1,53
 137 842 137 842 137 901 c 0,54,55
 137 957 137 957 158 1008 c 128,-1,56
 179 1059 179 1059 218 1100 c 128,-1,57
 257 1141 257 1141 312.5 1170.5 c 128,-1,58
 368 1200 368 1200 436 1214 c 1,59,-1
 436 1333 l 1,0,-1
631 215 m 1,60,61
 685 234 685 234 718.5 269 c 128,-1,62
 752 304 752 304 752 362 c 0,63,64
 752 410 752 410 722.5 446 c 128,-1,65
 693 482 693 482 631 504 c 1,66,-1
 631 215 l 1,60,61
446 1024 m 1,67,68
 404 1013 404 1013 378 985 c 128,-1,69
 352 957 352 957 352 913 c 0,70,71
 352 881 352 881 373 847 c 128,-1,72
 394 813 394 813 446 795 c 1,73,-1
 446 1024 l 1,67,68
EndSplineSet
EndChar
StartChar: percent
Encoding: 37 37 8
Width: 1024
Flags: W
LayerCount: 2
Back
Fore
SplineSet
770 1276 m 1,0,-1
 979 1276 l 1,1,-1
 248 0 l 1,2,-1
 45 0 l 1,3,-1
 770 1276 l 1,0,-1
27 1020 m 0,4,5
 27 1078 27 1078 47.5 1129 c 128,-1,6
 68 1180 68 1180 102.5 1217.5 c 128,-1,7
 137 1255 137 1255 183 1276.5 c 128,-1,8
 229 1298 229 1298 281 1298 c 256,9,10
 333 1298 333 1298 379.5 1276 c 128,-1,11
 426 1254 426 1254 460.5 1216.5 c 128,-1,12
 495 1179 495 1179 515 1127.5 c 128,-1,13
 535 1076 535 1076 535 1018 c 0,14,15
 535 956 535 956 515.5 905 c 128,-1,16
 496 854 496 854 462 817 c 128,-1,17
 428 780 428 780 381.5 759.5 c 128,-1,18
 335 739 335 739 281 739 c 0,19,20
 229 739 229 739 183 760 c 128,-1,21
 137 781 137 781 102.5 818.5 c 128,-1,22
 68 856 68 856 47.5 907.5 c 128,-1,23
 27 959 27 959 27 1020 c 0,4,5
197 1018 m 256,24,25
 197 991 197 991 203 967.5 c 128,-1,26
 209 944 209 944 219.5 926.5 c 128,-1,27
 230 909 230 909 244.5 899 c 128,-1,28
 259 889 259 889 276 889 c 256,29,30
 293 889 293 889 308 899 c 128,-1,31
 323 909 323 909 333.5 926.5 c 128,-1,32
 344 944 344 944 350 967.5 c 128,-1,33
 356 991 356 991 356 1018 c 256,34,35
 356 1045 356 1045 350 1069 c 128,-1,36
 344 1093 344 1093 333.5 1110.5 c 128,-1,37
 323 1128 323 1128 308 1138.5 c 128,-1,38
 293 1149 293 1149 276 1149 c 256,39,40
 259 1149 259 1149 244.5 1138.5 c 128,-1,41
 230 1128 230 1128 219.5 1110.5 c 128,-1,42
 209 1093 209 1093 203 1069 c 128,-1,43
 197 1045 197 1045 197 1018 c 256,24,25
494 260 m 0,44,45
 494 318 494 318 514.5 369 c 128,-1,46
 535 420 535 420 569.5 458 c 128,-1,47
 604 496 604 496 650 517.5 c 128,-1,48
 696 539 696 539 748 539 c 256,49,50
 800 539 800 539 846 517 c 128,-1,51
 892 495 892 495 926.5 457 c 128,-1,52
 961 419 961 419 981 367.5 c 128,-1,53
 1001 316 1001 316 1001 258 c 0,54,55
 1001 196 1001 196 982 145 c 128,-1,56
 963 94 963 94 929 57.5 c 128,-1,57
 895 21 895 21 848.5 0.5 c 128,-1,58
 802 -20 802 -20 748 -20 c 0,59,60
 696 -20 696 -20 650 1 c 128,-1,61
 604 22 604 22 569.5 59.5 c 128,-1,62
 535 97 535 97 514.5 148 c 128,-1,63
 494 199 494 199 494 260 c 0,44,45
664 258 m 256,64,65
 664 231 664 231 670 207.5 c 128,-1,66
 676 184 676 184 686.5 166.5 c 128,-1,67
 697 149 697 149 711.5 139 c 128,-1,68
 726 129 726 129 743 129 c 256,69,70
 760 129 760 129 774.5 139 c 128,-1,71
 789 149 789 149 800 166.5 c 128,-1,72
 811 184 811 184 817 207.5 c 128,-1,73
 823 231 823 231 823 258 c 256,74,75
 823 285 823 285 817 309 c 128,-1,76
 811 333 811 333 800 350.5 c 128,-1,77
 789 368 789 368 774.5 378.5 c 128,-1,78
 760 389 760 389 743 389 c 256,79,80
 726 389 726 389 711.5 378.5 c 128,-1,81
 697 368 697 368 686.5 350.5 c 128,-1,82
 676 333 676 333 670 309 c 128,-1,83
 664 285 664 285 664 258 c 256,64,65
EndSplineSet
EndChar
StartChar: ampersand
Encoding: 38 38 9
Width: 1024
Flags: W
LayerCount: 2
Back
Fore
SplineSet
797 532 m 0,0,1
 798 544 798 544 798 557 c 128,-1,2
 798 570 798 570 799.5 582 c 128,-1,3
 801 594 801 594 805.5 605 c 128,-1,4
 810 616 810 616 821 625 c 1,5,-1
 1006 496 l 1,6,7
 967 430 967 430 929.5 370.5 c 128,-1,8
 892 311 892 311 860 264 c 1,9,10
 875 243 875 243 893 220 c 128,-1,11
 911 197 911 197 929 173.5 c 128,-1,12
 947 150 947 150 964.5 127 c 128,-1,13
 982 104 982 104 997 84 c 1,14,-1
 825 -43 l 1,15,-1
 725 115 l 1,16,17
 694 84 694 84 657 57 c 128,-1,18
 620 30 620 30 579 10 c 128,-1,19
 538 -10 538 -10 494 -21.5 c 128,-1,20
 450 -33 450 -33 406 -33 c 0,21,22
 321 -33 321 -33 256.5 -7 c 128,-1,23
 192 19 192 19 148.5 64 c 128,-1,24
 105 109 105 109 83 171 c 128,-1,25
 61 233 61 233 61 305 c 0,26,27
 61 364 61 364 80.5 423 c 128,-1,28
 100 482 100 482 134 534.5 c 128,-1,29
 168 587 168 587 214.5 631.5 c 128,-1,30
 261 676 261 676 315 707 c 1,31,32
 244 785 244 785 208 863.5 c 128,-1,33
 172 942 172 942 172 1010 c 0,34,35
 172 1070 172 1070 196 1122.5 c 128,-1,36
 220 1175 220 1175 261 1213.5 c 128,-1,37
 302 1252 302 1252 357.5 1274 c 128,-1,38
 413 1296 413 1296 475 1296 c 0,39,40
 542 1296 542 1296 596.5 1271.5 c 128,-1,41
 651 1247 651 1247 690 1207 c 128,-1,42
 729 1167 729 1167 750.5 1115.5 c 128,-1,43
 772 1064 772 1064 772 1010 c 0,44,45
 772 962 772 962 757.5 913 c 128,-1,46
 743 864 743 864 716.5 818.5 c 128,-1,47
 690 773 690 773 652.5 735 c 128,-1,48
 615 697 615 697 569 672 c 1,49,-1
 743 422 l 1,50,51
 762 447 762 447 775.5 476 c 128,-1,52
 789 505 789 505 797 532 c 0,0,1
381 1008 m 0,53,54
 381 969 381 969 402 920 c 128,-1,55
 423 871 423 871 471 809 c 1,56,57
 496 824 496 824 514.5 846 c 128,-1,58
 533 868 533 868 545 893.5 c 128,-1,59
 557 919 557 919 563 946 c 128,-1,60
 569 973 569 973 569 999 c 256,61,62
 569 1025 569 1025 563 1048 c 128,-1,63
 557 1071 557 1071 545 1088.5 c 128,-1,64
 533 1106 533 1106 516 1116 c 128,-1,65
 499 1126 499 1126 477 1126 c 0,66,67
 429 1126 429 1126 405 1092.5 c 128,-1,68
 381 1059 381 1059 381 1008 c 0,53,54
406 563 m 1,69,70
 373 542 373 542 349.5 514.5 c 128,-1,71
 326 487 326 487 312 455.5 c 128,-1,72
 298 424 298 424 291.5 391.5 c 128,-1,73
 285 359 285 359 285 328 c 0,74,75
 285 294 285 294 296 261.5 c 128,-1,76
 307 229 307 229 327 203.5 c 128,-1,77
 347 178 347 178 374.5 162.5 c 128,-1,78
 402 147 402 147 434 147 c 0,79,80
 491 147 491 147 536.5 181 c 128,-1,81
 582 215 582 215 614 264 c 1,82,-1
 406 563 l 1,69,70
EndSplineSet
EndChar
StartChar: quotesingle
Encoding: 39 39 10
Width: 1024
Flags: W
LayerCount: 2
Back
Fore
SplineSet
424 1245 m 1,0,1
 424 1282 424 1282 434.5 1309.5 c 128,-1,2
 445 1337 445 1337 462.5 1355 c 128,-1,3
 480 1373 480 1373 503.5 1382 c 128,-1,4
 527 1391 527 1391 553 1391 c 0,5,6
 578 1391 578 1391 602 1382 c 128,-1,7
 626 1373 626 1373 644 1353.5 c 128,-1,8
 662 1334 662 1334 673 1304.5 c 128,-1,9
 684 1275 684 1275 684 1235 c 0,10,11
 684 1166 684 1166 618 985 c 2,12,-1
 561 827 l 1,13,-1
 367 872 l 1,14,-1
 420 1038 l 2,15,16
 428 1063 428 1063 433 1084.5 c 128,-1,17
 438 1106 438 1106 438 1126 c 2,18,-1
 424 1245 l 1,0,1
EndSplineSet
EndChar
StartChar: parenleft
Encoding: 40 40 11
Width: 1024
Flags: W
LayerCount: 2
Back
Fore
SplineSet
885 1184 m 1,0,1
 865 1176 865 1176 850 1176 c 0,2,3
 838 1176 838 1176 828 1179 c 128,-1,4
 818 1182 818 1182 809 1182 c 0,5,6
 806 1182 806 1182 803 1182 c 128,-1,7
 800 1182 800 1182 795 1180 c 0,8,9
 715 1133 715 1133 651.5 1068.5 c 128,-1,10
 588 1004 588 1004 544 921.5 c 128,-1,11
 500 839 500 839 476.5 738.5 c 128,-1,12
 453 638 453 638 453 520 c 0,13,14
 453 405 453 405 483 297.5 c 128,-1,15
 513 190 513 190 568.5 96 c 128,-1,16
 624 2 624 2 703 -76.5 c 128,-1,17
 782 -155 782 -155 881 -213 c 1,18,-1
 791 -367 l 1,19,20
 663 -302 663 -302 561 -208.5 c 128,-1,21
 459 -115 459 -115 388 -0.5 c 128,-1,22
 317 114 317 114 278.5 247 c 128,-1,23
 240 380 240 380 240 524 c 0,24,25
 240 672 240 672 279 802 c 128,-1,26
 318 932 318 932 390 1040 c 128,-1,27
 462 1148 462 1148 564 1232 c 128,-1,28
 666 1316 666 1316 791 1372 c 1,29,-1
 885 1184 l 1,0,1
EndSplineSet
EndChar
StartChar: parenright
Encoding: 41 41 12
Width: 1024
Flags: W
LayerCount: 2
Back
Fore
SplineSet
199 1374 m 1,0,1
 335 1317 335 1317 443 1226 c 128,-1,2
 551 1135 551 1135 627 1022 c 128,-1,3
 703 909 703 909 743.5 778.5 c 128,-1,4
 784 648 784 648 784 510 c 0,5,6
 784 371 784 371 742 237 c 128,-1,7
 700 103 700 103 622.5 -13.5 c 128,-1,8
 545 -130 545 -130 434.5 -223 c 128,-1,9
 324 -316 324 -316 186 -373 c 1,10,-1
 133 -199 l 1,11,12
 237 -151 237 -151 318.5 -77 c 128,-1,13
 400 -3 400 -3 456 88.5 c 128,-1,14
 512 180 512 180 541.5 286 c 128,-1,15
 571 392 571 392 571 504 c 0,16,17
 571 736 571 736 461 913.5 c 128,-1,18
 351 1091 351 1091 145 1196 c 1,19,-1
 199 1374 l 1,0,1
EndSplineSet
EndChar
StartChar: asterisk
Encoding: 42 42 13
Width: 1024
Flags: W
LayerCount: 2
Back
Fore
SplineSet
406 1075 m 1,0,-1
 647 1075 l 1,1,-1
 604 760 l 1,2,-1
 889 889 l 1,3,-1
 965 713 l 1,4,-1
 645 614 l 1,5,-1
 879 334 l 1,6,-1
 715 207 l 1,7,-1
 516 508 l 1,8,-1
 311 205 l 1,9,-1
 150 334 l 1,10,-1
 389 612 l 1,11,-1
 70 711 l 1,12,-1
 141 897 l 1,13,-1
 434 760 l 1,14,-1
 406 1075 l 1,0,-1
EndSplineSet
EndChar
StartChar: plus
Encoding: 43 43 14
Width: 1024
Flags: W
LayerCount: 2
Back
Fore
SplineSet
424 1083 m 1,0,-1
 623 1083 l 1,1,-1
 623 754 l 1,2,-1
 950 754 l 1,3,-1
 950 580 l 1,4,-1
 623 580 l 1,5,-1
 623 221 l 1,6,-1
 424 221 l 1,7,-1
 424 580 l 1,8,-1
 84 580 l 1,9,-1
 84 754 l 1,10,-1
 424 754 l 1,11,-1
 424 1083 l 1,0,-1
EndSplineSet
EndChar
StartChar: hyphen
Encoding: 45 45 16
Width: 1024
Flags: W
LayerCount: 2
Back
Fore
SplineSet
131 750 m 1,0,-1
 899 750 l 1,1,-1
 899 563 l 1,2,-1
 131 563 l 1,3,-1
 131 750 l 1,0,-1
EndSplineSet
EndChar
StartChar: period
Encoding: 46 46 17
Width: 1024
Flags: W
LayerCount: 2
Back
Fore
SplineSet
494 252 m 0,0,1
 524 252 524 252 552 239.5 c 128,-1,2
 580 227 580 227 601 206.5 c 128,-1,3
 622 186 622 186 634.5 161 c 128,-1,4
 647 136 647 136 647 111 c 0,5,6
 647 83 647 83 635 58 c 128,-1,7
 623 33 623 33 602 14 c 128,-1,8
 581 -5 581 -5 553 -16 c 128,-1,9
 525 -27 525 -27 494 -27 c 0,10,11
 462 -27 462 -27 434 -16 c 128,-1,12
 406 -5 406 -5 385.5 13.5 c 128,-1,13
 365 32 365 32 353.5 57 c 128,-1,14
 342 82 342 82 342 111 c 256,15,16
 342 140 342 140 354 165.5 c 128,-1,17
 366 191 366 191 387 210.5 c 128,-1,18
 408 230 408 230 435.5 241 c 128,-1,19
 463 252 463 252 494 252 c 0,0,1
EndSplineSet
EndChar
StartChar: slash
Encoding: 47 47 18
Width: 1024
Flags: W
LayerCount: 2
Back
Fore
SplineSet
106 -10 m 1,0,-1
 741 1366 l 1,1,-1
 920 1274 l 1,2,-1
 287 -96 l 1,3,-1
 106 -10 l 1,0,-1
EndSplineSet
EndChar
StartChar: zero
Encoding: 48 48 19
Width: 1024
Flags: W
LayerCount: 2
Back
Fore
SplineSet
821 1122 m 0,0,1
 884 1039 884 1039 921 909 c 128,-1,2
 958 779 958 779 958 618 c 0,3,4
 958 451 958 451 921 327.5 c 128,-1,5
 884 204 884 204 822.5 122.5 c 128,-1,6
 761 41 761 41 680 1 c 128,-1,7
 599 -39 599 -39 512 -39 c 0,8,9
 421 -39 421 -39 340.5 9.5 c 128,-1,10
 260 58 260 58 200 146 c 128,-1,11
 140 234 140 234 105 357 c 128,-1,12
 70 480 70 480 70 629 c 256,13,14
 70 778 70 778 106 902 c 128,-1,15
 142 1026 142 1026 202.5 1115 c 128,-1,16
 263 1204 263 1204 343 1253.5 c 128,-1,17
 423 1303 423 1303 512 1303 c 0,18,19
 563 1303 563 1303 606 1291.5 c 128,-1,20
 649 1280 649 1280 686.5 1257 c 128,-1,21
 724 1234 724 1234 756.5 1200.5 c 128,-1,22
 789 1167 789 1167 821 1122 c 0,0,1
672 977 m 1,23,24
 647 1036 647 1036 606 1070 c 128,-1,25
 565 1104 565 1104 514 1104 c 0,26,27
 469 1104 469 1104 428.5 1071.5 c 128,-1,28
 388 1039 388 1039 357 980 c 128,-1,29
 326 921 326 921 307.5 838.5 c 128,-1,30
 289 756 289 756 289 655 c 0,31,32
 289 637 289 637 290 615 c 128,-1,33
 291 593 291 593 292.5 570.5 c 128,-1,34
 294 548 294 548 295.5 527 c 128,-1,35
 297 506 297 506 299 492 c 1,36,-1
 672 977 l 1,23,24
356 293 m 1,37,38
 381 234 381 234 422 200 c 128,-1,39
 463 166 463 166 514 166 c 0,40,41
 559 166 559 166 599.5 198.5 c 128,-1,42
 640 231 640 231 671 289.5 c 128,-1,43
 702 348 702 348 720.5 430.5 c 128,-1,44
 739 513 739 513 739 614 c 0,45,46
 739 632 739 632 738 654.5 c 128,-1,47
 737 677 737 677 735.5 699.5 c 128,-1,48
 734 722 734 722 732 742.5 c 128,-1,49
 730 763 730 763 729 778 c 1,50,-1
 356 293 l 1,37,38
EndSplineSet
EndChar
StartChar: one
Encoding: 49 49 20
Width: 1024
Flags: W
LayerCount: 2
Back
Fore
SplineSet
653 1276 m 1,0,-1
 653 0 l 1,1,-1
 428 0 l 1,2,-1
 428 1016 l 1,3,-1
 209 950 l 1,4,-1
 154 1090 l 1,5,-1
 500 1276 l 1,6,-1
 653 1276 l 1,0,-1
EndSplineSet
EndChar
StartChar: two
Encoding: 50 50 21
Width: 1024
Flags: W
LayerCount: 2
Back
Fore
SplineSet
111 1047 m 1,0,1
 169 1173 169 1173 272 1239 c 128,-1,2
 375 1305 375 1305 508 1305 c 0,3,4
 595 1305 595 1305 668 1275 c 128,-1,5
 741 1245 741 1245 794 1193.5 c 128,-1,6
 847 1142 847 1142 877 1074 c 128,-1,7
 907 1006 907 1006 907 930 c 0,8,9
 907 852 907 852 878.5 785 c 128,-1,10
 850 718 850 718 804.5 658.5 c 128,-1,11
 759 599 759 599 702 544 c 128,-1,12
 645 489 645 489 588 432.5 c 128,-1,13
 531 376 531 376 479.5 317 c 128,-1,14
 428 258 428 258 393 190 c 1,15,-1
 834 190 l 2,16,17
 845 191 845 191 853 196.5 c 128,-1,18
 861 202 861 202 869 208 c 128,-1,19
 877 214 877 214 886 218.5 c 128,-1,20
 895 223 895 223 909 223 c 1,21,-1
 909 0 l 1,22,-1
 117 0 l 1,23,-1
 117 127 l 1,24,25
 145 196 145 196 184.5 259 c 128,-1,26
 224 322 224 322 268 379 c 128,-1,27
 312 436 312 436 358 486.5 c 128,-1,28
 404 537 404 537 446 582 c 0,29,30
 478 616 478 616 517.5 654 c 128,-1,31
 557 692 557 692 591.5 735 c 128,-1,32
 626 778 626 778 649 826 c 128,-1,33
 672 874 672 874 672 928 c 0,34,35
 672 965 672 965 659.5 998.5 c 128,-1,36
 647 1032 647 1032 624.5 1056.5 c 128,-1,37
 602 1081 602 1081 570 1095.5 c 128,-1,38
 538 1110 538 1110 500 1110 c 0,39,40
 452 1110 452 1110 420.5 1097.5 c 128,-1,41
 389 1085 389 1085 369 1066 c 128,-1,42
 349 1047 349 1047 337.5 1023.5 c 128,-1,43
 326 1000 326 1000 318 977.5 c 128,-1,44
 310 955 310 955 303.5 936.5 c 128,-1,45
 297 918 297 918 287 909 c 1,46,-1
 111 1047 l 1,0,1
EndSplineSet
EndChar
StartChar: three
Encoding: 51 51 22
Width: 1024
Flags: W
LayerCount: 2
Back
Fore
SplineSet
877 950 m 0,0,1
 877 900 877 900 861 857 c 128,-1,2
 845 814 845 814 818.5 779.5 c 128,-1,3
 792 745 792 745 759.5 720 c 128,-1,4
 727 695 727 695 694 680 c 1,5,6
 733 666 733 666 771 637 c 128,-1,7
 809 608 809 608 839 566 c 128,-1,8
 869 524 869 524 887 470.5 c 128,-1,9
 905 417 905 417 905 354 c 0,10,11
 905 266 905 266 876 193.5 c 128,-1,12
 847 121 847 121 791 69.5 c 128,-1,13
 735 18 735 18 652.5 -10.5 c 128,-1,14
 570 -39 570 -39 463 -39 c 0,15,16
 357 -39 357 -39 264 0.5 c 128,-1,17
 171 40 171 40 96 133 c 1,18,-1
 258 330 l 1,19,20
 267 324 267 324 271 318 c 128,-1,21
 275 312 275 312 278 303.5 c 128,-1,22
 281 295 281 295 284.5 283.5 c 128,-1,23
 288 272 288 272 295 256 c 0,24,25
 307 235 307 235 326 217.5 c 128,-1,26
 345 200 345 200 369 187.5 c 128,-1,27
 393 175 393 175 420 167.5 c 128,-1,28
 447 160 447 160 473 160 c 0,29,30
 515 160 515 160 551.5 174 c 128,-1,31
 588 188 588 188 616 215.5 c 128,-1,32
 644 243 644 243 660 283 c 128,-1,33
 676 323 676 323 676 375 c 0,34,35
 676 421 676 421 657.5 457 c 128,-1,36
 639 493 639 493 606 518 c 128,-1,37
 573 543 573 543 528 556 c 128,-1,38
 483 569 483 569 430 569 c 0,39,40
 425 569 425 569 418.5 568.5 c 128,-1,41
 412 568 412 568 400 567.5 c 128,-1,42
 388 567 388 567 368 566.5 c 128,-1,43
 348 566 348 566 317 565 c 1,44,-1
 317 750 l 1,45,46
 409 750 409 750 472 764 c 128,-1,47
 535 778 535 778 573.5 804 c 128,-1,48
 612 830 612 830 628.5 867.5 c 128,-1,49
 645 905 645 905 645 952 c 0,50,51
 645 984 645 984 634 1012.5 c 128,-1,52
 623 1041 623 1041 602 1062 c 128,-1,53
 581 1083 581 1083 550.5 1095.5 c 128,-1,54
 520 1108 520 1108 481 1108 c 0,55,56
 432 1108 432 1108 378.5 1081 c 128,-1,57
 325 1054 325 1054 268 985 c 1,58,-1
 137 1133 l 1,59,60
 205 1224 205 1224 293.5 1264.5 c 128,-1,61
 382 1305 382 1305 487 1305 c 0,62,63
 572 1305 572 1305 643.5 1278.5 c 128,-1,64
 715 1252 715 1252 767 1205 c 128,-1,65
 819 1158 819 1158 848 1093 c 128,-1,66
 877 1028 877 1028 877 950 c 0,0,1
EndSplineSet
EndChar
StartChar: four
Encoding: 52 52 23
Width: 1024
Flags: W
LayerCount: 2
Back
Fore
SplineSet
641 1276 m 1,0,-1
 806 1276 l 1,1,-1
 806 506 l 1,2,-1
 976 506 l 1,3,-1
 976 313 l 1,4,-1
 806 313 l 1,5,-1
 806 0 l 1,6,-1
 575 0 l 1,7,-1
 575 315 l 1,8,-1
 88 315 l 1,9,-1
 88 459 l 1,10,-1
 641 1276 l 1,0,-1
583 881 m 1,11,-1
 325 500 l 1,12,-1
 583 500 l 1,13,-1
 583 881 l 1,11,-1
EndSplineSet
EndChar
StartChar: five
Encoding: 53 53 24
Width: 1024
Flags: W
LayerCount: 2
Back
Fore
SplineSet
219 1276 m 1,0,-1
 905 1276 l 1,1,-1
 905 1081 l 1,2,-1
 420 1081 l 1,3,-1
 403 834 l 1,4,5
 439 845 439 845 473.5 850.5 c 128,-1,6
 508 856 508 856 545 856 c 0,7,8
 636 856 636 856 710 826 c 128,-1,9
 784 796 784 796 836 739 c 128,-1,10
 888 682 888 682 916 599.5 c 128,-1,11
 944 517 944 517 944 412 c 0,12,13
 944 312 944 312 914.5 229 c 128,-1,14
 885 146 885 146 829.5 86.5 c 128,-1,15
 774 27 774 27 695.5 -6 c 128,-1,16
 617 -39 617 -39 520 -39 c 0,17,18
 456 -39 456 -39 397 -26 c 128,-1,19
 338 -13 338 -13 286 16 c 128,-1,20
 234 45 234 45 189 91 c 128,-1,21
 144 137 144 137 109 203 c 1,22,-1
 291 340 l 1,23,24
 300 335 300 335 304.5 328 c 128,-1,25
 309 321 309 321 312 312 c 128,-1,26
 315 303 315 303 317 294 c 128,-1,27
 319 285 319 285 322 276 c 0,28,29
 343 230 343 230 390.5 197 c 128,-1,30
 438 164 438 164 512 164 c 0,31,32
 555 164 555 164 592.5 179.5 c 128,-1,33
 630 195 630 195 657.5 226.5 c 128,-1,34
 685 258 685 258 701 305 c 128,-1,35
 717 352 717 352 717 414 c 0,36,37
 717 474 717 474 702.5 521 c 128,-1,38
 688 568 688 568 662 600.5 c 128,-1,39
 636 633 636 633 600 649.5 c 128,-1,40
 564 666 564 666 520 666 c 0,41,42
 458 666 458 666 411 636 c 128,-1,43
 364 606 364 606 319 543 c 1,44,-1
 172 606 l 1,45,-1
 219 1276 l 1,0,-1
EndSplineSet
EndChar
StartChar: six
Encoding: 54 54 25
Width: 1024
Flags: W
LayerCount: 2
Back
Fore
SplineSet
580 1303 m 0,0,1
 668 1303 668 1303 749 1264 c 128,-1,2
 830 1225 830 1225 901 1153 c 1,3,-1
 748 987 l 1,4,5
 737 990 737 990 731.5 996.5 c 128,-1,6
 726 1003 726 1003 722.5 1011.5 c 128,-1,7
 719 1020 719 1020 715.5 1030.5 c 128,-1,8
 712 1041 712 1041 705 1053 c 0,9,10
 685 1076 685 1076 651 1091 c 128,-1,11
 617 1106 617 1106 580 1106 c 256,12,13
 543 1106 543 1106 504 1088 c 128,-1,14
 465 1070 465 1070 430.5 1029 c 128,-1,15
 396 988 396 988 370 920.5 c 128,-1,16
 344 853 344 853 334 754 c 1,17,18
 354 774 354 774 379 791.5 c 128,-1,19
 404 809 404 809 431.5 822 c 128,-1,20
 459 835 459 835 488 842.5 c 128,-1,21
 517 850 517 850 545 850 c 0,22,23
 625 850 625 850 695 818 c 128,-1,24
 765 786 765 786 817.5 728 c 128,-1,25
 870 670 870 670 900 590 c 128,-1,26
 930 510 930 510 930 414 c 256,27,28
 930 318 930 318 898.5 235 c 128,-1,29
 867 152 867 152 813 91.5 c 128,-1,30
 759 31 759 31 686 -4 c 128,-1,31
 613 -39 613 -39 530 -39 c 0,32,33
 429 -39 429 -39 350 7.5 c 128,-1,34
 271 54 271 54 216.5 137.5 c 128,-1,35
 162 221 162 221 133 336 c 128,-1,36
 104 451 104 451 104 588 c 0,37,38
 104 754 104 754 138.5 887 c 128,-1,39
 173 1020 173 1020 236 1112 c 128,-1,40
 299 1204 299 1204 386.5 1253.5 c 128,-1,41
 474 1303 474 1303 580 1303 c 0,0,1
532 647 m 0,42,43
 477 647 477 647 424.5 613.5 c 128,-1,44
 372 580 372 580 338 524 c 1,45,-1
 338 487 l 2,46,47
 338 426 338 426 352.5 369 c 128,-1,48
 367 312 367 312 393 268.5 c 128,-1,49
 419 225 419 225 455 198.5 c 128,-1,50
 491 172 491 172 535 172 c 0,51,52
 569 172 569 172 599.5 188 c 128,-1,53
 630 204 630 204 653 234.5 c 128,-1,54
 676 265 676 265 689 310 c 128,-1,55
 702 355 702 355 702 414 c 0,56,57
 702 474 702 474 686.5 518 c 128,-1,58
 671 562 671 562 647 590.5 c 128,-1,59
 623 619 623 619 592.5 633 c 128,-1,60
 562 647 562 647 532 647 c 0,42,43
EndSplineSet
EndChar
StartChar: seven
Encoding: 55 55 26
Width: 1024
Flags: W
LayerCount: 2
Back
Fore
SplineSet
903 1159 m 1,0,1
 784 887 784 887 679 595 c 128,-1,2
 574 303 574 303 481 0 c 1,3,-1
 233 0 l 1,4,5
 324 272 324 272 421 543 c 128,-1,6
 518 814 518 814 627 1075 c 1,7,-1
 135 1075 l 1,8,-1
 135 1276 l 1,9,-1
 903 1276 l 1,10,-1
 903 1159 l 1,0,1
EndSplineSet
EndChar
StartChar: eight
Encoding: 56 56 27
Width: 1024
Flags: W
LayerCount: 2
Back
Fore
SplineSet
897 977 m 0,0,1
 897 935 897 935 882.5 893.5 c 128,-1,2
 868 852 868 852 842.5 814 c 128,-1,3
 817 776 817 776 783 742.5 c 128,-1,4
 749 709 749 709 711 684 c 1,5,6
 761 656 761 656 803 618.5 c 128,-1,7
 845 581 845 581 875.5 536 c 128,-1,8
 906 491 906 491 923 441 c 128,-1,9
 940 391 940 391 940 338 c 0,10,11
 940 258 940 258 907 189 c 128,-1,12
 874 120 874 120 816 69.5 c 128,-1,13
 758 19 758 19 680 -10 c 128,-1,14
 602 -39 602 -39 512 -39 c 0,15,16
 421 -39 421 -39 343 -10 c 128,-1,17
 265 19 265 19 208 69 c 128,-1,18
 151 119 151 119 118.5 186.5 c 128,-1,19
 86 254 86 254 86 332 c 0,20,21
 86 383 86 383 103 432 c 128,-1,22
 120 481 120 481 151.5 526 c 128,-1,23
 183 571 183 571 226 610 c 128,-1,24
 269 649 269 649 322 678 c 1,25,26
 284 703 284 703 251.5 735.5 c 128,-1,27
 219 768 219 768 195.5 805 c 128,-1,28
 172 842 172 842 158.5 882.5 c 128,-1,29
 145 923 145 923 145 965 c 0,30,31
 145 1035 145 1035 175 1098 c 128,-1,32
 205 1161 205 1161 256.5 1207.5 c 128,-1,33
 308 1254 308 1254 377 1281.5 c 128,-1,34
 446 1309 446 1309 524 1309 c 0,35,36
 604 1309 604 1309 672 1282.5 c 128,-1,37
 740 1256 740 1256 790 1210.5 c 128,-1,38
 840 1165 840 1165 868.5 1104.5 c 128,-1,39
 897 1044 897 1044 897 977 c 0,0,1
698 340 m 0,40,41
 698 377 698 377 683 412 c 128,-1,42
 668 447 668 447 641 477.5 c 128,-1,43
 614 508 614 508 575.5 533 c 128,-1,44
 537 558 537 558 489 575 c 1,45,46
 454 557 454 557 425 532.5 c 128,-1,47
 396 508 396 508 374 478.5 c 128,-1,48
 352 449 352 449 340 415.5 c 128,-1,49
 328 382 328 382 328 346 c 256,50,51
 328 310 328 310 343 277.5 c 128,-1,52
 358 245 358 245 383.5 221 c 128,-1,53
 409 197 409 197 443.5 182.5 c 128,-1,54
 478 168 478 168 516 168 c 0,55,56
 556 168 556 168 589.5 181.5 c 128,-1,57
 623 195 623 195 647 218 c 128,-1,58
 671 241 671 241 684.5 272.5 c 128,-1,59
 698 304 698 304 698 340 c 0,40,41
377 975 m 0,60,61
 377 943 377 943 390.5 914.5 c 128,-1,62
 404 886 404 886 427 861.5 c 128,-1,63
 450 837 450 837 480.5 816.5 c 128,-1,64
 511 796 511 796 545 778 c 1,65,66
 597 813 597 813 631.5 864 c 128,-1,67
 666 915 666 915 666 971 c 0,68,69
 666 998 666 998 654.5 1023 c 128,-1,70
 643 1048 643 1048 623 1067 c 128,-1,71
 603 1086 603 1086 576 1097 c 128,-1,72
 549 1108 549 1108 518 1108 c 256,73,74
 487 1108 487 1108 461 1097.5 c 128,-1,75
 435 1087 435 1087 416.5 1068.5 c 128,-1,76
 398 1050 398 1050 387.5 1026 c 128,-1,77
 377 1002 377 1002 377 975 c 0,60,61
EndSplineSet
EndChar
StartChar: nine
Encoding: 57 57 28
Width: 1024
Flags: W
LayerCount: 2
Back
Fore
SplineSet
436 -39 m 0,0,1
 348 -39 348 -39 267 0.5 c 128,-1,2
 186 40 186 40 115 113 c 1,3,-1
 268 279 l 1,4,5
 279 276 279 276 284.5 269.5 c 128,-1,6
 290 263 290 263 293.5 254.5 c 128,-1,7
 297 246 297 246 300.5 235.5 c 128,-1,8
 304 225 304 225 311 213 c 0,9,10
 331 190 331 190 365 175 c 128,-1,11
 399 160 399 160 436 160 c 256,12,13
 473 160 473 160 512 177.5 c 128,-1,14
 551 195 551 195 585 236 c 128,-1,15
 619 277 619 277 645 344 c 128,-1,16
 671 411 671 411 682 510 c 1,17,18
 662 490 662 490 637 472.5 c 128,-1,19
 612 455 612 455 584.5 442 c 128,-1,20
 557 429 557 429 528 421.5 c 128,-1,21
 499 414 499 414 471 414 c 0,22,23
 391 414 391 414 321 446 c 128,-1,24
 251 478 251 478 198.5 536 c 128,-1,25
 146 594 146 594 116 674 c 128,-1,26
 86 754 86 754 86 850 c 256,27,28
 86 946 86 946 117.5 1029 c 128,-1,29
 149 1112 149 1112 203 1172.5 c 128,-1,30
 257 1233 257 1233 329.5 1268 c 128,-1,31
 402 1303 402 1303 485 1303 c 0,32,33
 586 1303 586 1303 665 1256 c 128,-1,34
 744 1209 744 1209 799 1126 c 128,-1,35
 854 1043 854 1043 882.5 927.5 c 128,-1,36
 911 812 911 812 911 676 c 0,37,38
 911 509 911 509 876.5 376.5 c 128,-1,39
 842 244 842 244 779.5 151.5 c 128,-1,40
 717 59 717 59 629.5 10 c 128,-1,41
 542 -39 542 -39 436 -39 c 0,0,1
483 616 m 0,42,43
 539 616 539 616 591.5 650 c 128,-1,44
 644 684 644 684 678 739 c 1,45,-1
 678 776 l 2,46,47
 678 837 678 837 663.5 894.5 c 128,-1,48
 649 952 649 952 623 995.5 c 128,-1,49
 597 1039 597 1039 561 1065.5 c 128,-1,50
 525 1092 525 1092 481 1092 c 0,51,52
 446 1092 446 1092 415.5 1076 c 128,-1,53
 385 1060 385 1060 362.5 1029.5 c 128,-1,54
 340 999 340 999 326.5 953.5 c 128,-1,55
 313 908 313 908 313 850 c 0,56,57
 313 789 313 789 328.5 745 c 128,-1,58
 344 701 344 701 368 672.5 c 128,-1,59
 392 644 392 644 422.5 630 c 128,-1,60
 453 616 453 616 483 616 c 0,42,43
EndSplineSet
EndChar
StartChar: colon
Encoding: 58 58 29
Width: 1024
Flags: W
LayerCount: 2
Back
Fore
SplineSet
477 891 m 0,0,1
 505 891 505 891 532.5 881 c 128,-1,2
 560 871 560 871 582 852.5 c 128,-1,3
 604 834 604 834 617.5 808.5 c 128,-1,4
 631 783 631 783 631 752 c 0,5,6
 631 723 631 723 618.5 698 c 128,-1,7
 606 673 606 673 585 653.5 c 128,-1,8
 564 634 564 634 536 623 c 128,-1,9
 508 612 508 612 477 612 c 0,10,11
 447 612 447 612 419.5 623 c 128,-1,12
 392 634 392 634 371.5 653.5 c 128,-1,13
 351 673 351 673 338.5 698 c 128,-1,14
 326 723 326 723 326 752 c 0,15,16
 326 780 326 780 338.5 805.5 c 128,-1,17
 351 831 351 831 371.5 850 c 128,-1,18
 392 869 392 869 419.5 880 c 128,-1,19
 447 891 447 891 477 891 c 0,0,1
477 252 m 0,20,21
 505 252 505 252 532.5 241.5 c 128,-1,22
 560 231 560 231 582 212 c 128,-1,23
 604 193 604 193 617.5 167.5 c 128,-1,24
 631 142 631 142 631 111 c 0,25,26
 631 83 631 83 619 58 c 128,-1,27
 607 33 607 33 586 14 c 128,-1,28
 565 -5 565 -5 537 -16 c 128,-1,29
 509 -27 509 -27 477 -27 c 256,30,31
 445 -27 445 -27 417.5 -16 c 128,-1,32
 390 -5 390 -5 370 13.5 c 128,-1,33
 350 32 350 32 338 57 c 128,-1,34
 326 82 326 82 326 111 c 256,35,36
 326 140 326 140 338.5 165.5 c 128,-1,37
 351 191 351 191 371.5 210.5 c 128,-1,38
 392 230 392 230 419.5 241 c 128,-1,39
 447 252 447 252 477 252 c 0,20,21
EndSplineSet
EndChar
StartChar: semicolon
Encoding: 59 59 30
Width: 1024
Flags: W
LayerCount: 2
Back
Fore
SplineSet
647 61 m 0,0,1
 647 -20 647 -20 587 -120.5 c 128,-1,2
 527 -221 527 -221 406 -346 c 1,3,-1
 289 -242 l 1,4,5
 318 -215 318 -215 343 -186.5 c 128,-1,6
 368 -158 368 -158 386 -131 c 128,-1,7
 404 -104 404 -104 414 -80.5 c 128,-1,8
 424 -57 424 -57 424 -41 c 0,9,10
 424 -30 424 -30 415 -20.5 c 128,-1,11
 406 -11 406 -11 393 0 c 0,12,13
 367 22 367 22 346.5 46.5 c 128,-1,14
 326 71 326 71 326 106 c 0,15,16
 326 136 326 136 337 162 c 128,-1,17
 348 188 348 188 368 207.5 c 128,-1,18
 388 227 388 227 415.5 238.5 c 128,-1,19
 443 250 443 250 477 250 c 0,20,21
 510 250 510 250 540.5 236 c 128,-1,22
 571 222 571 222 595 197 c 128,-1,23
 619 172 619 172 633 137.5 c 128,-1,24
 647 103 647 103 647 61 c 0,0,1
477 891 m 0,25,26
 505 891 505 891 532.5 881 c 128,-1,27
 560 871 560 871 582 852.5 c 128,-1,28
 604 834 604 834 617.5 808.5 c 128,-1,29
 631 783 631 783 631 752 c 0,30,31
 631 723 631 723 618.5 698 c 128,-1,32
 606 673 606 673 585 653.5 c 128,-1,33
 564 634 564 634 536 623 c 128,-1,34
 508 612 508 612 477 612 c 0,35,36
 447 612 447 612 419.5 623 c 128,-1,37
 392 634 392 634 371.5 653.5 c 128,-1,38
 351 673 351 673 338.5 698 c 128,-1,39
 326 723 326 723 326 752 c 0,40,41
 326 780 326 780 338.5 805.5 c 128,-1,42
 351 831 351 831 371.5 850 c 128,-1,43
 392 869 392 869 419.5 880 c 128,-1,44
 447 891 447 891 477 891 c 0,25,26
EndSplineSet
EndChar
StartChar: less
Encoding: 60 60 31
Width: 1024
Flags: W
LayerCount: 2
Back
Fore
SplineSet
954 989 m 1,0,-1
 315 662 l 1,1,-1
 961 299 l 1,2,-1
 961 80 l 1,3,-1
 66 604 l 1,4,-1
 66 723 l 1,5,-1
 954 1192 l 1,6,-1
 954 989 l 1,0,-1
EndSplineSet
EndChar
StartChar: equal
Encoding: 61 61 32
Width: 1024
Flags: W
LayerCount: 2
Back
Fore
SplineSet
84 940 m 1,0,-1
 950 940 l 1,1,-1
 950 766 l 1,2,-1
 84 766 l 1,3,-1
 84 940 l 1,0,-1
84 522 m 1,4,-1
 950 522 l 1,5,-1
 950 348 l 1,6,-1
 84 348 l 1,7,-1
 84 522 l 1,4,-1
EndSplineSet
EndChar
StartChar: greater
Encoding: 62 62 33
Width: 1024
Flags: W
LayerCount: 2
Back
Fore
SplineSet
78 989 m 1,0,-1
 78 1192 l 1,1,-1
 971 723 l 1,2,-1
 971 604 l 1,3,-1
 76 80 l 1,4,-1
 76 299 l 1,5,-1
 719 662 l 1,6,-1
 78 989 l 1,0,-1
EndSplineSet
EndChar
StartChar: question
Encoding: 63 63 34
Width: 1024
Flags: W
LayerCount: 2
Back
Fore
SplineSet
539 248 m 0,0,1
 566 248 566 248 592.5 237 c 128,-1,2
 619 226 619 226 641 207 c 128,-1,3
 663 188 663 188 676.5 162 c 128,-1,4
 690 136 690 136 690 106 c 0,5,6
 690 79 690 79 678 54 c 128,-1,7
 666 29 666 29 645.5 10 c 128,-1,8
 625 -9 625 -9 597.5 -20 c 128,-1,9
 570 -31 570 -31 539 -31 c 0,10,11
 507 -31 507 -31 479 -20 c 128,-1,12
 451 -9 451 -9 430 10 c 128,-1,13
 409 29 409 29 397 54 c 128,-1,14
 385 79 385 79 385 106 c 0,15,16
 385 134 385 134 397 160 c 128,-1,17
 409 186 409 186 430 205.5 c 128,-1,18
 451 225 451 225 479 236.5 c 128,-1,19
 507 248 507 248 539 248 c 0,0,1
113 1141 m 1,20,21
 149 1195 149 1195 194.5 1238.5 c 128,-1,22
 240 1282 240 1282 293.5 1312.5 c 128,-1,23
 347 1343 347 1343 406.5 1359.5 c 128,-1,24
 466 1376 466 1376 530 1376 c 0,25,26
 618 1376 618 1376 689 1346.5 c 128,-1,27
 760 1317 760 1317 809 1266 c 128,-1,28
 858 1215 858 1215 884.5 1148 c 128,-1,29
 911 1081 911 1081 911 1006 c 0,30,31
 911 948 911 948 895.5 902.5 c 128,-1,32
 880 857 880 857 852.5 818 c 128,-1,33
 825 779 825 779 786.5 743 c 128,-1,34
 748 707 748 707 702 670 c 0,35,36
 679 652 679 652 665.5 632 c 128,-1,37
 652 612 652 612 645.5 590.5 c 128,-1,38
 639 569 639 569 637 544.5 c 128,-1,39
 635 520 635 520 635 492 c 2,40,-1
 635 379 l 1,41,-1
 432 379 l 1,42,-1
 432 492 l 2,43,44
 432 535 432 535 435 570 c 128,-1,45
 438 605 438 605 451.5 640.5 c 128,-1,46
 465 676 465 676 493 714.5 c 128,-1,47
 521 753 521 753 571 803 c 0,48,49
 633 865 633 865 657.5 915.5 c 128,-1,50
 682 966 682 966 682 1016 c 0,51,52
 682 1053 682 1053 670 1085.5 c 128,-1,53
 658 1118 658 1118 636.5 1142 c 128,-1,54
 615 1166 615 1166 585.5 1180 c 128,-1,55
 556 1194 556 1194 522 1194 c 0,56,57
 484 1194 484 1194 449.5 1179.5 c 128,-1,58
 415 1165 415 1165 383 1139 c 128,-1,59
 351 1113 351 1113 321.5 1076.5 c 128,-1,60
 292 1040 292 1040 266 995 c 1,61,-1
 113 1141 l 1,20,21
EndSplineSet
EndChar
StartChar: at
Encoding: 64 64 35
Width: 1024
Flags: W
LayerCount: 2
Back
Fore
SplineSet
918 70 m 1,0,1
 845 14 845 14 768.5 -7.5 c 128,-1,2
 692 -29 692 -29 602 -29 c 0,3,4
 490 -29 490 -29 390 14 c 128,-1,5
 290 57 290 57 214.5 142 c 128,-1,6
 139 227 139 227 95 354 c 128,-1,7
 51 481 51 481 51 649 c 0,8,9
 51 816 51 816 95 940 c 128,-1,10
 139 1064 139 1064 210.5 1146 c 128,-1,11
 282 1228 282 1228 372.5 1268.5 c 128,-1,12
 463 1309 463 1309 557 1309 c 256,13,14
 651 1309 651 1309 727 1277.5 c 128,-1,15
 803 1246 803 1246 857 1180.5 c 128,-1,16
 911 1115 911 1115 940 1014.5 c 128,-1,17
 969 914 969 914 969 776 c 2,18,-1
 969 334 l 1,19,-1
 782 334 l 1,20,-1
 782 397 l 1,21,22
 756 365 756 365 710.5 342 c 128,-1,23
 665 319 665 319 612 319 c 0,24,25
 553 319 553 319 502.5 340.5 c 128,-1,26
 452 362 452 362 414.5 400 c 128,-1,27
 377 438 377 438 355.5 489.5 c 128,-1,28
 334 541 334 541 334 602 c 0,29,30
 334 678 334 678 359 738.5 c 128,-1,31
 384 799 384 799 437 841 c 128,-1,32
 490 883 490 883 572 905.5 c 128,-1,33
 654 928 654 928 768 930 c 1,34,35
 763 978 763 978 746 1018 c 128,-1,36
 729 1058 729 1058 700.5 1086.5 c 128,-1,37
 672 1115 672 1115 634 1131 c 128,-1,38
 596 1147 596 1147 551 1147 c 0,39,40
 493 1147 493 1147 437.5 1116.5 c 128,-1,41
 382 1086 382 1086 338 1024.5 c 128,-1,42
 294 963 294 963 267 870 c 128,-1,43
 240 777 240 777 240 651 c 0,44,45
 240 528 240 528 270.5 432 c 128,-1,46
 301 336 301 336 352.5 270.5 c 128,-1,47
 404 205 404 205 472 171 c 128,-1,48
 540 137 540 137 614 137 c 0,49,50
 664 137 664 137 721.5 154.5 c 128,-1,51
 779 172 779 172 836 221 c 1,52,-1
 918 70 l 1,0,1
776 776 m 1,53,54
 712 775 712 775 665.5 761.5 c 128,-1,55
 619 748 619 748 589 726 c 128,-1,56
 559 704 559 704 544.5 675.5 c 128,-1,57
 530 647 530 647 530 616 c 0,58,59
 530 555 530 555 559.5 518 c 128,-1,60
 589 481 589 481 637 481 c 0,61,62
 679 481 679 481 705.5 498.5 c 128,-1,63
 732 516 732 516 748 552.5 c 128,-1,64
 764 589 764 589 770 644.5 c 128,-1,65
 776 700 776 700 776 776 c 1,53,54
EndSplineSet
EndChar
StartChar: A
Encoding: 65 65 36
Width: 1024
Flags: W
LayerCount: 2
Back
Fore
SplineSet
0 0 m 1,0,-1
 426 1298 l 1,1,-1
 559 1298 l 1,2,-1
 1026 0 l 1,3,-1
 786 0 l 1,4,-1
 670 330 l 1,5,-1
 336 330 l 1,6,-1
 236 0 l 1,7,-1
 0 0 l 1,0,-1
629 489 m 1,8,-1
 496 913 l 1,9,-1
 371 489 l 1,10,-1
 629 489 l 1,8,-1
EndSplineSet
EndChar
StartChar: B
Encoding: 66 66 37
Width: 1024
Flags: W
LayerCount: 2
Back
Fore
SplineSet
82 1276 m 1,0,-1
 469 1276 l 2,1,2
 585 1276 585 1276 669 1252 c 128,-1,3
 753 1228 753 1228 808 1184.5 c 128,-1,4
 863 1141 863 1141 889 1080 c 128,-1,5
 915 1019 915 1019 915 946 c 0,6,7
 915 908 915 908 904.5 870 c 128,-1,8
 894 832 894 832 873.5 797.5 c 128,-1,9
 853 763 853 763 824.5 733.5 c 128,-1,10
 796 704 796 704 760 684 c 1,11,12
 805 663 805 663 842.5 629 c 128,-1,13
 880 595 880 595 907 554 c 128,-1,14
 934 513 934 513 949.5 467 c 128,-1,15
 965 421 965 421 965 375 c 0,16,17
 965 291 965 291 935.5 221.5 c 128,-1,18
 906 152 906 152 844.5 103 c 128,-1,19
 783 54 783 54 689 27 c 128,-1,20
 595 0 595 0 467 0 c 2,21,-1
 82 0 l 1,22,-1
 82 1276 l 1,0,-1
311 1085 m 1,23,-1
 311 778 l 1,24,-1
 451 778 l 2,25,26
 516 778 516 778 560.5 790 c 128,-1,27
 605 802 605 802 632.5 823 c 128,-1,28
 660 844 660 844 672 872.5 c 128,-1,29
 684 901 684 901 684 934 c 0,30,31
 684 964 684 964 671 991.5 c 128,-1,32
 658 1019 658 1019 632 1039.5 c 128,-1,33
 606 1060 606 1060 565.5 1072.5 c 128,-1,34
 525 1085 525 1085 471 1085 c 2,35,-1
 311 1085 l 1,23,-1
311 592 m 1,36,-1
 311 195 l 1,37,-1
 489 195 l 2,38,39
 543 195 543 195 586.5 204 c 128,-1,40
 630 213 630 213 661 235 c 128,-1,41
 692 257 692 257 708.5 292.5 c 128,-1,42
 725 328 725 328 725 381 c 0,43,44
 725 426 725 426 710.5 464.5 c 128,-1,45
 696 503 696 503 664.5 531.5 c 128,-1,46
 633 560 633 560 581.5 576 c 128,-1,47
 530 592 530 592 457 592 c 2,48,-1
 311 592 l 1,36,-1
EndSplineSet
EndChar
StartChar: C
Encoding: 67 67 38
Width: 1024
Flags: W
LayerCount: 2
Back
Fore
SplineSet
791 915 m 1,0,1
 782 918 782 918 779 924 c 128,-1,2
 776 930 776 930 775.5 938.5 c 128,-1,3
 775 947 775 947 774 958 c 128,-1,4
 773 969 773 969 768 981 c 0,5,6
 739 1047 739 1047 690 1084.5 c 128,-1,7
 641 1122 641 1122 565 1122 c 0,8,9
 504 1122 504 1122 454.5 1087.5 c 128,-1,10
 405 1053 405 1053 370 990 c 128,-1,11
 335 927 335 927 316 838 c 128,-1,12
 297 749 297 749 297 641 c 0,13,14
 297 536 297 536 317.5 447.5 c 128,-1,15
 338 359 338 359 375 294 c 128,-1,16
 412 229 412 229 464 192.5 c 128,-1,17
 516 156 516 156 578 156 c 0,18,19
 652 156 652 156 708 201.5 c 128,-1,20
 764 247 764 247 809 326 c 1,21,-1
 983 213 l 1,22,23
 911 89 911 89 808 26 c 128,-1,24
 705 -37 705 -37 584 -37 c 0,25,26
 471 -37 471 -37 375 3.5 c 128,-1,27
 279 44 279 44 208.5 127 c 128,-1,28
 138 210 138 210 98.5 335.5 c 128,-1,29
 59 461 59 461 59 631 c 0,30,31
 59 756 59 756 80.5 855.5 c 128,-1,32
 102 955 102 955 139.5 1030 c 128,-1,33
 177 1105 177 1105 227 1158 c 128,-1,34
 277 1211 277 1211 333.5 1244.5 c 128,-1,35
 390 1278 390 1278 450 1293.5 c 128,-1,36
 510 1309 510 1309 567 1309 c 0,37,38
 639 1309 639 1309 705 1288 c 128,-1,39
 771 1267 771 1267 826.5 1228.5 c 128,-1,40
 882 1190 882 1190 925.5 1136.5 c 128,-1,41
 969 1083 969 1083 997 1018 c 1,42,-1
 791 915 l 1,0,1
EndSplineSet
EndChar
StartChar: D
Encoding: 68 68 39
Width: 1024
Flags: W
LayerCount: 2
Back
Fore
SplineSet
90 1276 m 1,0,-1
 420 1276 l 2,1,2
 505 1276 505 1276 570 1264 c 128,-1,3
 635 1252 635 1252 685 1229.5 c 128,-1,4
 735 1207 735 1207 773.5 1174 c 128,-1,5
 812 1141 812 1141 844 1098 c 0,6,7
 909 1010 909 1010 942 892.5 c 128,-1,8
 975 775 975 775 975 629 c 0,9,10
 975 484 975 484 942.5 367.5 c 128,-1,11
 910 251 910 251 839.5 169.5 c 128,-1,12
 769 88 769 88 659 44 c 128,-1,13
 549 0 549 0 395 0 c 2,14,-1
 90 0 l 1,15,-1
 90 1276 l 1,0,-1
313 1085 m 1,16,-1
 313 180 l 1,17,-1
 391 180 l 2,18,19
 572 180 572 180 658.5 294.5 c 128,-1,20
 745 409 745 409 745 623 c 0,21,22
 745 731 745 731 726.5 816.5 c 128,-1,23
 708 902 708 902 667.5 962 c 128,-1,24
 627 1022 627 1022 564 1053.5 c 128,-1,25
 501 1085 501 1085 412 1085 c 2,26,-1
 313 1085 l 1,16,-1
EndSplineSet
EndChar
StartChar: E
Encoding: 69 69 40
Width: 1024
Flags: W
LayerCount: 2
Back
Fore
SplineSet
115 1276 m 1,0,-1
 946 1276 l 1,1,-1
 946 1079 l 1,2,-1
 338 1079 l 1,3,-1
 338 764 l 1,4,-1
 842 764 l 1,5,-1
 842 563 l 1,6,-1
 338 563 l 1,7,-1
 338 197 l 1,8,-1
 942 197 l 1,9,-1
 942 0 l 1,10,-1
 115 0 l 1,11,-1
 115 1276 l 1,0,-1
EndSplineSet
EndChar
StartChar: F
Encoding: 70 70 41
Width: 1024
Flags: W
LayerCount: 2
Back
Fore
SplineSet
139 1276 m 1,0,-1
 932 1276 l 1,1,-1
 932 1081 l 1,2,-1
 369 1081 l 1,3,-1
 369 782 l 1,4,-1
 823 782 l 1,5,-1
 823 590 l 1,6,-1
 369 590 l 1,7,-1
 369 0 l 1,8,-1
 139 0 l 1,9,-1
 139 1276 l 1,0,-1
EndSplineSet
EndChar
StartChar: G
Encoding: 71 71 42
Width: 1024
Flags: W
LayerCount: 2
Back
Fore
SplineSet
813 913 m 1,0,1
 795 921 795 921 784 928.5 c 128,-1,2
 773 936 773 936 767 944 c 128,-1,3
 761 952 761 952 757.5 960 c 128,-1,4
 754 968 754 968 750 977 c 0,5,6
 738 1005 738 1005 717.5 1029.5 c 128,-1,7
 697 1054 697 1054 671 1073 c 128,-1,8
 645 1092 645 1092 614 1103 c 128,-1,9
 583 1114 583 1114 549 1114 c 0,10,11
 498 1114 498 1114 448 1089.5 c 128,-1,12
 398 1065 398 1065 358.5 1010 c 128,-1,13
 319 955 319 955 294.5 867.5 c 128,-1,14
 270 780 270 780 270 653 c 0,15,16
 270 537 270 537 291 445 c 128,-1,17
 312 353 312 353 350 289.5 c 128,-1,18
 388 226 388 226 439.5 192 c 128,-1,19
 491 158 491 158 553 158 c 0,20,21
 599 158 599 158 647 169 c 128,-1,22
 695 180 695 180 735 211 c 1,23,-1
 735 451 l 1,24,-1
 518 451 l 1,25,-1
 518 645 l 1,26,-1
 952 645 l 1,27,-1
 952 109 l 1,28,29
 860 32 860 32 762.5 -2.5 c 128,-1,30
 665 -37 665 -37 553 -37 c 0,31,32
 428 -37 428 -37 331 12.5 c 128,-1,33
 234 62 234 62 168 151.5 c 128,-1,34
 102 241 102 241 67.5 365 c 128,-1,35
 33 489 33 489 33 639 c 0,36,37
 33 773 33 773 58.5 875 c 128,-1,38
 84 977 84 977 126 1051.5 c 128,-1,39
 168 1126 168 1126 222.5 1175.5 c 128,-1,40
 277 1225 277 1225 334.5 1254.5 c 128,-1,41
 392 1284 392 1284 449 1296.5 c 128,-1,42
 506 1309 506 1309 553 1309 c 0,43,44
 618 1309 618 1309 677.5 1291 c 128,-1,45
 737 1273 737 1273 789 1240 c 128,-1,46
 841 1207 841 1207 883 1161 c 128,-1,47
 925 1115 925 1115 956 1059 c 1,48,-1
 813 913 l 1,0,1
EndSplineSet
EndChar
StartChar: H
Encoding: 72 72 43
Width: 1024
Flags: W
LayerCount: 2
Back
Fore
SplineSet
936 0 m 1,0,-1
 700 0 l 1,1,-1
 700 571 l 1,2,-1
 324 571 l 1,3,-1
 324 0 l 1,4,-1
 88 0 l 1,5,-1
 88 1276 l 1,6,-1
 338 1276 l 1,7,8
 342 1272 342 1272 342 1266 c 0,9,10
 342 1262 342 1262 339.5 1257.5 c 128,-1,11
 337 1253 337 1253 334 1246 c 128,-1,12
 331 1239 331 1239 328 1229 c 128,-1,13
 325 1219 325 1219 324 1204 c 2,14,-1
 324 762 l 1,15,-1
 700 762 l 1,16,-1
 700 1276 l 1,17,-1
 950 1276 l 1,18,19
 954 1272 954 1272 954 1266 c 0,20,21
 954 1262 954 1262 951.5 1257.5 c 128,-1,22
 949 1253 949 1253 946 1246 c 128,-1,23
 943 1239 943 1239 940 1229 c 128,-1,24
 937 1219 937 1219 936 1204 c 2,25,-1
 936 0 l 1,0,-1
EndSplineSet
EndChar
StartChar: I
Encoding: 73 73 44
Width: 1024
Flags: W
LayerCount: 2
Back
Fore
SplineSet
162 1276 m 1,0,-1
 874 1276 l 1,1,-1
 874 1085 l 1,2,-1
 627 1085 l 1,3,-1
 627 188 l 1,4,-1
 885 188 l 1,5,-1
 885 0 l 1,6,-1
 150 0 l 1,7,-1
 150 190 l 1,8,-1
 397 190 l 1,9,-1
 397 1085 l 1,10,-1
 162 1085 l 1,11,-1
 162 1276 l 1,0,-1
EndSplineSet
EndChar
StartChar: J
Encoding: 74 74 45
Width: 1024
Flags: W
LayerCount: 2
Back
Fore
SplineSet
291 1276 m 1,0,-1
 950 1276 l 1,1,-1
 950 1085 l 1,2,-1
 758 1085 l 1,3,-1
 758 412 l 2,4,5
 758 295 758 295 729 210.5 c 128,-1,6
 700 126 700 126 650 71.5 c 128,-1,7
 600 17 600 17 534 -9 c 128,-1,8
 468 -35 468 -35 393 -35 c 0,9,10
 290 -35 290 -35 203.5 10 c 128,-1,11
 117 55 117 55 51 143 c 1,12,-1
 197 319 l 1,13,14
 207 316 207 316 212.5 308.5 c 128,-1,15
 218 301 218 301 222 290.5 c 128,-1,16
 226 280 226 280 230.5 267.5 c 128,-1,17
 235 255 235 255 242 242 c 0,18,19
 254 226 254 226 266.5 211.5 c 128,-1,20
 279 197 279 197 295 186 c 128,-1,21
 311 175 311 175 332.5 168.5 c 128,-1,22
 354 162 354 162 383 162 c 0,23,24
 458 162 458 162 493 226.5 c 128,-1,25
 528 291 528 291 528 438 c 2,26,-1
 528 1085 l 1,27,-1
 291 1085 l 1,28,-1
 291 1276 l 1,0,-1
EndSplineSet
EndChar
StartChar: K
Encoding: 75 75 46
Width: 1024
Flags: W
LayerCount: 2
Back
Fore
SplineSet
324 0 m 1,0,-1
 88 0 l 1,1,-1
 88 1276 l 1,2,-1
 338 1276 l 1,3,4
 342 1272 342 1272 342 1266 c 0,5,6
 342 1262 342 1262 339.5 1257.5 c 128,-1,7
 337 1253 337 1253 334 1246 c 128,-1,8
 331 1239 331 1239 328 1229 c 128,-1,9
 325 1219 325 1219 324 1204 c 2,10,-1
 324 788 l 1,11,-1
 758 1292 l 1,12,13
 792 1284 792 1284 823 1280 c 128,-1,14
 854 1276 854 1276 877 1276 c 2,15,-1
 1018 1276 l 1,16,-1
 543 733 l 1,17,-1
 1036 2 l 1,18,-1
 758 -10 l 1,19,-1
 379 582 l 1,20,-1
 324 522 l 1,21,-1
 324 0 l 1,0,-1
EndSplineSet
EndChar
StartChar: L
Encoding: 76 76 47
Width: 1024
Flags: W
LayerCount: 2
Back
Fore
SplineSet
940 193 m 1,0,-1
 940 0 l 1,1,-1
 125 0 l 1,2,-1
 125 1276 l 1,3,-1
 375 1276 l 1,4,5
 379 1272 379 1272 379 1266 c 0,6,7
 379 1258 379 1258 371.5 1246.5 c 128,-1,8
 364 1235 364 1235 360 1204 c 1,9,-1
 360 193 l 1,10,-1
 940 193 l 1,0,-1
EndSplineSet
EndChar
StartChar: M
Encoding: 77 77 48
Width: 1024
Flags: W
LayerCount: 2
Back
Fore
SplineSet
61 1276 m 1,0,-1
 303 1276 l 1,1,-1
 518 676 l 1,2,-1
 731 1278 l 1,3,-1
 975 1278 l 1,4,-1
 975 0 l 1,5,-1
 768 0 l 1,6,-1
 768 926 l 1,7,-1
 590 444 l 1,8,-1
 438 444 l 1,9,-1
 266 926 l 1,10,-1
 266 0 l 1,11,-1
 61 0 l 1,12,-1
 61 1276 l 1,0,-1
EndSplineSet
EndChar
StartChar: N
Encoding: 78 78 49
Width: 1024
Flags: W
LayerCount: 2
Back
Fore
SplineSet
958 0 m 1,0,-1
 705 0 l 1,1,-1
 272 965 l 1,2,-1
 272 0 l 1,3,-1
 66 0 l 1,4,-1
 66 1276 l 1,5,-1
 346 1276 l 1,6,-1
 752 362 l 1,7,-1
 752 1276 l 1,8,-1
 973 1276 l 1,9,10
 977 1272 977 1272 977 1266 c 0,11,12
 977 1258 977 1258 969.5 1246.5 c 128,-1,13
 962 1235 962 1235 958 1204 c 1,14,-1
 958 0 l 1,0,-1
EndSplineSet
EndChar
StartChar: O
Encoding: 79 79 50
Width: 1024
Flags: W
LayerCount: 2
Back
Fore
SplineSet
514 -37 m 0,0,1
 401 -37 401 -37 312 13.5 c 128,-1,2
 223 64 223 64 161.5 154.5 c 128,-1,3
 100 245 100 245 67.5 369.5 c 128,-1,4
 35 494 35 494 35 641 c 0,5,6
 35 789 35 789 68.5 912 c 128,-1,7
 102 1035 102 1035 164.5 1123 c 128,-1,8
 227 1211 227 1211 316 1260 c 128,-1,9
 405 1309 405 1309 516 1309 c 0,10,11
 612 1309 612 1309 698 1268 c 128,-1,12
 784 1227 784 1227 848.5 1144 c 128,-1,13
 913 1061 913 1061 951 935 c 128,-1,14
 989 809 989 809 989 639 c 0,15,16
 989 516 989 516 970 418 c 128,-1,17
 951 320 951 320 918 245 c 128,-1,18
 885 170 885 170 840 116.5 c 128,-1,19
 795 63 795 63 742 29 c 128,-1,20
 689 -5 689 -5 631 -21 c 128,-1,21
 573 -37 573 -37 514 -37 c 0,0,1
272 653 m 0,22,23
 272 536 272 536 290 446 c 128,-1,24
 308 356 308 356 340.5 295 c 128,-1,25
 373 234 373 234 417.5 203 c 128,-1,26
 462 172 462 172 516 172 c 0,27,28
 562 172 562 172 604.5 195 c 128,-1,29
 647 218 647 218 679 273 c 128,-1,30
 711 328 711 328 730.5 418.5 c 128,-1,31
 750 509 750 509 750 643 c 0,32,33
 750 771 750 771 729 859 c 128,-1,34
 708 947 708 947 675 1001.5 c 128,-1,35
 642 1056 642 1056 600.5 1080 c 128,-1,36
 559 1104 559 1104 518 1104 c 0,37,38
 469 1104 469 1104 424.5 1082 c 128,-1,39
 380 1060 380 1060 346 1008 c 128,-1,40
 312 956 312 956 292 869.5 c 128,-1,41
 272 783 272 783 272 653 c 0,22,23
EndSplineSet
EndChar
StartChar: P
Encoding: 80 80 51
Width: 1024
Flags: W
LayerCount: 2
Back
Fore
SplineSet
102 1276 m 1,0,-1
 535 1276 l 2,1,2
 649 1276 649 1276 730 1245.5 c 128,-1,3
 811 1215 811 1215 863.5 1162.5 c 128,-1,4
 916 1110 916 1110 940.5 1040.5 c 128,-1,5
 965 971 965 971 965 893 c 256,6,7
 965 815 965 815 941 746.5 c 128,-1,8
 917 678 917 678 866 627 c 128,-1,9
 815 576 815 576 735.5 546 c 128,-1,10
 656 516 656 516 545 516 c 2,11,-1
 336 516 l 1,12,-1
 336 0 l 1,13,-1
 102 0 l 1,14,-1
 102 1276 l 1,0,-1
336 1073 m 1,15,-1
 336 711 l 1,16,-1
 528 711 l 2,17,18
 581 711 581 711 619 724.5 c 128,-1,19
 657 738 657 738 681.5 761.5 c 128,-1,20
 706 785 706 785 717.5 817 c 128,-1,21
 729 849 729 849 729 887 c 0,22,23
 729 927 729 927 717 961 c 128,-1,24
 705 995 705 995 680.5 1020 c 128,-1,25
 656 1045 656 1045 618.5 1059 c 128,-1,26
 581 1073 581 1073 530 1073 c 2,27,-1
 336 1073 l 1,15,-1
EndSplineSet
EndChar
StartChar: Q
Encoding: 81 81 52
Width: 1024
Flags: W
LayerCount: 2
Back
Fore
SplineSet
401 -23 m 1,0,1
 314 0 314 0 245.5 58.5 c 128,-1,2
 177 117 177 117 130.5 204 c 128,-1,3
 84 291 84 291 59.5 402 c 128,-1,4
 35 513 35 513 35 641 c 0,5,6
 35 789 35 789 68.5 912 c 128,-1,7
 102 1035 102 1035 164.5 1123 c 128,-1,8
 227 1211 227 1211 316 1260 c 128,-1,9
 405 1309 405 1309 516 1309 c 0,10,11
 612 1309 612 1309 698 1268 c 128,-1,12
 784 1227 784 1227 848.5 1144 c 128,-1,13
 913 1061 913 1061 951 935 c 128,-1,14
 989 809 989 809 989 639 c 0,15,16
 989 482 989 482 959 366 c 128,-1,17
 929 250 929 250 878.5 170 c 128,-1,18
 828 90 828 90 761 43 c 128,-1,19
 694 -4 694 -4 621 -23 c 1,20,21
 624 -58 624 -58 645.5 -80 c 128,-1,22
 667 -102 667 -102 711 -100 c 2,23,-1
 913 -92 l 1,24,-1
 907 -299 l 1,25,-1
 743 -299 l 2,26,27
 570 -299 570 -299 488 -234.5 c 128,-1,28
 406 -170 406 -170 401 -23 c 1,0,1
272 653 m 0,29,30
 272 536 272 536 290 446 c 128,-1,31
 308 356 308 356 340.5 295 c 128,-1,32
 373 234 373 234 417.5 203 c 128,-1,33
 462 172 462 172 516 172 c 0,34,35
 562 172 562 172 604.5 195 c 128,-1,36
 647 218 647 218 679 273 c 128,-1,37
 711 328 711 328 730.5 418.5 c 128,-1,38
 750 509 750 509 750 643 c 0,39,40
 750 771 750 771 729 859 c 128,-1,41
 708 947 708 947 675 1001.5 c 128,-1,42
 642 1056 642 1056 600.5 1080 c 128,-1,43
 559 1104 559 1104 518 1104 c 0,44,45
 469 1104 469 1104 424.5 1082 c 128,-1,46
 380 1060 380 1060 346 1008 c 128,-1,47
 312 956 312 956 292 869.5 c 128,-1,48
 272 783 272 783 272 653 c 0,29,30
EndSplineSet
EndChar
StartChar: R
Encoding: 82 82 53
Width: 1024
Flags: W
LayerCount: 2
Back
Fore
SplineSet
96 1276 m 1,0,-1
 500 1276 l 2,1,2
 619 1276 619 1276 703.5 1248.5 c 128,-1,3
 788 1221 788 1221 842 1171 c 128,-1,4
 896 1121 896 1121 921 1051 c 128,-1,5
 946 981 946 981 946 895 c 0,6,7
 946 843 946 843 928.5 790 c 128,-1,8
 911 737 911 737 879.5 690.5 c 128,-1,9
 848 644 848 644 802.5 608.5 c 128,-1,10
 757 573 757 573 702 555 c 1,11,-1
 1001 0 l 1,12,-1
 743 0 l 1,13,-1
 479 528 l 1,14,-1
 330 528 l 1,15,-1
 330 0 l 1,16,-1
 96 0 l 1,17,-1
 96 1276 l 1,0,-1
330 1073 m 1,18,-1
 330 723 l 1,19,-1
 514 723 l 2,20,21
 565 723 565 723 602.5 735.5 c 128,-1,22
 640 748 640 748 664 770.5 c 128,-1,23
 688 793 688 793 699.5 825 c 128,-1,24
 711 857 711 857 711 895 c 0,25,26
 711 985 711 985 664 1029 c 128,-1,27
 617 1073 617 1073 514 1073 c 2,28,-1
 330 1073 l 1,18,-1
EndSplineSet
EndChar
StartChar: S
Encoding: 83 83 54
Width: 1024
Flags: W
LayerCount: 2
Back
Fore
SplineSet
780 946 m 1,0,1
 765 947 765 947 758.5 952 c 128,-1,2
 752 957 752 957 748.5 965 c 128,-1,3
 745 973 745 973 743 982.5 c 128,-1,4
 741 992 741 992 735 1001 c 0,5,6
 701 1052 701 1052 640 1086 c 128,-1,7
 579 1120 579 1120 496 1120 c 0,8,9
 460 1120 460 1120 430.5 1108.5 c 128,-1,10
 401 1097 401 1097 380.5 1077.5 c 128,-1,11
 360 1058 360 1058 349 1032.5 c 128,-1,12
 338 1007 338 1007 338 979 c 0,13,14
 338 946 338 946 349.5 916.5 c 128,-1,15
 361 887 361 887 391.5 858.5 c 128,-1,16
 422 830 422 830 474.5 801 c 128,-1,17
 527 772 527 772 608 739 c 0,18,19
 705 700 705 700 769.5 657.5 c 128,-1,20
 834 615 834 615 872.5 567.5 c 128,-1,21
 911 520 911 520 926.5 466.5 c 128,-1,22
 942 413 942 413 942 352 c 0,23,24
 942 280 942 280 917.5 210 c 128,-1,25
 893 140 893 140 838.5 85.5 c 128,-1,26
 784 31 784 31 698 -3 c 128,-1,27
 612 -37 612 -37 489 -37 c 0,28,29
 359 -37 359 -37 252 12.5 c 128,-1,30
 145 62 145 62 57 156 c 1,31,-1
 174 360 l 1,32,33
 186 357 186 357 192.5 351 c 128,-1,34
 199 345 199 345 204 337 c 128,-1,35
 209 329 209 329 214 319 c 128,-1,36
 219 309 219 309 227 297 c 0,37,38
 248 271 248 271 275.5 246 c 128,-1,39
 303 221 303 221 338 202 c 128,-1,40
 373 183 373 183 415 171.5 c 128,-1,41
 457 160 457 160 508 160 c 0,42,43
 602 160 602 160 655.5 203.5 c 128,-1,44
 709 247 709 247 709 340 c 0,45,46
 709 369 709 369 697 395.5 c 128,-1,47
 685 422 685 422 656.5 447.5 c 128,-1,48
 628 473 628 473 580 499.5 c 128,-1,49
 532 526 532 526 459 555 c 0,50,51
 363 594 363 594 295 637 c 128,-1,52
 227 680 227 680 183.5 729 c 128,-1,53
 140 778 140 778 120 833 c 128,-1,54
 100 888 100 888 100 950 c 0,55,56
 100 1025 100 1025 131 1090 c 128,-1,57
 162 1155 162 1155 217.5 1204 c 128,-1,58
 273 1253 273 1253 349.5 1281 c 128,-1,59
 426 1309 426 1309 518 1309 c 0,60,61
 634 1309 634 1309 736 1260 c 128,-1,62
 838 1211 838 1211 909 1118 c 1,63,-1
 780 946 l 1,0,1
EndSplineSet
EndChar
StartChar: T
Encoding: 84 84 55
Width: 1024
Flags: W
LayerCount: 2
Back
Fore
SplineSet
41 1276 m 1,0,-1
 981 1276 l 1,1,-1
 981 1077 l 1,2,-1
 621 1077 l 1,3,-1
 621 0 l 1,4,-1
 387 0 l 1,5,-1
 387 1077 l 1,6,-1
 41 1077 l 1,7,-1
 41 1276 l 1,0,-1
EndSplineSet
EndChar
StartChar: U
Encoding: 85 85 56
Width: 1024
Flags: W
LayerCount: 2
Back
Fore
SplineSet
76 1276 m 1,0,-1
 319 1276 l 2,1,2
 323 1273 323 1273 323.5 1271 c 128,-1,3
 324 1269 324 1269 324 1266 c 0,4,5
 324 1262 324 1262 321.5 1257.5 c 128,-1,6
 319 1253 319 1253 316 1246 c 128,-1,7
 313 1239 313 1239 309.5 1229 c 128,-1,8
 306 1219 306 1219 305 1204 c 2,9,-1
 305 449 l 2,10,11
 305 383 305 383 315 329.5 c 128,-1,12
 325 276 325 276 349 239 c 128,-1,13
 373 202 373 202 413 182 c 128,-1,14
 453 162 453 162 512 162 c 0,15,16
 573 162 573 162 613.5 182.5 c 128,-1,17
 654 203 654 203 678.5 241 c 128,-1,18
 703 279 703 279 713 333 c 128,-1,19
 723 387 723 387 723 455 c 2,20,-1
 723 1276 l 1,21,-1
 948 1276 l 1,22,-1
 948 457 l 2,23,24
 948 332 948 332 917 240.5 c 128,-1,25
 886 149 886 149 829 89 c 128,-1,26
 772 29 772 29 691 0 c 128,-1,27
 610 -29 610 -29 510 -29 c 0,28,29
 403 -29 403 -29 322 4 c 128,-1,30
 241 37 241 37 186 99 c 128,-1,31
 131 161 131 161 103.5 250 c 128,-1,32
 76 339 76 339 76 451 c 2,33,-1
 76 1276 l 1,0,-1
EndSplineSet
EndChar
StartChar: V
Encoding: 86 86 57
Width: 1024
Flags: W
LayerCount: 2
Back
Fore
SplineSet
20 1276 m 1,0,-1
 262 1276 l 1,1,-1
 530 371 l 1,2,-1
 784 1276 l 1,3,-1
 1020 1276 l 1,4,-1
 610 0 l 1,5,-1
 434 0 l 1,6,-1
 20 1276 l 1,0,-1
EndSplineSet
EndChar
StartChar: W
Encoding: 87 87 58
Width: 1024
Flags: W
LayerCount: 2
Back
Fore
SplineSet
12 1276 m 1,0,-1
 236 1276 l 1,1,-1
 309 434 l 1,2,-1
 459 1171 l 1,3,-1
 606 1171 l 1,4,-1
 756 440 l 1,5,-1
 809 1276 l 1,6,-1
 1022 1276 l 1,7,-1
 870 0 l 1,8,-1
 690 0 l 1,9,-1
 522 776 l 1,10,-1
 352 0 l 1,11,-1
 168 0 l 1,12,-1
 12 1276 l 1,0,-1
EndSplineSet
EndChar
StartChar: X
Encoding: 88 88 59
Width: 1024
Flags: W
LayerCount: 2
Back
Fore
SplineSet
733 1276 m 1,0,-1
 971 1276 l 1,1,-1
 653 653 l 1,2,-1
 1012 0 l 1,3,-1
 754 0 l 1,4,-1
 520 438 l 1,5,-1
 293 0 l 1,6,-1
 43 0 l 1,7,-1
 387 651 l 1,8,-1
 47 1276 l 1,9,-1
 297 1276 l 1,10,-1
 518 858 l 1,11,-1
 733 1276 l 1,0,-1
EndSplineSet
EndChar
StartChar: Y
Encoding: 89 89 60
Width: 1024
Flags: W
LayerCount: 2
Back
Fore
SplineSet
18 1276 m 1,0,-1
 274 1276 l 1,1,-1
 537 760 l 1,2,-1
 770 1276 l 1,3,-1
 1018 1276 l 1,4,-1
 653 502 l 1,5,-1
 653 0 l 1,6,-1
 412 0 l 1,7,-1
 412 504 l 1,8,-1
 18 1276 l 1,0,-1
EndSplineSet
EndChar
StartChar: Z
Encoding: 90 90 61
Width: 1024
Flags: W
LayerCount: 2
Back
Fore
SplineSet
106 1276 m 1,0,-1
 944 1276 l 1,1,-1
 944 1137 l 1,2,-1
 377 197 l 1,3,-1
 868 197 l 2,4,5
 890 200 890 200 903.5 205 c 128,-1,6
 917 210 917 210 927.5 215 c 128,-1,7
 938 220 938 220 948.5 223.5 c 128,-1,8
 959 227 959 227 975 227 c 1,9,-1
 975 0 l 1,10,-1
 84 0 l 1,11,-1
 84 139 l 1,12,-1
 662 1077 l 1,13,-1
 106 1077 l 1,14,-1
 106 1276 l 1,0,-1
EndSplineSet
EndChar
StartChar: bracketleft
Encoding: 91 91 62
Width: 1024
Flags: W
LayerCount: 2
Back
Fore
SplineSet
242 1370 m 1,0,-1
 877 1370 l 1,1,-1
 877 1180 l 1,2,-1
 457 1180 l 1,3,-1
 457 0 l 1,4,-1
 877 0 l 1,5,-1
 877 -184 l 1,6,-1
 242 -184 l 1,7,-1
 242 1370 l 1,0,-1
EndSplineSet
EndChar
StartChar: backslash
Encoding: 92 92 63
Width: 1024
Flags: W
LayerCount: 2
Back
Fore
SplineSet
922 -10 m 1,0,-1
 743 -96 l 1,1,-1
 104 1280 l 1,2,-1
 283 1374 l 1,3,-1
 922 -10 l 1,0,-1
EndSplineSet
EndChar
StartChar: bracketright
Encoding: 93 93 64
Width: 1024
Flags: W
LayerCount: 2
Back
Fore
SplineSet
780 1370 m 1,0,-1
 780 -184 l 1,1,-1
 147 -184 l 1,2,-1
 147 0 l 1,3,-1
 565 0 l 1,4,-1
 565 1180 l 1,5,-1
 150 1180 l 1,6,-1
 150 1370 l 1,7,-1
 780 1370 l 1,0,-1
EndSplineSet
EndChar
StartChar: asciicircum
Encoding: 94 94 65
Width: 1024
Flags: W
LayerCount: 2
Back
Fore
SplineSet
158 760 m 1,0,-1
 489 1280 l 1,1,-1
 563 1280 l 1,2,-1
 856 760 l 1,3,-1
 688 680 l 1,4,-1
 518 1034 l 1,5,-1
 326 680 l 1,6,-1
 158 760 l 1,0,-1
EndSplineSet
EndChar
StartChar: underscore
Encoding: 95 95 66
Width: 1024
Flags: W
LayerCount: 2
Back
Fore
SplineSet
59 -16 m 1,0,-1
 965 -16 l 1,1,-1
 965 -207 l 1,2,-1
 59 -207 l 1,3,-1
 59 -16 l 1,0,-1
EndSplineSet
EndChar
StartChar: grave
Encoding: 96 96 298
Width: 1024
Flags: W
LayerCount: 2
Back
Fore
SplineSet
244 1333 m 1,0,-1
 424 1417 l 1,1,-1
 489 1251 l 2,2,3
 511 1199 511 1199 536.5 1168.5 c 128,-1,4
 562 1138 562 1138 590 1110 c 0,5,6
 621 1079 621 1079 641.5 1051.5 c 128,-1,7
 662 1024 662 1024 662 983 c 0,8,9
 661 954 661 954 649 933.5 c 128,-1,10
 637 913 637 913 619 900.5 c 128,-1,11
 601 888 601 888 581 882.5 c 128,-1,12
 561 877 561 877 543 877 c 0,13,14
 519 877 519 877 494 883 c 128,-1,15
 469 889 469 889 440 917.5 c 128,-1,16
 411 946 411 946 377.5 1006 c 128,-1,17
 344 1066 344 1066 303 1174 c 2,18,-1
 244 1333 l 1,0,-1
EndSplineSet
EndChar
StartChar: a
Encoding: 97 97 67
Width: 1024
Flags: W
LayerCount: 2
Back
Fore
SplineSet
154 821 m 1,0,1
 302 977 302 977 516 977 c 0,2,3
 607 977 607 977 679 954 c 128,-1,4
 751 931 751 931 801 882.5 c 128,-1,5
 851 834 851 834 878 759.5 c 128,-1,6
 905 685 905 685 905 582 c 2,7,-1
 905 0 l 1,8,-1
 686 0 l 1,9,-1
 686 86 l 1,10,11
 632 35 632 35 557.5 5 c 128,-1,12
 483 -25 483 -25 408 -25 c 0,13,14
 324 -25 324 -25 262.5 -2.5 c 128,-1,15
 201 20 201 20 161 58 c 128,-1,16
 121 96 121 96 101.5 147 c 128,-1,17
 82 198 82 198 82 254 c 0,18,19
 82 328 82 328 113.5 389.5 c 128,-1,20
 145 451 145 451 206 495.5 c 128,-1,21
 267 540 267 540 356.5 565 c 128,-1,22
 446 590 446 590 563 590 c 2,23,-1
 684 590 l 1,24,25
 682 699 682 699 640 748 c 128,-1,26
 598 797 598 797 508 797 c 0,27,28
 391 797 391 797 270 670 c 1,29,-1
 154 821 l 1,0,1
606 418 m 2,30,31
 516 420 516 420 458 407.5 c 128,-1,32
 400 395 400 395 367 373 c 128,-1,33
 334 351 334 351 321.5 322.5 c 128,-1,34
 309 294 309 294 309 266 c 0,35,36
 309 242 309 242 320 221 c 128,-1,37
 331 200 331 200 350 184.5 c 128,-1,38
 369 169 369 169 394.5 159.5 c 128,-1,39
 420 150 420 150 449 150 c 0,40,41
 496 150 496 150 533.5 166.5 c 128,-1,42
 571 183 571 183 599 206 c 128,-1,43
 627 229 627 229 646 254 c 128,-1,44
 665 279 665 279 674 297 c 0,45,46
 682 312 682 312 686 341.5 c 128,-1,47
 690 371 690 371 690 416 c 1,48,-1
 606 418 l 2,30,31
EndSplineSet
EndChar
StartChar: b
Encoding: 98 98 68
Width: 1024
Flags: W
LayerCount: 2
Back
Fore
SplineSet
102 1382 m 1,0,-1
 360 1382 l 1,1,2
 360 1370 360 1370 356 1363 c 128,-1,3
 352 1356 352 1356 347.5 1350.5 c 128,-1,4
 343 1345 343 1345 338 1339 c 128,-1,5
 333 1333 333 1333 332 1323 c 2,6,-1
 332 874 l 1,7,8
 377 924 377 924 435 950.5 c 128,-1,9
 493 977 493 977 553 977 c 0,10,11
 634 977 634 977 707 947 c 128,-1,12
 780 917 780 917 835.5 857 c 128,-1,13
 891 797 891 797 923.5 707.5 c 128,-1,14
 956 618 956 618 956 498 c 0,15,16
 956 366 956 366 920.5 266.5 c 128,-1,17
 885 167 885 167 827 101 c 128,-1,18
 769 35 769 35 695 2 c 128,-1,19
 621 -31 621 -31 545 -31 c 0,20,21
 473 -31 473 -31 407 0.5 c 128,-1,22
 341 32 341 32 293 92 c 1,23,-1
 262 0 l 1,24,-1
 102 0 l 1,25,-1
 102 1382 l 1,0,-1
330 489 m 0,26,27
 330 400 330 400 343 337.5 c 128,-1,28
 356 275 356 275 380 235.5 c 128,-1,29
 404 196 404 196 438.5 178 c 128,-1,30
 473 160 473 160 516 160 c 0,31,32
 550 160 550 160 587 176 c 128,-1,33
 624 192 624 192 655 228 c 128,-1,34
 686 264 686 264 705.5 322.5 c 128,-1,35
 725 381 725 381 725 467 c 0,36,37
 725 558 725 558 705.5 623.5 c 128,-1,38
 686 689 686 689 649 729 c 0,39,40
 621 760 621 760 589.5 775.5 c 128,-1,41
 558 791 558 791 510 791 c 0,42,43
 454 791 454 791 419 766.5 c 128,-1,44
 384 742 384 742 364.5 700 c 128,-1,45
 345 658 345 658 337.5 603.5 c 128,-1,46
 330 549 330 549 330 489 c 0,26,27
EndSplineSet
EndChar
StartChar: c
Encoding: 99 99 69
Width: 1024
Flags: W
LayerCount: 2
Back
Fore
SplineSet
799 621 m 1,0,1
 790 623 790 623 786 628.5 c 128,-1,2
 782 634 782 634 780 641 c 128,-1,3
 778 648 778 648 776.5 656.5 c 128,-1,4
 775 665 775 665 772 674 c 0,5,6
 744 722 744 722 691.5 754 c 128,-1,7
 639 786 639 786 563 786 c 0,8,9
 511 786 511 786 465 763.5 c 128,-1,10
 419 741 419 741 385 700.5 c 128,-1,11
 351 660 351 660 331 604 c 128,-1,12
 311 548 311 548 311 481 c 0,13,14
 311 413 311 413 329.5 355.5 c 128,-1,15
 348 298 348 298 381.5 255 c 128,-1,16
 415 212 415 212 461.5 188 c 128,-1,17
 508 164 508 164 565 164 c 0,18,19
 593 164 593 164 623.5 170.5 c 128,-1,20
 654 177 654 177 685 192 c 128,-1,21
 716 207 716 207 746 231.5 c 128,-1,22
 776 256 776 256 805 291 c 1,23,-1
 938 137 l 1,24,25
 857 46 857 46 760 6.5 c 128,-1,26
 663 -33 663 -33 555 -33 c 0,27,28
 450 -33 450 -33 362.5 5 c 128,-1,29
 275 43 275 43 212 110 c 128,-1,30
 149 177 149 177 113.5 269 c 128,-1,31
 78 361 78 361 78 469 c 0,32,33
 78 576 78 576 113 668.5 c 128,-1,34
 148 761 148 761 212 829.5 c 128,-1,35
 276 898 276 898 365.5 937.5 c 128,-1,36
 455 977 455 977 563 977 c 0,37,38
 623 977 623 977 679 965 c 128,-1,39
 735 953 735 953 784.5 930 c 128,-1,40
 834 907 834 907 875 872.5 c 128,-1,41
 916 838 916 838 946 793 c 1,42,-1
 799 621 l 1,0,1
EndSplineSet
EndChar
StartChar: d
Encoding: 100 100 70
Width: 1024
Flags: W
LayerCount: 2
Back
Fore
SplineSet
918 115 m 2,0,1
 918 90 918 90 923 60.5 c 128,-1,2
 928 31 928 31 936 0 c 1,3,-1
 719 0 l 1,4,5
 706 9 706 9 702 27 c 128,-1,6
 698 45 698 45 698 59 c 2,7,-1
 698 88 l 1,8,9
 682 59 682 59 655.5 37 c 128,-1,10
 629 15 629 15 598 0 c 128,-1,11
 567 -15 567 -15 533.5 -23 c 128,-1,12
 500 -31 500 -31 469 -31 c 0,13,14
 385 -31 385 -31 311 -0.5 c 128,-1,15
 237 30 237 30 181.5 91.5 c 128,-1,16
 126 153 126 153 93.5 245.5 c 128,-1,17
 61 338 61 338 61 463 c 0,18,19
 61 584 61 584 94 679.5 c 128,-1,20
 127 775 127 775 183 841 c 128,-1,21
 239 907 239 907 312.5 942 c 128,-1,22
 386 977 386 977 467 977 c 0,23,24
 495 977 495 977 525 970 c 128,-1,25
 555 963 555 963 584.5 950.5 c 128,-1,26
 614 938 614 938 640.5 920 c 128,-1,27
 667 902 667 902 688 881 c 1,28,-1
 688 1382 l 1,29,-1
 946 1382 l 1,30,31
 946 1371 946 1371 942 1364 c 128,-1,32
 938 1357 938 1357 933.5 1351 c 128,-1,33
 929 1345 929 1345 924 1338.5 c 128,-1,34
 919 1332 919 1332 918 1323 c 2,35,-1
 918 115 l 2,0,1
690 489 m 0,36,37
 690 549 690 549 682 603.5 c 128,-1,38
 674 658 674 658 654 700 c 128,-1,39
 634 742 634 742 598.5 766.5 c 128,-1,40
 563 791 563 791 508 791 c 0,41,42
 460 791 460 791 428.5 775.5 c 128,-1,43
 397 760 397 760 369 729 c 0,44,45
 293 648 293 648 293 467 c 0,46,47
 293 381 293 381 312.5 322.5 c 128,-1,48
 332 264 332 264 363 228 c 128,-1,49
 394 192 394 192 430.5 176 c 128,-1,50
 467 160 467 160 502 160 c 0,51,52
 545 160 545 160 579.5 178 c 128,-1,53
 614 196 614 196 638.5 235.5 c 128,-1,54
 663 275 663 275 676.5 337.5 c 128,-1,55
 690 400 690 400 690 489 c 0,36,37
EndSplineSet
EndChar
StartChar: e
Encoding: 101 101 71
Width: 1024
Flags: W
LayerCount: 2
Back
Fore
SplineSet
528 977 m 0,0,1
 613 977 613 977 687 947 c 128,-1,2
 761 917 761 917 816.5 858.5 c 128,-1,3
 872 800 872 800 904 712.5 c 128,-1,4
 936 625 936 625 936 510 c 0,5,6
 936 485 936 485 934 461 c 128,-1,7
 932 437 932 437 930 414 c 1,8,-1
 303 414 l 1,9,10
 311 345 311 345 335 295.5 c 128,-1,11
 359 246 359 246 393 213.5 c 128,-1,12
 427 181 427 181 468.5 165.5 c 128,-1,13
 510 150 510 150 553 150 c 0,14,15
 618 150 618 150 680.5 179.5 c 128,-1,16
 743 209 743 209 788 266 c 1,17,-1
 915 139 l 1,18,19
 770 -33 770 -33 553 -33 c 0,20,21
 450 -33 450 -33 362.5 1 c 128,-1,22
 275 35 275 35 211.5 99 c 128,-1,23
 148 163 148 163 112 255.5 c 128,-1,24
 76 348 76 348 76 465 c 0,25,26
 76 584 76 584 110 679 c 128,-1,27
 144 774 144 774 204.5 840 c 128,-1,28
 265 906 265 906 347.5 941.5 c 128,-1,29
 430 977 430 977 528 977 c 0,0,1
707 582 m 1,30,31
 707 627 707 627 693.5 667.5 c 128,-1,32
 680 708 680 708 655.5 738.5 c 128,-1,33
 631 769 631 769 595.5 787 c 128,-1,34
 560 805 560 805 516 805 c 0,35,36
 474 805 474 805 438.5 789 c 128,-1,37
 403 773 403 773 376.5 744 c 128,-1,38
 350 715 350 715 333.5 674 c 128,-1,39
 317 633 317 633 311 582 c 1,40,-1
 707 582 l 1,30,31
EndSplineSet
EndChar
StartChar: f
Encoding: 102 102 72
Width: 1024
Flags: W
LayerCount: 2
Back
Fore
SplineSet
737 1399 m 0,0,1
 928 1399 928 1399 1055 1243 c 1,2,-1
 961 1059 l 1,3,4
 945 1059 945 1059 939.5 1069 c 128,-1,5
 934 1079 934 1079 928 1102 c 1,6,7
 916 1120 916 1120 897.5 1140 c 128,-1,8
 879 1160 879 1160 854.5 1177 c 128,-1,9
 830 1194 830 1194 799.5 1205.5 c 128,-1,10
 769 1217 769 1217 735 1217 c 0,11,12
 649 1217 649 1217 607 1153 c 128,-1,13
 565 1089 565 1089 565 954 c 2,14,-1
 565 905 l 1,15,-1
 858 905 l 1,16,-1
 858 723 l 1,17,-1
 565 723 l 1,18,-1
 565 0 l 1,19,-1
 342 0 l 1,20,-1
 342 723 l 1,21,-1
 135 723 l 1,22,-1
 135 905 l 1,23,-1
 342 905 l 1,24,-1
 342 973 l 2,25,26
 342 1079 342 1079 373.5 1159 c 128,-1,27
 405 1239 405 1239 459 1292.5 c 128,-1,28
 513 1346 513 1346 584.5 1372.5 c 128,-1,29
 656 1399 656 1399 737 1399 c 0,0,1
EndSplineSet
EndChar
StartChar: g
Encoding: 103 103 73
Width: 1024
Flags: W
LayerCount: 2
Back
Fore
SplineSet
475 809 m 0,0,1
 444 809 444 809 417.5 798 c 128,-1,2
 391 787 391 787 371 766.5 c 128,-1,3
 351 746 351 746 339.5 716.5 c 128,-1,4
 328 687 328 687 328 649 c 0,5,6
 328 617 328 617 338.5 589 c 128,-1,7
 349 561 349 561 368 540 c 128,-1,8
 387 519 387 519 414 506.5 c 128,-1,9
 441 494 441 494 475 494 c 0,10,11
 510 494 510 494 538 506.5 c 128,-1,12
 566 519 566 519 585.5 540 c 128,-1,13
 605 561 605 561 615 589 c 128,-1,14
 625 617 625 617 625 649 c 256,15,16
 625 681 625 681 615 710 c 128,-1,17
 605 739 605 739 585.5 761 c 128,-1,18
 566 783 566 783 538 796 c 128,-1,19
 510 809 510 809 475 809 c 0,0,1
479 985 m 0,20,21
 604 985 604 985 692 918 c 1,22,23
 737 948 737 948 789 963.5 c 128,-1,24
 841 979 841 979 903 979 c 2,25,-1
 969 979 l 1,26,-1
 999 784 l 1,27,28
 980 787 980 787 961.5 789 c 128,-1,29
 943 791 943 791 928.5 793 c 128,-1,30
 914 795 914 795 904 796 c 128,-1,31
 894 797 894 797 893 797 c 0,32,33
 850 797 850 797 805 780 c 1,34,35
 819 748 819 748 828.5 714.5 c 128,-1,36
 838 681 838 681 838 647 c 0,37,38
 838 579 838 579 809.5 519 c 128,-1,39
 781 459 781 459 732 414 c 128,-1,40
 683 369 683 369 617.5 343 c 128,-1,41
 552 317 552 317 477 317 c 0,42,43
 457 317 457 317 436 319 c 128,-1,44
 415 321 415 321 393 328 c 1,45,46
 365 309 365 309 348.5 291 c 128,-1,47
 332 273 332 273 332 250 c 0,48,49
 332 222 332 222 361 212.5 c 128,-1,50
 390 203 390 203 436 203 c 0,51,52
 471 203 471 203 509 206 c 128,-1,53
 547 209 547 209 578 209 c 0,54,55
 679 209 679 209 749.5 190 c 128,-1,56
 820 171 820 171 863.5 136.5 c 128,-1,57
 907 102 907 102 926.5 55 c 128,-1,58
 946 8 946 8 946 -49 c 0,59,60
 946 -108 946 -108 918.5 -162.5 c 128,-1,61
 891 -217 891 -217 836 -260 c 128,-1,62
 781 -303 781 -303 698 -328.5 c 128,-1,63
 615 -354 615 -354 504 -354 c 0,64,65
 388 -354 388 -354 305 -334.5 c 128,-1,66
 222 -315 222 -315 169 -281.5 c 128,-1,67
 116 -248 116 -248 91 -203.5 c 128,-1,68
 66 -159 66 -159 66 -109 c 0,69,70
 66 -84 66 -84 75 -57.5 c 128,-1,71
 84 -31 84 -31 100.5 -6 c 128,-1,72
 117 19 117 19 140 41 c 128,-1,73
 163 63 163 63 190 80 c 1,74,75
 155 105 155 105 142 139.5 c 128,-1,76
 129 174 129 174 129 209 c 0,77,78
 129 257 129 257 162 306 c 128,-1,79
 195 355 195 355 246 397 c 1,80,81
 215 416 215 416 191 444 c 128,-1,82
 167 472 167 472 150 504 c 128,-1,83
 133 536 133 536 124 571 c 128,-1,84
 115 606 115 606 115 641 c 0,85,86
 115 713 115 713 145.5 776 c 128,-1,87
 176 839 176 839 227 885.5 c 128,-1,88
 278 932 278 932 343.5 958.5 c 128,-1,89
 409 985 409 985 479 985 c 0,20,21
616 20 m 0,90,91
 542 20 542 20 479 21 c 128,-1,92
 416 22 416 22 348 27 c 1,93,94
 311 5 311 5 293.5 -24.5 c 128,-1,95
 276 -54 276 -54 276 -80 c 0,96,97
 276 -109 276 -109 294.5 -128.5 c 128,-1,98
 313 -148 313 -148 345 -160.5 c 128,-1,99
 377 -173 377 -173 419 -178.5 c 128,-1,100
 461 -184 461 -184 508 -184 c 0,101,102
 557 -184 557 -184 598 -175.5 c 128,-1,103
 639 -167 639 -167 669 -151.5 c 128,-1,104
 699 -136 699 -136 716 -114.5 c 128,-1,105
 733 -93 733 -93 735 -66 c 1,106,107
 732 -28 732 -28 705 -4 c 128,-1,108
 678 20 678 20 616 20 c 0,90,91
EndSplineSet
EndChar
StartChar: h
Encoding: 104 104 74
Width: 1024
Flags: W
LayerCount: 2
Back
Fore
SplineSet
123 0 m 1,0,-1
 123 1382 l 1,1,-1
 383 1382 l 1,2,3
 383 1370 383 1370 379 1363 c 128,-1,4
 375 1356 375 1356 370 1350.5 c 128,-1,5
 365 1345 365 1345 360 1339 c 128,-1,6
 355 1333 355 1333 354 1323 c 2,7,-1
 354 858 l 1,8,9
 404 912 404 912 470 944.5 c 128,-1,10
 536 977 536 977 604 977 c 0,11,12
 677 977 677 977 736 955 c 128,-1,13
 795 933 795 933 836 885.5 c 128,-1,14
 877 838 877 838 899.5 762.5 c 128,-1,15
 922 687 922 687 922 580 c 2,16,-1
 922 0 l 1,17,-1
 696 0 l 1,18,-1
 696 578 l 2,19,20
 696 633 696 633 686 673 c 128,-1,21
 676 713 676 713 658 738.5 c 128,-1,22
 640 764 640 764 615 776 c 128,-1,23
 590 788 590 788 559 788 c 0,24,25
 516 788 516 788 478.5 771 c 128,-1,26
 441 754 441 754 413.5 723 c 128,-1,27
 386 692 386 692 370 648.5 c 128,-1,28
 354 605 354 605 354 553 c 2,29,-1
 354 0 l 1,30,-1
 123 0 l 1,0,-1
EndSplineSet
EndChar
StartChar: i
Encoding: 105 105 75
Width: 1024
Flags: W
LayerCount: 2
Back
Fore
SplineSet
545 1384 m 0,0,1
 574 1384 574 1384 600 1373.5 c 128,-1,2
 626 1363 626 1363 645.5 1345.5 c 128,-1,3
 665 1328 665 1328 676.5 1304 c 128,-1,4
 688 1280 688 1280 688 1253 c 256,5,6
 688 1226 688 1226 676.5 1202 c 128,-1,7
 665 1178 665 1178 645.5 1160 c 128,-1,8
 626 1142 626 1142 600 1132 c 128,-1,9
 574 1122 574 1122 545 1122 c 256,10,11
 516 1122 516 1122 489.5 1132 c 128,-1,12
 463 1142 463 1142 443.5 1160 c 128,-1,13
 424 1178 424 1178 412.5 1202 c 128,-1,14
 401 1226 401 1226 401 1253 c 0,15,16
 401 1277 401 1277 410 1300.5 c 128,-1,17
 419 1324 419 1324 437 1342.5 c 128,-1,18
 455 1361 455 1361 482 1372.5 c 128,-1,19
 509 1384 509 1384 545 1384 c 0,0,1
207 956 m 1,20,-1
 655 956 l 1,21,-1
 655 178 l 1,22,-1
 866 178 l 1,23,-1
 866 0 l 1,24,-1
 197 0 l 1,25,-1
 197 178 l 1,26,-1
 428 178 l 1,27,-1
 428 778 l 1,28,-1
 207 778 l 1,29,-1
 207 956 l 1,20,-1
EndSplineSet
EndChar
StartChar: j
Encoding: 106 106 76
Width: 1024
Flags: W
LayerCount: 2
Back
Fore
SplineSet
203 956 m 1,0,-1
 766 956 l 1,1,-1
 766 47 l 2,2,3
 766 -61 766 -61 735.5 -138.5 c 128,-1,4
 705 -216 705 -216 652.5 -265.5 c 128,-1,5
 600 -315 600 -315 529 -338.5 c 128,-1,6
 458 -362 458 -362 377 -362 c 0,7,8
 280 -362 280 -362 202.5 -321.5 c 128,-1,9
 125 -281 125 -281 59 -203 c 1,10,-1
 201 -16 l 1,11,12
 211 -20 211 -20 214.5 -25 c 128,-1,13
 218 -30 218 -30 220.5 -38 c 128,-1,14
 223 -46 223 -46 226.5 -56.5 c 128,-1,15
 230 -67 230 -67 240 -82 c 0,16,17
 250 -96 250 -96 265 -111 c 128,-1,18
 280 -126 280 -126 298.5 -139 c 128,-1,19
 317 -152 317 -152 338.5 -160 c 128,-1,20
 360 -168 360 -168 383 -168 c 0,21,22
 414 -168 414 -168 442 -156.5 c 128,-1,23
 470 -145 470 -145 490.5 -120 c 128,-1,24
 511 -95 511 -95 523 -56 c 128,-1,25
 535 -17 535 -17 535 39 c 2,26,-1
 535 770 l 1,27,-1
 203 770 l 1,28,-1
 203 956 l 1,0,-1
651 1393 m 0,29,30
 680 1393 680 1393 706.5 1382.5 c 128,-1,31
 733 1372 733 1372 753 1353.5 c 128,-1,32
 773 1335 773 1335 785 1310 c 128,-1,33
 797 1285 797 1285 797 1257 c 0,34,35
 797 1230 797 1230 785 1205.5 c 128,-1,36
 773 1181 773 1181 753 1162.5 c 128,-1,37
 733 1144 733 1144 706.5 1133 c 128,-1,38
 680 1122 680 1122 651 1122 c 256,39,40
 622 1122 622 1122 595.5 1133 c 128,-1,41
 569 1144 569 1144 549 1162.5 c 128,-1,42
 529 1181 529 1181 517.5 1205.5 c 128,-1,43
 506 1230 506 1230 506 1257 c 0,44,45
 506 1282 506 1282 515.5 1306.5 c 128,-1,46
 525 1331 525 1331 544 1350.5 c 128,-1,47
 563 1370 563 1370 589.5 1381.5 c 128,-1,48
 616 1393 616 1393 651 1393 c 0,29,30
EndSplineSet
EndChar
StartChar: k
Encoding: 107 107 77
Width: 1024
Flags: W
LayerCount: 2
Back
Fore
SplineSet
123 1382 m 1,0,-1
 383 1382 l 1,1,2
 383 1370 383 1370 379 1363 c 128,-1,3
 375 1356 375 1356 370 1351 c 128,-1,4
 365 1346 365 1346 360 1340 c 128,-1,5
 355 1334 355 1334 354 1325 c 2,6,-1
 354 604 l 1,7,-1
 721 967 l 1,8,9
 794 950 794 950 838 950 c 2,10,-1
 987 950 l 1,11,-1
 596 573 l 1,12,13
 647 512 647 512 703 436.5 c 128,-1,14
 759 361 759 361 815.5 284 c 128,-1,15
 872 207 872 207 926.5 133.5 c 128,-1,16
 981 60 981 60 1028 2 c 1,17,-1
 748 -8 l 1,18,-1
 432 432 l 1,19,-1
 354 358 l 1,20,-1
 354 0 l 1,21,-1
 123 0 l 1,22,-1
 123 1382 l 1,0,-1
EndSplineSet
EndChar
StartChar: l
Encoding: 108 108 78
Width: 1024
Flags: W
LayerCount: 2
Back
Fore
SplineSet
150 1382 m 1,0,-1
 629 1382 l 1,1,-1
 629 178 l 1,2,-1
 891 178 l 1,3,-1
 891 0 l 1,4,-1
 137 0 l 1,5,-1
 137 178 l 1,6,-1
 399 178 l 1,7,-1
 399 1204 l 1,8,-1
 150 1204 l 1,9,-1
 150 1382 l 1,0,-1
EndSplineSet
EndChar
StartChar: m
Encoding: 109 109 301
Width: 1024
Flags: W
LayerCount: 2
Back
Fore
SplineSet
66 0 m 1,0,-1
 66 967 l 1,1,-1
 262 967 l 1,2,-1
 262 907 l 1,3,4
 307 955 307 955 352.5 976 c 128,-1,5
 398 997 398 997 438 997 c 0,6,7
 457 997 457 997 478.5 991.5 c 128,-1,8
 500 986 500 986 520.5 972.5 c 128,-1,9
 541 959 541 959 560 937 c 128,-1,10
 579 915 579 915 594 883 c 1,11,12
 629 939 629 939 682 968 c 128,-1,13
 735 997 735 997 788 997 c 0,14,15
 843 997 843 997 879.5 978.5 c 128,-1,16
 916 960 916 960 938 923.5 c 128,-1,17
 960 887 960 887 969.5 832.5 c 128,-1,18
 979 778 979 778 979 707 c 2,19,-1
 979 0 l 1,20,-1
 766 0 l 1,21,-1
 766 668 l 2,22,23
 766 748 766 748 752.5 782.5 c 128,-1,24
 739 817 739 817 705 817 c 0,25,26
 627 817 627 817 627 629 c 2,27,-1
 627 0 l 1,28,-1
 416 0 l 1,29,-1
 416 657 l 2,30,31
 416 708 416 708 410.5 739.5 c 128,-1,32
 405 771 405 771 396.5 788 c 128,-1,33
 388 805 388 805 377.5 811 c 128,-1,34
 367 817 367 817 356 817 c 0,35,36
 337 817 337 817 321.5 808.5 c 128,-1,37
 306 800 306 800 295 779.5 c 128,-1,38
 284 759 284 759 278 724 c 128,-1,39
 272 689 272 689 272 635 c 2,40,-1
 272 0 l 1,41,-1
 66 0 l 1,0,-1
EndSplineSet
EndChar
StartChar: n
Encoding: 110 110 79
Width: 1024
Flags: W
LayerCount: 2
Back
Fore
SplineSet
123 0 m 1,0,-1
 123 956 l 1,1,-1
 354 956 l 1,2,-1
 354 858 l 1,3,4
 404 912 404 912 470 944.5 c 128,-1,5
 536 977 536 977 604 977 c 0,6,7
 676 977 676 977 735 955 c 128,-1,8
 794 933 794 933 835.5 885.5 c 128,-1,9
 877 838 877 838 899.5 762.5 c 128,-1,10
 922 687 922 687 922 580 c 2,11,-1
 922 0 l 1,12,-1
 696 0 l 1,13,-1
 696 578 l 2,14,15
 696 633 696 633 686 673 c 128,-1,16
 676 713 676 713 658 738.5 c 128,-1,17
 640 764 640 764 615 776 c 128,-1,18
 590 788 590 788 559 788 c 0,19,20
 516 788 516 788 478.5 771 c 128,-1,21
 441 754 441 754 413.5 723 c 128,-1,22
 386 692 386 692 370 648.5 c 128,-1,23
 354 605 354 605 354 553 c 2,24,-1
 354 0 l 1,25,-1
 123 0 l 1,0,-1
EndSplineSet
EndChar
StartChar: o
Encoding: 111 111 80
Width: 1024
Flags: W
LayerCount: 2
Back
Fore
SplineSet
520 977 m 0,0,1
 613 977 613 977 694 943 c 128,-1,2
 775 909 775 909 835.5 844.5 c 128,-1,3
 896 780 896 780 930.5 686 c 128,-1,4
 965 592 965 592 965 473 c 256,5,6
 965 354 965 354 931 260 c 128,-1,7
 897 166 897 166 837.5 101 c 128,-1,8
 778 36 778 36 696 1.5 c 128,-1,9
 614 -33 614 -33 518 -33 c 256,10,11
 422 -33 422 -33 338.5 4 c 128,-1,12
 255 41 255 41 192.5 108 c 128,-1,13
 130 175 130 175 94.5 267 c 128,-1,14
 59 359 59 359 59 469 c 0,15,16
 59 578 59 578 95.5 671 c 128,-1,17
 132 764 132 764 195 832 c 128,-1,18
 258 900 258 900 341.5 938.5 c 128,-1,19
 425 977 425 977 520 977 c 0,0,1
737 469 m 0,20,21
 737 547 737 547 720.5 607 c 128,-1,22
 704 667 704 667 674 708.5 c 128,-1,23
 644 750 644 750 603 771.5 c 128,-1,24
 562 793 562 793 514 793 c 0,25,26
 465 793 465 793 424.5 771.5 c 128,-1,27
 384 750 384 750 355.5 709 c 128,-1,28
 327 668 327 668 311 609.5 c 128,-1,29
 295 551 295 551 295 477 c 256,30,31
 295 403 295 403 310.5 343.5 c 128,-1,32
 326 284 326 284 355 242 c 128,-1,33
 384 200 384 200 425.5 177 c 128,-1,34
 467 154 467 154 518 154 c 0,35,36
 618 154 618 154 677.5 235 c 128,-1,37
 737 316 737 316 737 469 c 0,20,21
EndSplineSet
EndChar
StartChar: p
Encoding: 112 112 81
Width: 1024
Flags: W
LayerCount: 2
Back
Fore
SplineSet
342 487 m 0,0,1
 342 398 342 398 355 335.5 c 128,-1,2
 368 273 368 273 392 233.5 c 128,-1,3
 416 194 416 194 450.5 176 c 128,-1,4
 485 158 485 158 528 158 c 0,5,6
 563 158 563 158 600 174 c 128,-1,7
 637 190 637 190 667.5 226 c 128,-1,8
 698 262 698 262 717.5 320.5 c 128,-1,9
 737 379 737 379 737 465 c 0,10,11
 737 620 737 620 681.5 704 c 128,-1,12
 626 788 626 788 522 788 c 0,13,14
 467 788 467 788 432 763.5 c 128,-1,15
 397 739 397 739 377 697.5 c 128,-1,16
 357 656 357 656 349.5 601.5 c 128,-1,17
 342 547 342 547 342 487 c 0,0,1
111 956 m 1,18,-1
 332 956 l 1,19,-1
 332 858 l 1,20,21
 355 890 355 890 383 912.5 c 128,-1,22
 411 935 411 935 441 949.5 c 128,-1,23
 471 964 471 964 501.5 970.5 c 128,-1,24
 532 977 532 977 561 977 c 0,25,26
 645 977 645 977 718.5 944.5 c 128,-1,27
 792 912 792 912 847.5 847 c 128,-1,28
 903 782 903 782 935 683.5 c 128,-1,29
 967 585 967 585 967 453 c 0,30,31
 967 333 967 333 934 242.5 c 128,-1,32
 901 152 901 152 845.5 91 c 128,-1,33
 790 30 790 30 717 -0.5 c 128,-1,34
 644 -31 644 -31 563 -31 c 0,35,36
 503 -31 503 -31 443 -5.5 c 128,-1,37
 383 20 383 20 342 63 c 1,38,-1
 342 -342 l 1,39,-1
 113 -342 l 1,40,-1
 111 956 l 1,18,-1
EndSplineSet
EndChar
StartChar: q
Encoding: 113 113 82
Width: 1024
Flags: W
LayerCount: 2
Back
Fore
SplineSet
465 977 m 0,0,1
 494 977 494 977 526.5 970 c 128,-1,2
 559 963 559 963 590 950 c 128,-1,3
 621 937 621 937 648.5 919 c 128,-1,4
 676 901 676 901 694 879 c 1,5,-1
 694 956 l 1,6,-1
 915 956 l 1,7,-1
 915 -342 l 1,8,-1
 686 -342 l 1,9,-1
 686 66 l 1,10,11
 666 43 666 43 639.5 24.5 c 128,-1,12
 613 6 613 6 583.5 -7 c 128,-1,13
 554 -20 554 -20 523 -26.5 c 128,-1,14
 492 -33 492 -33 463 -33 c 0,15,16
 379 -33 379 -33 305.5 4.5 c 128,-1,17
 232 42 232 42 177.5 110 c 128,-1,18
 123 178 123 178 91 272 c 128,-1,19
 59 366 59 366 59 479 c 256,20,21
 59 592 59 592 90 684 c 128,-1,22
 121 776 121 776 175 841 c 128,-1,23
 229 906 229 906 303.5 941.5 c 128,-1,24
 378 977 378 977 465 977 c 0,0,1
487 791 m 0,25,26
 447 791 447 791 411.5 770.5 c 128,-1,27
 376 750 376 750 349 711 c 128,-1,28
 322 672 322 672 306.5 615.5 c 128,-1,29
 291 559 291 559 291 487 c 0,30,31
 291 414 291 414 307 354 c 128,-1,32
 323 294 323 294 351 251.5 c 128,-1,33
 379 209 379 209 416.5 185.5 c 128,-1,34
 454 162 454 162 496 162 c 0,35,36
 584 162 584 162 633 241 c 128,-1,37
 682 320 682 320 682 481 c 0,38,39
 682 563 682 563 668.5 622 c 128,-1,40
 655 681 655 681 629.5 718.5 c 128,-1,41
 604 756 604 756 568 773.5 c 128,-1,42
 532 791 532 791 487 791 c 0,25,26
EndSplineSet
EndChar
StartChar: r
Encoding: 114 114 83
Width: 1024
Flags: W
LayerCount: 2
Back
Fore
SplineSet
182 956 m 1,0,-1
 418 956 l 1,1,-1
 418 852 l 1,2,3
 441 878 441 878 470 901 c 128,-1,4
 499 924 499 924 532 941 c 128,-1,5
 565 958 565 958 601.5 967.5 c 128,-1,6
 638 977 638 977 676 977 c 0,7,8
 757 977 757 977 830.5 951.5 c 128,-1,9
 904 926 904 926 961 872 c 1,10,-1
 854 649 l 1,11,12
 804 718 804 718 758 750 c 128,-1,13
 712 782 712 782 666 782 c 0,14,15
 613 782 613 782 567.5 759.5 c 128,-1,16
 522 737 522 737 487.5 698.5 c 128,-1,17
 453 660 453 660 433.5 608.5 c 128,-1,18
 414 557 414 557 414 500 c 2,19,-1
 414 0 l 1,20,-1
 182 0 l 1,21,-1
 182 956 l 1,0,-1
EndSplineSet
EndChar
StartChar: s
Encoding: 115 115 84
Width: 1024
Flags: W
LayerCount: 2
Back
Fore
SplineSet
799 645 m 1,0,1
 791 645 791 645 786.5 649.5 c 128,-1,2
 782 654 782 654 779.5 660.5 c 128,-1,3
 777 667 777 667 775 674.5 c 128,-1,4
 773 682 773 682 770 688 c 0,5,6
 752 710 752 710 725 730.5 c 128,-1,7
 698 751 698 751 665.5 766 c 128,-1,8
 633 781 633 781 596.5 790 c 128,-1,9
 560 799 560 799 524 799 c 0,10,11
 493 799 493 799 465 794.5 c 128,-1,12
 437 790 437 790 415.5 780 c 128,-1,13
 394 770 394 770 381.5 754 c 128,-1,14
 369 738 369 738 369 715 c 0,15,16
 369 689 369 689 382.5 671.5 c 128,-1,17
 396 654 396 654 423 639.5 c 128,-1,18
 450 625 450 625 491 612 c 128,-1,19
 532 599 532 599 588 584 c 0,20,21
 759 536 759 536 839.5 461 c 128,-1,22
 920 386 920 386 920 289 c 0,23,24
 920 224 920 224 891 166 c 128,-1,25
 862 108 862 108 809 63.5 c 128,-1,26
 756 19 756 19 680.5 -7 c 128,-1,27
 605 -33 605 -33 512 -33 c 0,28,29
 391 -33 391 -33 288.5 5.5 c 128,-1,30
 186 44 186 44 96 129 c 1,31,-1
 215 344 l 1,32,33
 227 342 227 342 233 329.5 c 128,-1,34
 239 317 239 317 248 295 c 0,35,36
 264 269 264 269 294 244.5 c 128,-1,37
 324 220 324 220 361 200 c 128,-1,38
 398 180 398 180 438.5 168 c 128,-1,39
 479 156 479 156 516 156 c 0,40,41
 598 156 598 156 643 179.5 c 128,-1,42
 688 203 688 203 688 250 c 0,43,44
 688 274 688 274 678 292 c 128,-1,45
 668 310 668 310 646.5 325.5 c 128,-1,46
 625 341 625 341 590 354.5 c 128,-1,47
 555 368 555 368 504 383 c 0,48,49
 476 391 476 391 448.5 399 c 128,-1,50
 421 407 421 407 393 418 c 0,51,52
 337 439 337 439 293 465.5 c 128,-1,53
 249 492 249 492 218.5 525 c 128,-1,54
 188 558 188 558 172 599.5 c 128,-1,55
 156 641 156 641 156 692 c 256,56,57
 156 743 156 743 184.5 794 c 128,-1,58
 213 845 213 845 263 885.5 c 128,-1,59
 313 926 313 926 382.5 951.5 c 128,-1,60
 452 977 452 977 535 977 c 0,61,62
 644 977 644 977 737.5 938 c 128,-1,63
 831 899 831 899 909 811 c 1,64,-1
 799 645 l 1,0,1
EndSplineSet
EndChar
StartChar: t
Encoding: 116 116 85
Width: 1024
Flags: W
LayerCount: 2
Back
Fore
SplineSet
348 1180 m 1,0,-1
 602 1223 l 1,1,2
 602 1197 602 1197 594 1180 c 128,-1,3
 586 1163 586 1163 580 1141 c 2,4,-1
 559 956 l 1,5,-1
 848 956 l 1,6,-1
 848 770 l 1,7,-1
 551 770 l 1,8,9
 548 696 548 696 541.5 617 c 128,-1,10
 535 538 535 538 535 461 c 0,11,12
 535 383 535 383 538.5 327 c 128,-1,13
 542 271 542 271 553.5 236 c 128,-1,14
 565 201 565 201 586.5 184.5 c 128,-1,15
 608 168 608 168 643 168 c 0,16,17
 677 168 677 168 733 197.5 c 128,-1,18
 789 227 789 227 860 281 c 1,19,-1
 932 92 l 1,20,21
 848 32 848 32 767.5 -0.5 c 128,-1,22
 687 -33 687 -33 608 -33 c 0,23,24
 528 -33 528 -33 470.5 -10.5 c 128,-1,25
 413 12 413 12 375.5 59.5 c 128,-1,26
 338 107 338 107 320.5 181 c 128,-1,27
 303 255 303 255 303 358 c 0,28,29
 303 427 303 427 307 528.5 c 128,-1,30
 311 630 311 630 322 770 c 1,31,-1
 115 770 l 1,32,-1
 115 956 l 1,33,-1
 334 956 l 1,34,-1
 348 1180 l 1,0,-1
EndSplineSet
EndChar
StartChar: u
Encoding: 117 117 86
Width: 1024
Flags: W
LayerCount: 2
Back
Fore
SplineSet
903 956 m 1,0,-1
 903 115 l 2,1,2
 903 89 903 89 908.5 60 c 128,-1,3
 914 31 914 31 922 0 c 1,4,-1
 700 0 l 1,5,6
 688 9 688 9 684 27 c 128,-1,7
 680 45 680 45 680 59 c 2,8,-1
 680 90 l 1,9,10
 659 59 659 59 629 35 c 128,-1,11
 599 11 599 11 564 -6 c 128,-1,12
 529 -23 529 -23 492.5 -32 c 128,-1,13
 456 -41 456 -41 422 -41 c 0,14,15
 347 -41 347 -41 288 -19 c 128,-1,16
 229 3 229 3 188 51 c 128,-1,17
 147 99 147 99 125.5 175 c 128,-1,18
 104 251 104 251 104 358 c 2,19,-1
 104 956 l 1,20,-1
 330 956 l 1,21,-1
 330 358 l 2,22,23
 330 248 330 248 367.5 197.5 c 128,-1,24
 405 147 405 147 467 147 c 0,25,26
 510 147 510 147 547.5 164.5 c 128,-1,27
 585 182 585 182 612.5 213 c 128,-1,28
 640 244 640 244 656 287.5 c 128,-1,29
 672 331 672 331 672 383 c 2,30,-1
 672 956 l 1,31,-1
 903 956 l 1,0,-1
EndSplineSet
EndChar
StartChar: v
Encoding: 118 118 87
Width: 1024
Flags: W
LayerCount: 2
Back
Fore
SplineSet
51 956 m 1,0,-1
 328 956 l 1,1,2
 328 945 328 945 325.5 937.5 c 128,-1,3
 323 930 323 930 320.5 923 c 128,-1,4
 318 916 318 916 315.5 908.5 c 128,-1,5
 313 901 313 901 313 891 c 2,6,-1
 530 279 l 1,7,-1
 623 549 l 2,8,9
 659 654 659 654 690 761.5 c 128,-1,10
 721 869 721 869 739 956 c 1,11,-1
 958 956 l 1,12,13
 934 853 934 853 898.5 741.5 c 128,-1,14
 863 630 863 630 815 518 c 2,15,-1
 602 0 l 1,16,-1
 414 0 l 1,17,-1
 51 956 l 1,0,-1
EndSplineSet
EndChar
StartChar: w
Encoding: 119 119 88
Width: 1024
Flags: W
LayerCount: 2
Back
Fore
SplineSet
16 956 m 1,0,-1
 270 956 l 1,1,2
 270 945 270 945 266.5 938.5 c 128,-1,3
 263 932 263 932 259 927 c 128,-1,4
 255 922 255 922 251.5 916.5 c 128,-1,5
 248 911 248 911 248 901 c 0,6,7
 248 896 248 896 248 890.5 c 128,-1,8
 248 885 248 885 250 879 c 2,9,-1
 338 281 l 1,10,-1
 457 846 l 1,11,-1
 598 846 l 1,12,-1
 733 283 l 1,13,14
 749 387 749 387 758.5 481.5 c 128,-1,15
 768 576 768 576 773.5 655.5 c 128,-1,16
 779 735 779 735 780.5 795.5 c 128,-1,17
 782 856 782 856 782 893 c 2,18,-1
 782 956 l 1,19,-1
 999 956 l 1,20,21
 986 846 986 846 970 723.5 c 128,-1,22
 954 601 954 601 935 476.5 c 128,-1,23
 916 352 916 352 895 230 c 128,-1,24
 874 108 874 108 852 0 c 1,25,-1
 649 0 l 1,26,-1
 524 532 l 1,27,-1
 406 0 l 1,28,-1
 197 0 l 1,29,-1
 16 956 l 1,0,-1
EndSplineSet
EndChar
StartChar: x
Encoding: 120 120 89
Width: 1024
Flags: W
LayerCount: 2
Back
Fore
SplineSet
694 956 m 1,0,-1
 942 956 l 1,1,-1
 637 492 l 1,2,3
 764 310 764 310 853 182 c 128,-1,4
 942 54 942 54 981 0 c 1,5,-1
 719 0 l 1,6,-1
 510 324 l 1,7,-1
 313 0 l 1,8,-1
 51 0 l 1,9,-1
 381 485 l 1,10,11
 91 905 91 905 55 956 c 1,12,-1
 313 956 l 1,13,-1
 508 647 l 1,14,-1
 694 956 l 1,0,-1
EndSplineSet
EndChar
StartChar: y
Encoding: 121 121 90
Width: 1024
Flags: W
LayerCount: 2
Back
Fore
SplineSet
590 -104 m 2,0,1
 564 -173 564 -173 530 -222 c 128,-1,2
 496 -271 496 -271 456 -302 c 128,-1,3
 416 -333 416 -333 370.5 -347.5 c 128,-1,4
 325 -362 325 -362 276 -362 c 0,5,6
 135 -362 135 -362 23 -254 c 1,7,-1
 137 -57 l 1,8,9
 149 -63 149 -63 154 -70 c 128,-1,10
 159 -77 159 -77 162 -86 c 128,-1,11
 165 -95 165 -95 168 -105 c 128,-1,12
 171 -115 171 -115 178 -127 c 0,13,14
 192 -152 192 -152 212.5 -164 c 128,-1,15
 233 -176 233 -176 264 -176 c 0,16,17
 286 -176 286 -176 306 -167 c 128,-1,18
 326 -158 326 -158 345.5 -136 c 128,-1,19
 365 -114 365 -114 384 -78 c 128,-1,20
 403 -42 403 -42 422 12 c 1,21,-1
 63 956 l 1,22,-1
 344 956 l 1,23,24
 344 945 344 945 342 937.5 c 128,-1,25
 340 930 340 930 337 923 c 128,-1,26
 334 916 334 916 332 908.5 c 128,-1,27
 330 901 330 901 330 891 c 2,28,-1
 543 297 l 1,29,-1
 635 549 l 2,30,31
 654 600 654 600 671.5 654 c 128,-1,32
 689 708 689 708 704 761 c 128,-1,33
 719 814 719 814 731 863.5 c 128,-1,34
 743 913 743 913 752 956 c 1,35,-1
 971 956 l 1,36,37
 946 853 946 853 909 742.5 c 128,-1,38
 872 632 872 632 827 518 c 2,39,-1
 590 -104 l 2,0,1
EndSplineSet
EndChar
StartChar: z
Encoding: 122 122 91
Width: 1024
Flags: W
LayerCount: 2
Back
Fore
SplineSet
127 936 m 1,0,-1
 891 936 l 1,1,-1
 891 793 l 1,2,-1
 401 193 l 1,3,-1
 836 193 l 2,4,5
 852 194 852 194 864 199 c 128,-1,6
 876 204 876 204 887.5 209.5 c 128,-1,7
 899 215 899 215 910 219 c 128,-1,8
 921 223 921 223 936 223 c 1,9,-1
 936 0 l 1,10,-1
 88 0 l 1,11,-1
 88 143 l 1,12,-1
 584 741 l 1,13,-1
 127 741 l 1,14,-1
 127 936 l 1,0,-1
EndSplineSet
EndChar
StartChar: braceleft
Encoding: 123 123 92
Width: 1024
Flags: W
LayerCount: 2
Back
Fore
SplineSet
291 53 m 0,0,1
 291 69 291 69 292 95.5 c 128,-1,2
 293 122 293 122 294 151 c 128,-1,3
 295 180 295 180 296 208 c 128,-1,4
 297 236 297 236 297 256 c 0,5,6
 297 307 297 307 289 340 c 128,-1,7
 281 373 281 373 266 392.5 c 128,-1,8
 251 412 251 412 228.5 420 c 128,-1,9
 206 428 206 428 178 428 c 2,10,-1
 92 428 l 1,11,-1
 92 610 l 1,12,-1
 176 610 l 2,13,14
 239 610 239 610 270 648.5 c 128,-1,15
 301 687 301 687 301 774 c 0,16,17
 301 786 301 786 300.5 809.5 c 128,-1,18
 300 833 300 833 299 858.5 c 128,-1,19
 298 884 298 884 297.5 906 c 128,-1,20
 297 928 297 928 297 936 c 0,21,22
 297 1119 297 1119 395 1212 c 128,-1,23
 493 1305 493 1305 688 1305 c 2,24,-1
 854 1305 l 1,25,-1
 854 1120 l 1,26,-1
 653 1120 l 2,27,28
 587 1120 587 1120 555.5 1079 c 128,-1,29
 524 1038 524 1038 524 956 c 0,30,31
 524 942 524 942 524.5 919.5 c 128,-1,32
 525 897 525 897 526 873 c 128,-1,33
 527 849 527 849 527.5 828 c 128,-1,34
 528 807 528 807 528 797 c 0,35,36
 528 706 528 706 489.5 635 c 128,-1,37
 451 564 451 564 383 520 c 1,38,39
 414 500 414 500 439.5 470.5 c 128,-1,40
 465 441 465 441 484 403.5 c 128,-1,41
 503 366 503 366 513.5 321.5 c 128,-1,42
 524 277 524 277 524 227 c 0,43,44
 524 216 524 216 523.5 188.5 c 128,-1,45
 523 161 523 161 522 132.5 c 128,-1,46
 521 104 521 104 520.5 80.5 c 128,-1,47
 520 57 520 57 520 53 c 0,48,49
 520 -52 520 -52 564 -98.5 c 128,-1,50
 608 -145 608 -145 709 -145 c 2,51,-1
 852 -145 l 1,52,-1
 852 -326 l 1,53,-1
 737 -326 l 2,54,55
 716 -326 716 -326 674.5 -323.5 c 128,-1,56
 633 -321 633 -321 585.5 -313.5 c 128,-1,57
 538 -306 538 -306 492 -292.5 c 128,-1,58
 446 -279 446 -279 416 -256 c 0,59,60
 353 -208 353 -208 322 -128.5 c 128,-1,61
 291 -49 291 -49 291 53 c 0,0,1
EndSplineSet
EndChar
StartChar: bar
Encoding: 124 124 93
Width: 1024
Flags: W
LayerCount: 2
Back
Fore
SplineSet
403 1335 m 1,0,-1
 623 1335 l 1,1,-1
 623 -309 l 1,2,-1
 403 -309 l 1,3,-1
 403 1335 l 1,0,-1
EndSplineSet
EndChar
StartChar: braceright
Encoding: 125 125 94
Width: 1024
Flags: W
LayerCount: 2
Back
Fore
SplineSet
735 53 m 0,0,1
 735 -49 735 -49 704 -128.5 c 128,-1,2
 673 -208 673 -208 610 -256 c 0,3,4
 580 -279 580 -279 534 -292.5 c 128,-1,5
 488 -306 488 -306 440.5 -313.5 c 128,-1,6
 393 -321 393 -321 351.5 -323.5 c 128,-1,7
 310 -326 310 -326 289 -326 c 2,8,-1
 174 -326 l 1,9,-1
 174 -145 l 1,10,-1
 317 -145 l 2,11,12
 418 -145 418 -145 462 -98.5 c 128,-1,13
 506 -52 506 -52 506 53 c 0,14,15
 506 57 506 57 505.5 80.5 c 128,-1,16
 505 104 505 104 504 132.5 c 128,-1,17
 503 161 503 161 502.5 188.5 c 128,-1,18
 502 216 502 216 502 227 c 0,19,20
 502 277 502 277 512.5 321.5 c 128,-1,21
 523 366 523 366 541.5 403.5 c 128,-1,22
 560 441 560 441 586 470.5 c 128,-1,23
 612 500 612 500 643 520 c 1,24,25
 575 564 575 564 536.5 635 c 128,-1,26
 498 706 498 706 498 797 c 0,27,28
 498 807 498 807 498.5 828 c 128,-1,29
 499 849 499 849 500 873 c 128,-1,30
 501 897 501 897 501.5 919.5 c 128,-1,31
 502 942 502 942 502 956 c 0,32,33
 502 1038 502 1038 470.5 1079 c 128,-1,34
 439 1120 439 1120 373 1120 c 2,35,-1
 172 1120 l 1,36,-1
 172 1305 l 1,37,-1
 338 1305 l 2,38,39
 533 1305 533 1305 631 1212 c 128,-1,40
 729 1119 729 1119 729 936 c 0,41,42
 729 928 729 928 728.5 906 c 128,-1,43
 728 884 728 884 727 858.5 c 128,-1,44
 726 833 726 833 725.5 809.5 c 128,-1,45
 725 786 725 786 725 774 c 0,46,47
 725 687 725 687 756 648.5 c 128,-1,48
 787 610 787 610 850 610 c 2,49,-1
 934 610 l 1,50,-1
 934 428 l 1,51,-1
 848 428 l 2,52,53
 819 428 819 428 797 420 c 128,-1,54
 775 412 775 412 760 392.5 c 128,-1,55
 745 373 745 373 737 340 c 128,-1,56
 729 307 729 307 729 256 c 0,57,58
 729 236 729 236 730 208 c 128,-1,59
 731 180 731 180 732 151 c 128,-1,60
 733 122 733 122 734 95.5 c 128,-1,61
 735 69 735 69 735 53 c 0,0,1
EndSplineSet
EndChar
StartChar: asciitilde
Encoding: 126 126 95
Width: 1024
Flags: W
LayerCount: 2
Back
Fore
SplineSet
55 776 m 1,0,1
 86 826 86 826 125.5 867 c 128,-1,2
 165 908 165 908 207 937.5 c 128,-1,3
 249 967 249 967 291 983 c 128,-1,4
 333 999 333 999 369 999 c 0,5,6
 400 999 400 999 425.5 992.5 c 128,-1,7
 451 986 451 986 474.5 974 c 128,-1,8
 498 962 498 962 521 945 c 128,-1,9
 544 928 544 928 571 907 c 0,10,11
 599 886 599 886 625 869 c 128,-1,12
 651 852 651 852 674 852 c 0,13,14
 695 852 695 852 712.5 860 c 128,-1,15
 730 868 730 868 748.5 885 c 128,-1,16
 767 902 767 902 788 928.5 c 128,-1,17
 809 955 809 955 836 993 c 1,18,-1
 989 870 l 1,19,20
 961 825 961 825 926.5 785 c 128,-1,21
 892 745 892 745 852.5 714.5 c 128,-1,22
 813 684 813 684 770.5 666.5 c 128,-1,23
 728 649 728 649 684 649 c 0,24,25
 634 649 634 649 593.5 667 c 128,-1,26
 553 685 553 685 524 707 c 0,27,28
 503 722 503 722 484 738 c 128,-1,29
 465 754 465 754 447 766.5 c 128,-1,30
 429 779 429 779 409.5 787 c 128,-1,31
 390 795 390 795 367 795 c 0,32,33
 336 795 336 795 299.5 764 c 128,-1,34
 263 733 263 733 221 664 c 1,35,-1
 55 776 l 1,0,1
EndSplineSet
EndChar
StartChar: exclamdown
Encoding: 161 161 97
Width: 1024
Flags: W
LayerCount: 2
Back
Fore
SplineSet
604 1122 m 0,0,1
 557 1077 557 1077 489 1077 c 0,2,3
 457 1077 457 1077 428.5 1089 c 128,-1,4
 400 1101 400 1101 378.5 1122 c 128,-1,5
 357 1143 357 1143 344.5 1170 c 128,-1,6
 332 1197 332 1197 332 1227 c 0,7,8
 332 1258 332 1258 344.5 1284.5 c 128,-1,9
 357 1311 357 1311 378.5 1331 c 128,-1,10
 400 1351 400 1351 428.5 1362.5 c 128,-1,11
 457 1374 457 1374 489 1374 c 256,12,13
 521 1374 521 1374 550.5 1362.5 c 128,-1,14
 580 1351 580 1351 602.5 1330.5 c 128,-1,15
 625 1310 625 1310 638 1283.5 c 128,-1,16
 651 1257 651 1257 651 1227 c 0,17,18
 651 1198 651 1198 639 1172.5 c 128,-1,19
 627 1147 627 1147 604 1122 c 0,0,1
494 -20 m 0,20,21
 425 -20 425 -20 387.5 25.5 c 128,-1,22
 350 71 350 71 350 156 c 0,23,24
 350 178 350 178 352.5 208.5 c 128,-1,25
 355 239 355 239 359 271.5 c 128,-1,26
 363 304 363 304 366 335.5 c 128,-1,27
 369 367 369 367 371 391 c 2,28,-1
 399 948 l 1,29,-1
 584 948 l 1,30,-1
 621 391 l 2,31,32
 622 368 622 368 625 339 c 128,-1,33
 628 310 628 310 630.5 280 c 128,-1,34
 633 250 633 250 635 222.5 c 128,-1,35
 637 195 637 195 637 176 c 0,36,37
 637 72 637 72 598.5 26 c 128,-1,38
 560 -20 560 -20 494 -20 c 0,20,21
EndSplineSet
EndChar
StartChar: cent
Encoding: 162 162 98
Width: 1024
Flags: W
LayerCount: 2
Back
Fore
SplineSet
805 696 m 1,0,1
 796 698 796 698 792 703.5 c 128,-1,2
 788 709 788 709 786 716.5 c 128,-1,3
 784 724 784 724 782.5 732.5 c 128,-1,4
 781 741 781 741 778 750 c 0,5,6
 763 774 763 774 741.5 795 c 128,-1,7
 720 816 720 816 692 831 c 1,8,-1
 616 244 l 1,9,10
 664 252 664 252 714.5 281 c 128,-1,11
 765 310 765 310 811 367 c 1,12,-1
 944 213 l 1,13,14
 869 128 869 128 779 88 c 128,-1,15
 689 48 689 48 590 43 c 1,16,-1
 563 -162 l 1,17,-1
 362 -137 l 1,18,-1
 389 72 l 1,19,20
 320 98 320 98 263 143.5 c 128,-1,21
 206 189 206 189 165.5 250 c 128,-1,22
 125 311 125 311 102.5 385.5 c 128,-1,23
 80 460 80 460 80 545 c 0,24,25
 80 644 80 644 111 731 c 128,-1,26
 142 818 142 818 199 885 c 128,-1,27
 256 952 256 952 335 995 c 128,-1,28
 414 1038 414 1038 510 1049 c 1,29,-1
 539 1278 l 1,30,-1
 760 1257 l 1,31,32
 760 1240 760 1240 754.5 1227.5 c 128,-1,33
 749 1215 749 1215 741 1192 c 1,34,-1
 719 1032 l 1,35,36
 854 996 854 996 940 877 c 1,37,-1
 805 696 l 1,0,1
313 557 m 0,38,39
 313 476 313 476 338 410 c 128,-1,40
 363 344 363 344 416 299 c 1,41,-1
 483 846 l 1,42,43
 444 832 444 832 412.5 804.5 c 128,-1,44
 381 777 381 777 359 739.5 c 128,-1,45
 337 702 337 702 325 655.5 c 128,-1,46
 313 609 313 609 313 557 c 0,38,39
EndSplineSet
EndChar
StartChar: sterling
Encoding: 163 163 99
Width: 1024
Flags: W
LayerCount: 2
Back
Fore
SplineSet
750 977 m 1,0,1
 720 989 720 989 706.5 1010 c 128,-1,2
 693 1031 693 1031 680.5 1052 c 128,-1,3
 668 1073 668 1073 647.5 1088.5 c 128,-1,4
 627 1104 627 1104 584 1104 c 0,5,6
 553 1104 553 1104 524.5 1091.5 c 128,-1,7
 496 1079 496 1079 474 1053.5 c 128,-1,8
 452 1028 452 1028 439 990 c 128,-1,9
 426 952 426 952 426 901 c 0,10,11
 426 884 426 884 427.5 864 c 128,-1,12
 429 844 429 844 434 813 c 1,13,-1
 639 813 l 1,14,-1
 639 631 l 1,15,-1
 477 631 l 1,16,17
 485 589 485 589 488.5 543 c 128,-1,18
 492 497 492 497 492 465 c 0,19,20
 492 437 492 437 489.5 406 c 128,-1,21
 487 375 487 375 480.5 344 c 128,-1,22
 474 313 474 313 462 285 c 128,-1,23
 450 257 450 257 432 236 c 1,24,25
 441 238 441 238 455.5 238 c 128,-1,26
 470 238 470 238 485 238 c 0,27,28
 516 238 516 238 551.5 227.5 c 128,-1,29
 587 217 587 217 622.5 205 c 128,-1,30
 658 193 658 193 689.5 182.5 c 128,-1,31
 721 172 721 172 743 172 c 0,32,33
 759 172 759 172 775.5 177 c 128,-1,34
 792 182 792 182 810 192.5 c 128,-1,35
 828 203 828 203 849.5 219 c 128,-1,36
 871 235 871 235 897 256 c 1,37,-1
 983 80 l 1,38,39
 850 -29 850 -29 731 -29 c 0,40,41
 697 -29 697 -29 650.5 -15.5 c 128,-1,42
 604 -2 604 -2 554.5 14 c 128,-1,43
 505 30 505 30 459 43.5 c 128,-1,44
 413 57 413 57 381 57 c 0,45,46
 347 57 347 57 286.5 33.5 c 128,-1,47
 226 10 226 10 139 -35 c 1,48,-1
 57 147 l 1,49,50
 96 162 96 162 123.5 175.5 c 128,-1,51
 151 189 151 189 169.5 201 c 128,-1,52
 188 213 188 213 198.5 224 c 128,-1,53
 209 235 209 235 215 246 c 0,54,55
 243 292 243 292 257.5 347.5 c 128,-1,56
 272 403 272 403 272 463 c 0,57,58
 272 478 272 478 271 497.5 c 128,-1,59
 270 517 270 517 268 539.5 c 128,-1,60
 266 562 266 562 262.5 585.5 c 128,-1,61
 259 609 259 609 254 631 c 1,62,-1
 121 631 l 1,63,-1
 121 813 l 1,64,-1
 213 813 l 1,65,66
 208 838 208 838 206.5 858.5 c 128,-1,67
 205 879 205 879 205 899 c 0,68,69
 205 984 205 984 234.5 1055.5 c 128,-1,70
 264 1127 264 1127 315 1178.5 c 128,-1,71
 366 1230 366 1230 435 1259 c 128,-1,72
 504 1288 504 1288 584 1288 c 0,73,74
 675 1288 675 1288 748 1253 c 128,-1,75
 821 1218 821 1218 887 1147 c 1,76,-1
 750 977 l 1,0,1
EndSplineSet
EndChar
StartChar: currency
Encoding: 164 164 100
Width: 1024
Flags: W
LayerCount: 2
Back
Fore
SplineSet
106 987 m 1,0,-1
 240 1108 l 1,1,-1
 350 997 l 1,2,3
 387 1016 387 1016 429.5 1027 c 128,-1,4
 472 1038 472 1038 514 1038 c 256,5,6
 556 1038 556 1038 596.5 1028 c 128,-1,7
 637 1018 637 1018 674 999 c 1,8,-1
 784 1108 l 1,9,-1
 918 987 l 1,10,-1
 805 877 l 1,11,12
 831 836 831 836 841.5 794 c 128,-1,13
 852 752 852 752 852 709 c 0,14,15
 852 664 852 664 841 622.5 c 128,-1,16
 830 581 830 581 805 541 c 1,17,-1
 918 430 l 1,18,-1
 784 309 l 1,19,-1
 676 418 l 1,20,21
 638 396 638 396 597.5 387.5 c 128,-1,22
 557 379 557 379 514 379 c 0,23,24
 468 379 468 379 427 388.5 c 128,-1,25
 386 398 386 398 348 420 c 1,26,-1
 240 309 l 1,27,-1
 106 430 l 1,28,-1
 219 545 l 1,29,30
 197 583 197 583 185.5 625 c 128,-1,31
 174 667 174 667 174 709 c 0,32,33
 174 752 174 752 184 792 c 128,-1,34
 194 832 194 832 219 874 c 1,35,-1
 106 987 l 1,0,-1
360 707 m 0,36,37
 360 672 360 672 371.5 642 c 128,-1,38
 383 612 383 612 403.5 589.5 c 128,-1,39
 424 567 424 567 452 554 c 128,-1,40
 480 541 480 541 512 541 c 256,41,42
 544 541 544 541 572 554 c 128,-1,43
 600 567 600 567 620.5 589.5 c 128,-1,44
 641 612 641 612 652.5 642 c 128,-1,45
 664 672 664 672 664 707 c 0,46,47
 664 741 664 741 652.5 771.5 c 128,-1,48
 641 802 641 802 620.5 825 c 128,-1,49
 600 848 600 848 572 861 c 128,-1,50
 544 874 544 874 512 874 c 256,51,52
 480 874 480 874 452 861 c 128,-1,53
 424 848 424 848 403.5 825 c 128,-1,54
 383 802 383 802 371.5 771.5 c 128,-1,55
 360 741 360 741 360 707 c 0,36,37
EndSplineSet
EndChar
StartChar: yen
Encoding: 165 165 101
Width: 1024
Flags: W
LayerCount: 2
Back
Fore
SplineSet
152 592 m 1,0,-1
 410 592 l 1,1,-1
 35 1276 l 1,2,-1
 289 1276 l 1,3,-1
 528 793 l 1,4,-1
 750 1276 l 1,5,-1
 989 1276 l 1,6,-1
 639 592 l 1,7,-1
 891 592 l 1,8,-1
 891 410 l 1,9,-1
 639 410 l 1,10,-1
 639 348 l 1,11,-1
 891 348 l 1,12,-1
 891 168 l 1,13,-1
 639 168 l 1,14,-1
 639 0 l 1,15,-1
 416 0 l 1,16,-1
 416 168 l 1,17,-1
 152 168 l 1,18,-1
 152 348 l 1,19,-1
 416 348 l 1,20,-1
 416 410 l 1,21,-1
 152 410 l 1,22,-1
 152 592 l 1,0,-1
EndSplineSet
EndChar
StartChar: brokenbar
Encoding: 166 166 102
Width: 1024
Flags: W
LayerCount: 2
Back
Fore
SplineSet
403 1335 m 1,0,-1
 623 1335 l 1,1,-1
 623 557 l 1,2,-1
 403 557 l 1,3,-1
 403 1335 l 1,0,-1
623 -309 m 1,4,-1
 403 -309 l 1,5,-1
 403 446 l 1,6,-1
 623 446 l 1,7,-1
 623 -309 l 1,4,-1
EndSplineSet
EndChar
StartChar: section
Encoding: 167 167 103
Width: 1024
Flags: W
LayerCount: 2
Back
Fore
SplineSet
705 1020 m 1,0,1
 686 1024 686 1024 681 1034 c 128,-1,2
 676 1044 676 1044 672 1075 c 0,3,4
 667 1100 667 1100 653.5 1122.5 c 128,-1,5
 640 1145 640 1145 620.5 1162 c 128,-1,6
 601 1179 601 1179 575.5 1189.5 c 128,-1,7
 550 1200 550 1200 522 1200 c 0,8,9
 496 1200 496 1200 474 1190.5 c 128,-1,10
 452 1181 452 1181 435.5 1165 c 128,-1,11
 419 1149 419 1149 410 1127.5 c 128,-1,12
 401 1106 401 1106 401 1083 c 0,13,14
 401 1054 401 1054 414 1031 c 128,-1,15
 427 1008 427 1008 454.5 988 c 128,-1,16
 482 968 482 968 525 949 c 128,-1,17
 568 930 568 930 627 909 c 0,18,19
 669 894 669 894 713 869.5 c 128,-1,20
 757 845 757 845 792.5 809.5 c 128,-1,21
 828 774 828 774 851 729 c 128,-1,22
 874 684 874 684 874 629 c 0,23,24
 874 597 874 597 864 566.5 c 128,-1,25
 854 536 854 536 836.5 509 c 128,-1,26
 819 482 819 482 795 460.5 c 128,-1,27
 771 439 771 439 743 426 c 1,28,29
 797 384 797 384 826.5 330.5 c 128,-1,30
 856 277 856 277 856 217 c 0,31,32
 856 146 856 146 829 85 c 128,-1,33
 802 24 802 24 753 -21 c 128,-1,34
 704 -66 704 -66 636.5 -91.5 c 128,-1,35
 569 -117 569 -117 487 -117 c 0,36,37
 375 -117 375 -117 278 -65.5 c 128,-1,38
 181 -14 181 -14 109 86 c 1,39,-1
 250 252 l 1,40,41
 265 252 265 252 270.5 245 c 128,-1,42
 276 238 276 238 283 219 c 0,43,44
 289 198 289 198 308 174 c 128,-1,45
 327 150 327 150 354 130 c 128,-1,46
 381 110 381 110 414 97 c 128,-1,47
 447 84 447 84 481 84 c 0,48,49
 517 84 517 84 545 94 c 128,-1,50
 573 104 573 104 591.5 120.5 c 128,-1,51
 610 137 610 137 619.5 158.5 c 128,-1,52
 629 180 629 180 629 203 c 0,53,54
 629 228 629 228 620.5 249 c 128,-1,55
 612 270 612 270 590 288 c 128,-1,56
 568 306 568 306 531.5 322.5 c 128,-1,57
 495 339 495 339 440 356 c 0,58,59
 359 381 359 381 302 412 c 128,-1,60
 245 443 245 443 209 479.5 c 128,-1,61
 173 516 173 516 157 558.5 c 128,-1,62
 141 601 141 601 141 649 c 0,63,64
 141 678 141 678 152.5 710 c 128,-1,65
 164 742 164 742 184.5 771.5 c 128,-1,66
 205 801 205 801 233 825.5 c 128,-1,67
 261 850 261 850 295 864 c 1,68,69
 267 880 267 880 244 904 c 128,-1,70
 221 928 221 928 204.5 955.5 c 128,-1,71
 188 983 188 983 179 1013.5 c 128,-1,72
 170 1044 170 1044 170 1073 c 0,73,74
 170 1134 170 1134 196 1191 c 128,-1,75
 222 1248 222 1248 269 1291 c 128,-1,76
 316 1334 316 1334 381 1360 c 128,-1,77
 446 1386 446 1386 524 1386 c 0,78,79
 581 1386 581 1386 632.5 1370 c 128,-1,80
 684 1354 684 1354 728 1325.5 c 128,-1,81
 772 1297 772 1297 809 1256.5 c 128,-1,82
 846 1216 846 1216 874 1167 c 1,83,-1
 705 1020 l 1,0,1
412 778 m 1,84,85
 403 773 403 773 395.5 763 c 128,-1,86
 388 753 388 753 383 740.5 c 128,-1,87
 378 728 378 728 375.5 713.5 c 128,-1,88
 373 699 373 699 373 686 c 0,89,90
 373 638 373 638 413 598 c 128,-1,91
 453 558 453 558 535 532 c 0,92,93
 545 529 545 529 560 525.5 c 128,-1,94
 575 522 575 522 610 510 c 1,95,96
 624 522 624 522 631.5 547 c 128,-1,97
 639 572 639 572 639 598 c 0,98,99
 639 646 639 646 600.5 686.5 c 128,-1,100
 562 727 562 727 477 756 c 2,101,-1
 412 778 l 1,84,85
EndSplineSet
EndChar
StartChar: dieresis
Encoding: 168 168 104
Width: 1024
Flags: W
LayerCount: 2
Back
Fore
SplineSet
326 1386 m 0,0,1
 353 1386 353 1386 378.5 1376.5 c 128,-1,2
 404 1367 404 1367 424 1349.5 c 128,-1,3
 444 1332 444 1332 456.5 1307.5 c 128,-1,4
 469 1283 469 1283 469 1253 c 0,5,6
 469 1226 469 1226 457.5 1202.5 c 128,-1,7
 446 1179 446 1179 426.5 1161 c 128,-1,8
 407 1143 407 1143 381 1132.5 c 128,-1,9
 355 1122 355 1122 326 1122 c 256,10,11
 297 1122 297 1122 271 1132.5 c 128,-1,12
 245 1143 245 1143 225.5 1161 c 128,-1,13
 206 1179 206 1179 195 1202.5 c 128,-1,14
 184 1226 184 1226 184 1253 c 256,15,16
 184 1280 184 1280 195 1304 c 128,-1,17
 206 1328 206 1328 225.5 1346.5 c 128,-1,18
 245 1365 245 1365 271 1375.5 c 128,-1,19
 297 1386 297 1386 326 1386 c 0,0,1
702 1386 m 0,20,21
 728 1386 728 1386 753.5 1376.5 c 128,-1,22
 779 1367 779 1367 799 1349.5 c 128,-1,23
 819 1332 819 1332 831.5 1307.5 c 128,-1,24
 844 1283 844 1283 844 1253 c 0,25,26
 844 1226 844 1226 833 1202.5 c 128,-1,27
 822 1179 822 1179 802.5 1161 c 128,-1,28
 783 1143 783 1143 757 1132.5 c 128,-1,29
 731 1122 731 1122 702 1122 c 256,30,31
 673 1122 673 1122 647.5 1132 c 128,-1,32
 622 1142 622 1142 602.5 1160 c 128,-1,33
 583 1178 583 1178 572 1202 c 128,-1,34
 561 1226 561 1226 561 1253 c 0,35,36
 561 1281 561 1281 572 1305 c 128,-1,37
 583 1329 583 1329 602.5 1347 c 128,-1,38
 622 1365 622 1365 647.5 1375.5 c 128,-1,39
 673 1386 673 1386 702 1386 c 0,20,21
EndSplineSet
EndChar
StartChar: copyright
Encoding: 169 169 105
Width: 1024
Flags: W
LayerCount: 2
Back
Fore
SplineSet
643 596 m 1,0,1
 635 598 635 598 632.5 604 c 128,-1,2
 630 610 630 610 628.5 618 c 128,-1,3
 627 626 627 626 626.5 635 c 128,-1,4
 626 644 626 644 623 653 c 0,5,6
 612 685 612 685 584.5 705 c 128,-1,7
 557 725 557 725 520 725 c 0,8,9
 499 725 499 725 478.5 717.5 c 128,-1,10
 458 710 458 710 441 692.5 c 128,-1,11
 424 675 424 675 413.5 646 c 128,-1,12
 403 617 403 617 403 575 c 0,13,14
 403 497 403 497 433 447 c 128,-1,15
 463 397 463 397 526 397 c 0,16,17
 573 397 573 397 602 423 c 128,-1,18
 631 449 631 449 651 500 c 1,19,-1
 795 408 l 1,20,21
 751 330 751 330 678.5 285 c 128,-1,22
 606 240 606 240 518 240 c 0,23,24
 450 240 450 240 394.5 266.5 c 128,-1,25
 339 293 339 293 300 337.5 c 128,-1,26
 261 382 261 382 240 441 c 128,-1,27
 219 500 219 500 219 565 c 0,28,29
 219 632 219 632 242 689.5 c 128,-1,30
 265 747 265 747 304 789 c 128,-1,31
 343 831 343 831 394.5 855 c 128,-1,32
 446 879 446 879 504 879 c 0,33,34
 568 879 568 879 618 862 c 128,-1,35
 668 845 668 845 705.5 814.5 c 128,-1,36
 743 784 743 784 767 742.5 c 128,-1,37
 791 701 791 701 803 653 c 1,38,-1
 643 596 l 1,0,1
868 193 m 0,39,40
 796 117 796 117 704 77 c 128,-1,41
 612 37 612 37 506 37 c 0,42,43
 402 37 402 37 311.5 78.5 c 128,-1,44
 221 120 221 120 154 191 c 128,-1,45
 87 262 87 262 48.5 357 c 128,-1,46
 10 452 10 452 10 559 c 0,47,48
 10 667 10 667 50 762 c 128,-1,49
 90 857 90 857 158.5 928 c 128,-1,50
 227 999 227 999 318.5 1040 c 128,-1,51
 410 1081 410 1081 514 1081 c 0,52,53
 616 1081 616 1081 707.5 1040 c 128,-1,54
 799 999 799 999 868 928 c 128,-1,55
 937 857 937 857 977.5 762 c 128,-1,56
 1018 667 1018 667 1018 559 c 0,57,58
 1018 347 1018 347 868 193 c 0,39,40
516 967 m 256,59,60
 441 967 441 967 375 935 c 128,-1,61
 309 903 309 903 260.5 848 c 128,-1,62
 212 793 212 793 184 718.5 c 128,-1,63
 156 644 156 644 156 559 c 0,64,65
 156 475 156 475 184 402 c 128,-1,66
 212 329 212 329 260.5 274 c 128,-1,67
 309 219 309 219 375 187.5 c 128,-1,68
 441 156 441 156 516 156 c 0,69,70
 590 156 590 156 655.5 188.5 c 128,-1,71
 721 221 721 221 770.5 276.5 c 128,-1,72
 820 332 820 332 848.5 405.5 c 128,-1,73
 877 479 877 479 877 561 c 256,74,75
 877 643 877 643 849 717 c 128,-1,76
 821 791 821 791 772 846.5 c 128,-1,77
 723 902 723 902 657 934.5 c 128,-1,78
 591 967 591 967 516 967 c 256,59,60
EndSplineSet
EndChar
StartChar: ordfeminine
Encoding: 170 170 106
Width: 1024
Flags: W
LayerCount: 2
Back
Fore
SplineSet
449 985 m 0,0,1
 506 990 506 990 547.5 990.5 c 128,-1,2
 589 991 589 991 621 991 c 1,3,4
 621 1054 621 1054 594 1083 c 128,-1,5
 567 1112 567 1112 516 1112 c 0,6,7
 467 1112 467 1112 423.5 1087 c 128,-1,8
 380 1062 380 1062 334 1010 c 1,9,-1
 221 1143 l 1,10,11
 290 1213 290 1213 364 1244.5 c 128,-1,12
 438 1276 438 1276 528 1276 c 0,13,14
 668 1276 668 1276 746.5 1206.5 c 128,-1,15
 825 1137 825 1137 825 1001 c 2,16,-1
 825 535 l 1,17,-1
 623 535 l 1,18,-1
 623 586 l 1,19,20
 608 570 608 570 587 556.5 c 128,-1,21
 566 543 566 543 542 533.5 c 128,-1,22
 518 524 518 524 493 519 c 128,-1,23
 468 514 468 514 446 514 c 0,24,25
 389 514 389 514 340.5 531 c 128,-1,26
 292 548 292 548 256.5 579 c 128,-1,27
 221 610 221 610 201.5 652 c 128,-1,28
 182 694 182 694 182 745 c 0,29,30
 182 846 182 846 251.5 906.5 c 128,-1,31
 321 967 321 967 449 985 c 0,0,1
627 842 m 1,32,33
 559 842 559 842 513.5 837 c 128,-1,34
 468 832 468 832 441 821 c 128,-1,35
 414 810 414 810 402.5 792 c 128,-1,36
 391 774 391 774 391 748 c 0,37,38
 391 735 391 735 396.5 722 c 128,-1,39
 402 709 402 709 413.5 699 c 128,-1,40
 425 689 425 689 441.5 682.5 c 128,-1,41
 458 676 458 676 479 676 c 0,42,43
 504 676 504 676 530 683 c 128,-1,44
 556 690 556 690 577.5 709 c 128,-1,45
 599 728 599 728 613 760 c 128,-1,46
 627 792 627 792 627 842 c 1,32,33
141 453 m 1,47,-1
 889 453 l 1,48,-1
 889 293 l 1,49,-1
 141 293 l 1,50,-1
 141 453 l 1,47,-1
EndSplineSet
EndChar
StartChar: guillemotleft
Encoding: 171 171 107
Width: 1024
Flags: W
LayerCount: 2
Back
Fore
SplineSet
463 532 m 1,0,-1
 797 856 l 1,1,-1
 930 719 l 1,2,-1
 696 496 l 1,3,-1
 940 231 l 1,4,-1
 805 96 l 1,5,-1
 463 465 l 1,6,-1
 463 532 l 1,0,-1
457 856 m 1,7,-1
 588 719 l 1,8,-1
 356 496 l 1,9,-1
 600 231 l 1,10,-1
 463 96 l 1,11,-1
 121 465 l 1,12,-1
 121 532 l 1,13,-1
 457 856 l 1,7,-1
EndSplineSet
EndChar
StartChar: logicalnot
Encoding: 172 172 108
Width: 1024
Flags: W
LayerCount: 2
Back
Fore
SplineSet
166 750 m 1,0,-1
 868 750 l 1,1,-1
 868 315 l 1,2,-1
 653 315 l 1,3,-1
 653 555 l 1,4,-1
 166 555 l 1,5,-1
 166 750 l 1,0,-1
EndSplineSet
EndChar
StartChar: registered
Encoding: 174 174 110
Width: 1024
Flags: W
LayerCount: 2
Back
Fore
SplineSet
868 193 m 0,0,1
 796 117 796 117 704 77 c 128,-1,2
 612 37 612 37 506 37 c 0,3,4
 402 37 402 37 311.5 78.5 c 128,-1,5
 221 120 221 120 154 191 c 128,-1,6
 87 262 87 262 48.5 357 c 128,-1,7
 10 452 10 452 10 559 c 0,8,9
 10 667 10 667 50 762 c 128,-1,10
 90 857 90 857 158.5 928 c 128,-1,11
 227 999 227 999 318.5 1040 c 128,-1,12
 410 1081 410 1081 514 1081 c 0,13,14
 616 1081 616 1081 707.5 1040 c 128,-1,15
 799 999 799 999 868 928 c 128,-1,16
 937 857 937 857 977.5 762 c 128,-1,17
 1018 667 1018 667 1018 559 c 0,18,19
 1018 347 1018 347 868 193 c 0,0,1
516 967 m 256,20,21
 441 967 441 967 375 935 c 128,-1,22
 309 903 309 903 260.5 848 c 128,-1,23
 212 793 212 793 184 718.5 c 128,-1,24
 156 644 156 644 156 559 c 0,25,26
 156 475 156 475 184 402 c 128,-1,27
 212 329 212 329 260.5 274 c 128,-1,28
 309 219 309 219 375 187.5 c 128,-1,29
 441 156 441 156 516 156 c 0,30,31
 590 156 590 156 655.5 188.5 c 128,-1,32
 721 221 721 221 770.5 276.5 c 128,-1,33
 820 332 820 332 848.5 405.5 c 128,-1,34
 877 479 877 479 877 561 c 256,35,36
 877 643 877 643 849 717 c 128,-1,37
 821 791 821 791 772 846.5 c 128,-1,38
 723 902 723 902 657 934.5 c 128,-1,39
 591 967 591 967 516 967 c 256,20,21
305 281 m 1,40,-1
 305 856 l 1,41,-1
 496 856 l 2,42,43
 565 856 565 856 613.5 843.5 c 128,-1,44
 662 831 662 831 693 808.5 c 128,-1,45
 724 786 724 786 738 754 c 128,-1,46
 752 722 752 722 752 682 c 0,47,48
 752 632 752 632 724.5 590.5 c 128,-1,49
 697 549 697 549 647 526 c 1,50,-1
 766 295 l 1,51,-1
 616 272 l 1,52,-1
 502 504 l 1,53,-1
 446 504 l 1,54,-1
 446 281 l 1,55,-1
 305 281 l 1,40,-1
502 618 m 2,56,57
 551 618 551 618 572.5 634 c 128,-1,58
 594 650 594 650 594 678 c 0,59,60
 594 703 594 703 571 717 c 128,-1,61
 548 731 548 731 496 731 c 2,62,-1
 446 731 l 1,63,-1
 446 618 l 1,64,-1
 502 618 l 2,56,57
EndSplineSet
EndChar
StartChar: macron
Encoding: 175 175 111
Width: 1024
Flags: W
LayerCount: 2
Back
Fore
SplineSet
221 1315 m 1,0,-1
 795 1315 l 1,1,-1
 795 1135 l 1,2,-1
 221 1135 l 1,3,-1
 221 1315 l 1,0,-1
EndSplineSet
EndChar
StartChar: degree
Encoding: 176 176 112
Width: 1024
Flags: W
LayerCount: 2
Back
Fore
SplineSet
524 1364 m 0,0,1
 587 1364 587 1364 642 1340.5 c 128,-1,2
 697 1317 697 1317 737.5 1277 c 128,-1,3
 778 1237 778 1237 801.5 1184 c 128,-1,4
 825 1131 825 1131 825 1073 c 256,5,6
 825 1015 825 1015 801.5 962 c 128,-1,7
 778 909 778 909 737.5 869 c 128,-1,8
 697 829 697 829 642 805.5 c 128,-1,9
 587 782 587 782 524 782 c 256,10,11
 461 782 461 782 406 804.5 c 128,-1,12
 351 827 351 827 310.5 866.5 c 128,-1,13
 270 906 270 906 246.5 959 c 128,-1,14
 223 1012 223 1012 223 1073 c 256,15,16
 223 1134 223 1134 247.5 1187.5 c 128,-1,17
 272 1241 272 1241 313.5 1280 c 128,-1,18
 355 1319 355 1319 409.5 1341.5 c 128,-1,19
 464 1364 464 1364 524 1364 c 0,0,1
418 1075 m 256,20,21
 418 1019 418 1019 447 983.5 c 128,-1,22
 476 948 476 948 524 948 c 256,23,24
 572 948 572 948 602.5 983.5 c 128,-1,25
 633 1019 633 1019 633 1075 c 0,26,27
 633 1103 633 1103 625 1126.5 c 128,-1,28
 617 1150 617 1150 602.5 1167 c 128,-1,29
 588 1184 588 1184 568 1194 c 128,-1,30
 548 1204 548 1204 524 1204 c 0,31,32
 476 1204 476 1204 447 1167.5 c 128,-1,33
 418 1131 418 1131 418 1075 c 256,20,21
EndSplineSet
EndChar
StartChar: plusminus
Encoding: 177 177 113
Width: 1024
Flags: W
LayerCount: 2
Back
Fore
SplineSet
80 225 m 1,0,-1
 948 225 l 1,1,-1
 948 33 l 1,2,-1
 80 33 l 1,3,-1
 80 225 l 1,0,-1
412 1180 m 1,4,-1
 625 1180 l 1,5,-1
 625 856 l 1,6,-1
 946 856 l 1,7,-1
 946 666 l 1,8,-1
 625 666 l 1,9,-1
 625 313 l 1,10,-1
 412 313 l 1,11,-1
 412 666 l 1,12,-1
 78 666 l 1,13,-1
 78 856 l 1,14,-1
 412 856 l 1,15,-1
 412 1180 l 1,4,-1
EndSplineSet
EndChar
StartChar: uni00B2
Encoding: 178 178 114
Width: 1024
Flags: W
LayerCount: 2
Back
Fore
SplineSet
193 1130 m 1,0,1
 250 1228 250 1228 338 1282.5 c 128,-1,2
 426 1337 426 1337 539 1337 c 0,3,4
 595 1337 595 1337 647 1318.5 c 128,-1,5
 699 1300 699 1300 739 1266.5 c 128,-1,6
 779 1233 779 1233 803 1186 c 128,-1,7
 827 1139 827 1139 827 1083 c 0,8,9
 827 1042 827 1042 816.5 1010 c 128,-1,10
 806 978 806 978 779.5 946 c 128,-1,11
 753 914 753 914 708.5 877.5 c 128,-1,12
 664 841 664 841 596 791 c 0,13,14
 574 774 574 774 563 766 c 128,-1,15
 552 758 552 758 544 752.5 c 128,-1,16
 536 747 536 747 528 739.5 c 128,-1,17
 520 732 520 732 504 715 c 1,18,-1
 770 715 l 2,19,20
 780 716 780 716 787.5 721 c 128,-1,21
 795 726 795 726 802.5 730.5 c 128,-1,22
 810 735 810 735 819 739 c 128,-1,23
 828 743 828 743 842 743 c 1,24,-1
 842 539 l 1,25,-1
 221 539 l 1,26,-1
 221 668 l 1,27,28
 275 741 275 741 339 804 c 128,-1,29
 403 867 403 867 487 930 c 2,30,-1
 541 971 l 2,31,32
 581 1002 581 1002 599.5 1032.5 c 128,-1,33
 618 1063 618 1063 618 1087 c 0,34,35
 618 1118 618 1118 593.5 1141.5 c 128,-1,36
 569 1165 569 1165 530 1165 c 0,37,38
 482 1165 482 1165 441.5 1142.5 c 128,-1,39
 401 1120 401 1120 381 1075 c 0,40,41
 375 1061 375 1061 372 1048.5 c 128,-1,42
 369 1036 369 1036 358 1022 c 1,43,-1
 193 1130 l 1,0,1
EndSplineSet
EndChar
StartChar: uni00B3
Encoding: 179 179 115
Width: 1024
Flags: W
LayerCount: 2
Back
Fore
SplineSet
508 1337 m 0,0,1
 569 1337 569 1337 622.5 1318 c 128,-1,2
 676 1299 676 1299 716 1266.5 c 128,-1,3
 756 1234 756 1234 778.5 1190.5 c 128,-1,4
 801 1147 801 1147 801 1098 c 0,5,6
 801 1076 801 1076 794.5 1055.5 c 128,-1,7
 788 1035 788 1035 776.5 1016.5 c 128,-1,8
 765 998 765 998 750 983 c 128,-1,9
 735 968 735 968 717 958 c 1,10,11
 740 947 740 947 761 930 c 128,-1,12
 782 913 782 913 798.5 890.5 c 128,-1,13
 815 868 815 868 824.5 842 c 128,-1,14
 834 816 834 816 834 788 c 0,15,16
 834 736 834 736 806.5 690 c 128,-1,17
 779 644 779 644 733 609.5 c 128,-1,18
 687 575 687 575 627 555 c 128,-1,19
 567 535 567 535 502 535 c 0,20,21
 317 535 317 535 176 694 c 1,22,-1
 326 864 l 1,23,24
 338 850 338 850 345 833.5 c 128,-1,25
 352 817 352 817 360 799 c 0,26,27
 369 783 369 783 382.5 768 c 128,-1,28
 396 753 396 753 412.5 741 c 128,-1,29
 429 729 429 729 448.5 722 c 128,-1,30
 468 715 468 715 489 715 c 0,31,32
 549 715 549 715 586 739.5 c 128,-1,33
 623 764 623 764 623 799 c 0,34,35
 623 831 623 831 591.5 848.5 c 128,-1,36
 560 866 560 866 504 866 c 0,37,38
 498 866 498 866 492.5 866 c 128,-1,39
 487 866 487 866 476 865.5 c 128,-1,40
 465 865 465 865 447 864 c 128,-1,41
 429 863 429 863 399 862 c 1,42,-1
 399 1040 l 1,43,44
 424 1037 424 1037 439 1035.5 c 128,-1,45
 454 1034 454 1034 463 1033 c 128,-1,46
 472 1032 472 1032 476.5 1032 c 128,-1,47
 481 1032 481 1032 485 1032 c 0,48,49
 544 1032 544 1032 569 1049 c 128,-1,50
 594 1066 594 1066 594 1092 c 0,51,52
 594 1105 594 1105 587 1117.5 c 128,-1,53
 580 1130 580 1130 568 1140 c 128,-1,54
 556 1150 556 1150 539 1156.5 c 128,-1,55
 522 1163 522 1163 502 1163 c 0,56,57
 419 1163 419 1163 328 1051 c 1,58,-1
 199 1182 l 1,59,60
 330 1337 330 1337 508 1337 c 0,0,1
EndSplineSet
EndChar
StartChar: acute
Encoding: 180 180 116
Width: 1024
Flags: W
LayerCount: 2
Back
Fore
SplineSet
571 1462 m 1,0,-1
 737 1348 l 1,1,-1
 522 1059 l 1,2,-1
 408 1126 l 1,3,-1
 571 1462 l 1,0,-1
EndSplineSet
EndChar
StartChar: micro
Encoding: 181 181 117
Width: 1024
Flags: W
LayerCount: 2
Back
Fore
SplineSet
770 256 m 2,0,1
 770 164 770 164 797 164 c 0,2,3
 809 164 809 164 823.5 180 c 128,-1,4
 838 196 838 196 846 213 c 2,5,-1
 899 315 l 1,6,-1
 1004 121 l 1,7,8
 906 -18 906 -18 786 -18 c 0,9,10
 732 -18 732 -18 689.5 4.5 c 128,-1,11
 647 27 647 27 621 68 c 1,12,13
 576 26 576 26 517 4 c 128,-1,14
 458 -18 458 -18 399 -18 c 0,15,16
 354 -18 354 -18 310.5 -6 c 128,-1,17
 267 6 267 6 231 29 c 1,18,-1
 231 -315 l 1,19,-1
 20 -315 l 1,20,21
 20 -296 20 -296 21 -257.5 c 128,-1,22
 22 -219 22 -219 24.5 -170 c 128,-1,23
 27 -121 27 -121 30 -67 c 128,-1,24
 33 -13 33 -13 37 37 c 0,25,26
 40 93 40 93 43.5 149.5 c 128,-1,27
 47 206 47 206 50 256.5 c 128,-1,28
 53 307 53 307 55 349 c 128,-1,29
 57 391 57 391 57 418 c 2,30,-1
 57 936 l 1,31,-1
 276 936 l 1,32,-1
 276 387 l 2,33,34
 276 319 276 319 287.5 276 c 128,-1,35
 299 233 299 233 318 207 c 128,-1,36
 337 181 337 181 362 170 c 128,-1,37
 387 159 387 159 414 156 c 1,38,39
 440 161 440 161 465 176 c 128,-1,40
 490 191 490 191 510 218 c 128,-1,41
 530 245 530 245 542.5 285.5 c 128,-1,42
 555 326 555 326 555 383 c 2,43,-1
 555 936 l 1,44,-1
 770 936 l 1,45,-1
 770 256 l 2,0,1
EndSplineSet
EndChar
StartChar: paragraph
Encoding: 182 182 118
Width: 1024
Flags: W
LayerCount: 2
Back
Fore
SplineSet
930 1364 m 1,0,-1
 930 -141 l 1,1,-1
 727 -141 l 1,2,-1
 727 1182 l 1,3,-1
 647 1182 l 1,4,-1
 647 -141 l 1,5,-1
 442 -141 l 1,6,-1
 442 649 l 1,7,8
 369 660 369 660 307 692.5 c 128,-1,9
 245 725 245 725 200 773 c 128,-1,10
 155 821 155 821 129.5 881.5 c 128,-1,11
 104 942 104 942 104 1008 c 0,12,13
 104 1081 104 1081 130 1145.5 c 128,-1,14
 156 1210 156 1210 216 1258.5 c 128,-1,15
 276 1307 276 1307 374 1335.5 c 128,-1,16
 472 1364 472 1364 616 1364 c 2,17,-1
 930 1364 l 1,0,-1
EndSplineSet
EndChar
StartChar: periodcentered
Encoding: 183 183 119
Width: 1024
Flags: W
LayerCount: 2
Back
Fore
SplineSet
487 827 m 0,0,1
 518 827 518 827 547.5 814.5 c 128,-1,2
 577 802 577 802 599.5 782 c 128,-1,3
 622 762 622 762 635.5 736 c 128,-1,4
 649 710 649 710 649 682 c 0,5,6
 649 652 649 652 636.5 625.5 c 128,-1,7
 624 599 624 599 602 579.5 c 128,-1,8
 580 560 580 560 550.5 548.5 c 128,-1,9
 521 537 521 537 487 537 c 0,10,11
 454 537 454 537 425.5 548 c 128,-1,12
 397 559 397 559 375.5 578.5 c 128,-1,13
 354 598 354 598 342 624.5 c 128,-1,14
 330 651 330 651 330 682 c 0,15,16
 330 712 330 712 343 738.5 c 128,-1,17
 356 765 356 765 378 784.5 c 128,-1,18
 400 804 400 804 428.5 815.5 c 128,-1,19
 457 827 457 827 487 827 c 0,0,1
EndSplineSet
EndChar
StartChar: cedilla
Encoding: 184 184 120
Width: 1024
Flags: W
LayerCount: 2
Back
Fore
SplineSet
629 -215 m 256,0,1
 629 -204 629 -204 615 -193 c 128,-1,2
 601 -182 601 -182 575 -182 c 2,3,-1
 475 -182 l 1,4,-1
 500 0 l 1,5,-1
 664 0 l 1,6,-1
 655 -63 l 1,7,8
 733 -71 733 -71 774 -110 c 128,-1,9
 815 -149 815 -149 815 -209 c 0,10,11
 815 -241 815 -241 799 -273.5 c 128,-1,12
 783 -306 783 -306 750.5 -331.5 c 128,-1,13
 718 -357 718 -357 669 -373 c 128,-1,14
 620 -389 620 -389 553 -389 c 0,15,16
 488 -389 488 -389 422.5 -367.5 c 128,-1,17
 357 -346 357 -346 295 -295 c 1,18,-1
 371 -166 l 1,19,20
 401 -191 401 -191 427 -207.5 c 128,-1,21
 453 -224 453 -224 478 -233.5 c 128,-1,22
 503 -243 503 -243 527.5 -246.5 c 128,-1,23
 552 -250 552 -250 578 -250 c 0,24,25
 607 -250 607 -250 618 -238 c 128,-1,26
 629 -226 629 -226 629 -215 c 256,0,1
EndSplineSet
EndChar
StartChar: uni00B9
Encoding: 185 185 121
Width: 1024
Flags: W
LayerCount: 2
Back
Fore
SplineSet
627 1329 m 1,0,-1
 627 539 l 1,1,-1
 412 539 l 1,2,-1
 412 1090 l 1,3,-1
 250 1049 l 1,4,-1
 190 1167 l 1,5,-1
 481 1329 l 1,6,-1
 627 1329 l 1,0,-1
EndSplineSet
EndChar
StartChar: ordmasculine
Encoding: 186 186 122
Width: 1024
Flags: W
LayerCount: 2
Back
Fore
SplineSet
174 915 m 0,0,1
 174 1003 174 1003 201.5 1075.5 c 128,-1,2
 229 1148 229 1148 275.5 1200 c 128,-1,3
 322 1252 322 1252 383 1280.5 c 128,-1,4
 444 1309 444 1309 510 1309 c 0,5,6
 578 1309 578 1309 637.5 1284 c 128,-1,7
 697 1259 697 1259 741 1211 c 128,-1,8
 785 1163 785 1163 810.5 1092 c 128,-1,9
 836 1021 836 1021 836 930 c 0,10,11
 836 838 836 838 808.5 766.5 c 128,-1,12
 781 695 781 695 735 645 c 128,-1,13
 689 595 689 595 628.5 569 c 128,-1,14
 568 543 568 543 502 543 c 0,15,16
 433 543 433 543 373.5 570 c 128,-1,17
 314 597 314 597 269.5 646 c 128,-1,18
 225 695 225 695 199.5 763.5 c 128,-1,19
 174 832 174 832 174 915 c 0,0,1
506 1126 m 0,20,21
 480 1126 480 1126 457.5 1112.5 c 128,-1,22
 435 1099 435 1099 418 1073 c 128,-1,23
 401 1047 401 1047 391 1009.5 c 128,-1,24
 381 972 381 972 381 924 c 0,25,26
 381 877 381 877 391 840.5 c 128,-1,27
 401 804 401 804 418 779.5 c 128,-1,28
 435 755 435 755 457 742 c 128,-1,29
 479 729 479 729 504 729 c 256,30,31
 529 729 529 729 551.5 741.5 c 128,-1,32
 574 754 574 754 591.5 778.5 c 128,-1,33
 609 803 609 803 619 839 c 128,-1,34
 629 875 629 875 629 922 c 0,35,36
 629 970 629 970 619 1008 c 128,-1,37
 609 1046 609 1046 592 1072.5 c 128,-1,38
 575 1099 575 1099 552.5 1112.5 c 128,-1,39
 530 1126 530 1126 506 1126 c 0,20,21
137 483 m 1,40,-1
 889 483 l 1,41,-1
 889 307 l 1,42,-1
 137 307 l 1,43,-1
 137 483 l 1,40,-1
EndSplineSet
EndChar
StartChar: guillemotright
Encoding: 187 187 123
Width: 1024
Flags: W
LayerCount: 2
Back
Fore
SplineSet
598 465 m 1,0,-1
 256 96 l 1,1,-1
 121 231 l 1,2,-1
 365 496 l 1,3,-1
 131 719 l 1,4,-1
 264 856 l 1,5,-1
 598 532 l 1,6,-1
 598 465 l 1,0,-1
940 465 m 1,7,-1
 598 96 l 1,8,-1
 461 231 l 1,9,-1
 705 496 l 1,10,-1
 473 719 l 1,11,-1
 604 856 l 1,12,-1
 940 532 l 1,13,-1
 940 465 l 1,7,-1
EndSplineSet
EndChar
StartChar: onequarter
Encoding: 188 188 124
Width: 1024
Flags: W
LayerCount: 2
Back
Fore
SplineSet
782 514 m 1,0,-1
 911 514 l 1,1,-1
 911 135 l 1,2,-1
 1008 135 l 1,3,-1
 1008 8 l 1,4,-1
 911 8 l 1,5,-1
 911 -143 l 1,6,-1
 735 -143 l 1,7,-1
 735 8 l 1,8,-1
 457 8 l 1,9,-1
 457 100 l 1,10,-1
 782 514 l 1,0,-1
737 258 m 1,11,-1
 637 131 l 1,12,-1
 737 131 l 1,13,-1
 737 258 l 1,11,-1
365 1386 m 1,14,-1
 365 748 l 1,15,-1
 180 748 l 1,16,-1
 180 1198 l 1,17,-1
 47 1163 l 1,18,-1
 0 1257 l 1,19,-1
 240 1386 l 1,20,-1
 365 1386 l 1,14,-1
113 -10 m 1,21,-1
 748 1366 l 1,22,-1
 926 1274 l 1,23,-1
 293 -96 l 1,24,-1
 113 -10 l 1,21,-1
EndSplineSet
EndChar
StartChar: onehalf
Encoding: 189 189 125
Width: 1024
Flags: W
LayerCount: 2
Back
Fore
SplineSet
500 336 m 1,0,1
 550 415 550 415 617 458.5 c 128,-1,2
 684 502 684 502 782 502 c 0,3,4
 830 502 830 502 871 485 c 128,-1,5
 912 468 912 468 942.5 439 c 128,-1,6
 973 410 973 410 990.5 372.5 c 128,-1,7
 1008 335 1008 335 1008 295 c 0,8,9
 1008 261 1008 261 1000 235 c 128,-1,10
 992 209 992 209 971 182.5 c 128,-1,11
 950 156 950 156 913.5 126.5 c 128,-1,12
 877 97 877 97 821 57 c 0,13,14
 800 42 800 42 780 25.5 c 128,-1,15
 760 9 760 9 743 -6 c 1,16,-1
 967 -6 l 2,17,18
 980 -3 980 -3 991 7.5 c 128,-1,19
 1002 18 1002 18 1022 18 c 1,20,-1
 1022 -150 l 1,21,-1
 514 -150 l 1,22,-1
 514 -45 l 1,23,24
 556 4 556 4 614 59.5 c 128,-1,25
 672 115 672 115 731 168 c 0,26,27
 746 182 746 182 763.5 196.5 c 128,-1,28
 781 211 781 211 795.5 226 c 128,-1,29
 810 241 810 241 819.5 257 c 128,-1,30
 829 273 829 273 829 289 c 0,31,32
 829 324 829 324 802.5 344.5 c 128,-1,33
 776 365 776 365 741 365 c 0,34,35
 707 365 707 365 685.5 346 c 128,-1,36
 664 327 664 327 653 293 c 0,37,38
 650 284 650 284 647 272 c 128,-1,39
 644 260 644 260 635 248 c 1,40,-1
 500 336 l 1,0,1
365 1386 m 1,41,-1
 365 748 l 1,42,-1
 180 748 l 1,43,-1
 180 1198 l 1,44,-1
 47 1163 l 1,45,-1
 0 1257 l 1,46,-1
 240 1386 l 1,47,-1
 365 1386 l 1,41,-1
90 -10 m 1,48,-1
 725 1366 l 1,49,-1
 903 1274 l 1,50,-1
 270 -96 l 1,51,-1
 90 -10 l 1,48,-1
EndSplineSet
EndChar
StartChar: threequarters
Encoding: 190 190 126
Width: 1024
Flags: W
LayerCount: 2
Back
Fore
SplineSet
264 1409 m 0,0,1
 314 1409 314 1409 357.5 1393.5 c 128,-1,2
 401 1378 401 1378 433 1351.5 c 128,-1,3
 465 1325 465 1325 483.5 1289.5 c 128,-1,4
 502 1254 502 1254 502 1214 c 0,5,6
 502 1198 502 1198 496.5 1181 c 128,-1,7
 491 1164 491 1164 481 1148.5 c 128,-1,8
 471 1133 471 1133 457.5 1120 c 128,-1,9
 444 1107 444 1107 428 1100 c 1,10,11
 470 1078 470 1078 499 1041.5 c 128,-1,12
 528 1005 528 1005 528 963 c 0,13,14
 528 917 528 917 506 879 c 128,-1,15
 484 841 484 841 446.5 813.5 c 128,-1,16
 409 786 409 786 360.5 771 c 128,-1,17
 312 756 312 756 258 756 c 0,18,19
 183 756 183 756 121 788 c 128,-1,20
 59 820 59 820 0 885 c 1,21,-1
 117 1014 l 1,22,23
 132 1001 132 1001 137.5 986.5 c 128,-1,24
 143 972 143 972 150 958 c 0,25,26
 154 949 154 949 164 938.5 c 128,-1,27
 174 928 174 928 188 919.5 c 128,-1,28
 202 911 202 911 220.5 905 c 128,-1,29
 239 899 239 899 260 899 c 0,30,31
 300 899 300 899 329 914 c 128,-1,32
 358 929 358 929 358 963 c 0,33,34
 358 995 358 995 335.5 1010.5 c 128,-1,35
 313 1026 313 1026 260 1026 c 0,36,37
 255 1026 255 1026 251 1026 c 128,-1,38
 247 1026 247 1026 239.5 1025.5 c 128,-1,39
 232 1025 232 1025 218.5 1023.5 c 128,-1,40
 205 1022 205 1022 182 1020 c 1,41,-1
 182 1171 l 1,42,43
 201 1163 201 1163 215.5 1160 c 128,-1,44
 230 1157 230 1157 256 1157 c 0,45,46
 298 1157 298 1157 316 1172.5 c 128,-1,47
 334 1188 334 1188 334 1206 c 0,48,49
 334 1229 334 1229 313.5 1249.5 c 128,-1,50
 293 1270 293 1270 258 1270 c 0,51,52
 224 1270 224 1270 189.5 1250 c 128,-1,53
 155 1230 155 1230 117 1182 c 1,54,-1
 23 1284 l 1,55,56
 74 1346 74 1346 133 1377.5 c 128,-1,57
 192 1409 192 1409 264 1409 c 0,0,1
784 514 m 1,58,-1
 913 514 l 1,59,-1
 913 135 l 1,60,-1
 1010 135 l 1,61,-1
 1010 8 l 1,62,-1
 913 8 l 1,63,-1
 913 -143 l 1,64,-1
 737 -143 l 1,65,-1
 737 8 l 1,66,-1
 459 8 l 1,67,-1
 459 100 l 1,68,-1
 784 514 l 1,58,-1
739 258 m 1,69,-1
 639 131 l 1,70,-1
 739 131 l 1,71,-1
 739 258 l 1,69,-1
131 -10 m 1,72,-1
 766 1366 l 1,73,-1
 944 1274 l 1,74,-1
 311 -96 l 1,75,-1
 131 -10 l 1,72,-1
EndSplineSet
EndChar
StartChar: questiondown
Encoding: 191 191 127
Width: 1024
Flags: W
LayerCount: 2
Back
Fore
SplineSet
381 1139 m 0,0,1
 358 1165 358 1165 346 1189 c 128,-1,2
 334 1213 334 1213 334 1239 c 0,3,4
 334 1267 334 1267 346 1291.5 c 128,-1,5
 358 1316 358 1316 378.5 1335 c 128,-1,6
 399 1354 399 1354 426.5 1365 c 128,-1,7
 454 1376 454 1376 485 1376 c 256,8,9
 516 1376 516 1376 544 1365 c 128,-1,10
 572 1354 572 1354 593 1335 c 128,-1,11
 614 1316 614 1316 626.5 1291.5 c 128,-1,12
 639 1267 639 1267 639 1239 c 0,13,14
 639 1210 639 1210 626.5 1184.5 c 128,-1,15
 614 1159 614 1159 593 1140 c 128,-1,16
 572 1121 572 1121 544 1109.5 c 128,-1,17
 516 1098 516 1098 485 1098 c 0,18,19
 458 1098 458 1098 431 1108.5 c 128,-1,20
 404 1119 404 1119 381 1139 c 0,0,1
911 205 m 1,21,22
 875 150 875 150 829 106.5 c 128,-1,23
 783 63 783 63 730 32.5 c 128,-1,24
 677 2 677 2 617.5 -14.5 c 128,-1,25
 558 -31 558 -31 494 -31 c 0,26,27
 405 -31 405 -31 334.5 -1.5 c 128,-1,28
 264 28 264 28 215 79 c 128,-1,29
 166 130 166 130 139.5 197.5 c 128,-1,30
 113 265 113 265 113 340 c 0,31,32
 113 407 113 407 132 458 c 128,-1,33
 151 509 151 509 181 548 c 128,-1,34
 211 587 211 587 248.5 617.5 c 128,-1,35
 286 648 286 648 322 676 c 0,36,37
 345 694 345 694 358.5 713 c 128,-1,38
 372 732 372 732 378.5 754 c 128,-1,39
 385 776 385 776 387 800.5 c 128,-1,40
 389 825 389 825 389 854 c 2,41,-1
 389 965 l 1,42,-1
 592 965 l 1,43,-1
 592 854 l 2,44,45
 592 811 592 811 589 775.5 c 128,-1,46
 586 740 586 740 572.5 705 c 128,-1,47
 559 670 559 670 531 631.5 c 128,-1,48
 503 593 503 593 453 543 c 0,49,50
 391 481 391 481 366.5 430 c 128,-1,51
 342 379 342 379 342 330 c 0,52,53
 342 293 342 293 354 260.5 c 128,-1,54
 366 228 366 228 387.5 204 c 128,-1,55
 409 180 409 180 438 166 c 128,-1,56
 467 152 467 152 502 152 c 0,57,58
 539 152 539 152 574 166 c 128,-1,59
 609 180 609 180 641 206 c 128,-1,60
 673 232 673 232 702.5 268.5 c 128,-1,61
 732 305 732 305 758 350 c 1,62,-1
 911 205 l 1,21,22
EndSplineSet
EndChar
StartChar: Aring
Encoding: 197 197 133
Width: 1024
Flags: W
LayerCount: 2
Back
Fore
SplineSet
489 1661 m 0,0,1
 533 1661 533 1661 572 1645 c 128,-1,2
 611 1629 611 1629 640.5 1601 c 128,-1,3
 670 1573 670 1573 687.5 1536.5 c 128,-1,4
 705 1500 705 1500 705 1458 c 0,5,6
 705 1426 705 1426 694.5 1396.5 c 128,-1,7
 684 1367 684 1367 666 1342 c 128,-1,8
 648 1317 648 1317 623 1298 c 128,-1,9
 598 1279 598 1279 569 1268 c 1,10,-1
 1026 0 l 1,11,-1
 786 0 l 1,12,-1
 670 330 l 1,13,-1
 336 330 l 1,14,-1
 236 0 l 1,15,-1
 0 0 l 1,16,-1
 416 1266 l 1,17,18
 386 1277 386 1277 361 1296 c 128,-1,19
 336 1315 336 1315 317.5 1340 c 128,-1,20
 299 1365 299 1365 289 1395 c 128,-1,21
 279 1425 279 1425 279 1458 c 0,22,23
 279 1500 279 1500 296 1536.5 c 128,-1,24
 313 1573 313 1573 341.5 1601 c 128,-1,25
 370 1629 370 1629 408 1645 c 128,-1,26
 446 1661 446 1661 489 1661 c 0,0,1
629 489 m 1,27,-1
 496 899 l 1,28,-1
 371 489 l 1,29,-1
 629 489 l 1,27,-1
426 1460 m 256,30,31
 426 1428 426 1428 445 1406 c 128,-1,32
 464 1384 464 1384 492 1384 c 0,33,34
 519 1384 519 1384 538 1406 c 128,-1,35
 557 1428 557 1428 557 1460 c 256,36,37
 557 1492 557 1492 538 1515 c 128,-1,38
 519 1538 519 1538 492 1538 c 0,39,40
 464 1538 464 1538 445 1515 c 128,-1,41
 426 1492 426 1492 426 1460 c 256,30,31
EndSplineSet
EndChar
StartChar: AE
Encoding: 198 198 134
Width: 1024
Flags: W
LayerCount: 2
Back
Fore
SplineSet
389 1276 m 1,0,-1
 1016 1276 l 1,1,-1
 1016 1081 l 1,2,-1
 694 1081 l 1,3,-1
 694 764 l 1,4,-1
 965 764 l 1,5,-1
 965 563 l 1,6,-1
 694 563 l 1,7,-1
 694 197 l 1,8,-1
 1012 197 l 1,9,-1
 1012 0 l 1,10,-1
 481 0 l 1,11,-1
 481 326 l 1,12,-1
 307 326 l 1,13,-1
 217 0 l 1,14,-1
 -4 0 l 1,15,-1
 389 1276 l 1,0,-1
483 967 m 1,16,-1
 358 514 l 1,17,-1
 483 514 l 1,18,-1
 483 967 l 1,16,-1
EndSplineSet
EndChar
StartChar: Ccedilla
Encoding: 199 199 135
Width: 1024
Flags: W
LayerCount: 2
Back
Fore
SplineSet
629 -215 m 256,0,1
 629 -204 629 -204 615 -193 c 128,-1,2
 601 -182 601 -182 575 -182 c 2,3,-1
 475 -182 l 1,4,-1
 496 -31 l 1,5,6
 400 -16 400 -16 319.5 31.5 c 128,-1,7
 239 79 239 79 181.5 161.5 c 128,-1,8
 124 244 124 244 91.5 361 c 128,-1,9
 59 478 59 478 59 631 c 0,10,11
 59 756 59 756 80.5 855.5 c 128,-1,12
 102 955 102 955 139.5 1030 c 128,-1,13
 177 1105 177 1105 227 1158 c 128,-1,14
 277 1211 277 1211 333.5 1244.5 c 128,-1,15
 390 1278 390 1278 450 1293.5 c 128,-1,16
 510 1309 510 1309 567 1309 c 0,17,18
 639 1309 639 1309 705 1288 c 128,-1,19
 771 1267 771 1267 826.5 1228.5 c 128,-1,20
 882 1190 882 1190 925.5 1136.5 c 128,-1,21
 969 1083 969 1083 997 1018 c 1,22,-1
 791 915 l 1,23,24
 782 918 782 918 779 924 c 128,-1,25
 776 930 776 930 775.5 938.5 c 128,-1,26
 775 947 775 947 774 958 c 128,-1,27
 773 969 773 969 768 981 c 0,28,29
 739 1047 739 1047 690 1084.5 c 128,-1,30
 641 1122 641 1122 565 1122 c 0,31,32
 504 1122 504 1122 454.5 1087.5 c 128,-1,33
 405 1053 405 1053 370 990 c 128,-1,34
 335 927 335 927 316 838 c 128,-1,35
 297 749 297 749 297 641 c 0,36,37
 297 536 297 536 317.5 447.5 c 128,-1,38
 338 359 338 359 375 294 c 128,-1,39
 412 229 412 229 464 192.5 c 128,-1,40
 516 156 516 156 578 156 c 0,41,42
 652 156 652 156 708 201.5 c 128,-1,43
 764 247 764 247 809 326 c 1,44,-1
 983 213 l 1,45,46
 921 108 921 108 838.5 48 c 128,-1,47
 756 -12 756 -12 659 -29 c 1,48,-1
 655 -63 l 1,49,50
 733 -71 733 -71 774 -110 c 128,-1,51
 815 -149 815 -149 815 -209 c 0,52,53
 815 -241 815 -241 799 -273.5 c 128,-1,54
 783 -306 783 -306 750.5 -331.5 c 128,-1,55
 718 -357 718 -357 669 -373 c 128,-1,56
 620 -389 620 -389 553 -389 c 0,57,58
 488 -389 488 -389 422.5 -367.5 c 128,-1,59
 357 -346 357 -346 295 -295 c 1,60,-1
 371 -166 l 1,61,62
 401 -191 401 -191 427 -207.5 c 128,-1,63
 453 -224 453 -224 478 -233.5 c 128,-1,64
 503 -243 503 -243 527.5 -246.5 c 128,-1,65
 552 -250 552 -250 578 -250 c 0,66,67
 607 -250 607 -250 618 -238 c 128,-1,68
 629 -226 629 -226 629 -215 c 256,0,1
EndSplineSet
EndChar
StartChar: Eth
Encoding: 208 208 144
Width: 1024
Flags: W
LayerCount: 2
Back
Fore
SplineSet
90 580 m 1,0,-1
 10 580 l 1,1,-1
 10 768 l 1,2,-1
 90 768 l 1,3,-1
 90 1276 l 1,4,-1
 420 1276 l 2,5,6
 505 1276 505 1276 570 1264 c 128,-1,7
 635 1252 635 1252 685 1229.5 c 128,-1,8
 735 1207 735 1207 773.5 1174 c 128,-1,9
 812 1141 812 1141 844 1098 c 0,10,11
 909 1010 909 1010 942 892.5 c 128,-1,12
 975 775 975 775 975 629 c 0,13,14
 975 484 975 484 942.5 367.5 c 128,-1,15
 910 251 910 251 839.5 169.5 c 128,-1,16
 769 88 769 88 659 44 c 128,-1,17
 549 0 549 0 395 0 c 2,18,-1
 90 0 l 1,19,-1
 90 580 l 1,0,-1
313 1085 m 1,20,-1
 313 768 l 1,21,-1
 506 768 l 1,22,-1
 506 580 l 1,23,-1
 313 580 l 1,24,-1
 313 180 l 1,25,-1
 391 180 l 2,26,27
 572 180 572 180 658.5 294.5 c 128,-1,28
 745 409 745 409 745 623 c 0,29,30
 745 731 745 731 726.5 816.5 c 128,-1,31
 708 902 708 902 667.5 962 c 128,-1,32
 627 1022 627 1022 564 1053.5 c 128,-1,33
 501 1085 501 1085 412 1085 c 2,34,-1
 313 1085 l 1,20,-1
EndSplineSet
EndChar
StartChar: multiply
Encoding: 215 215 151
Width: 1024
Flags: W
LayerCount: 2
Back
Fore
SplineSet
758 1083 m 1,0,-1
 911 944 l 1,1,-1
 668 690 l 1,2,-1
 905 438 l 1,3,-1
 758 289 l 1,4,-1
 520 541 l 1,5,-1
 285 299 l 1,6,-1
 141 442 l 1,7,-1
 379 688 l 1,8,-1
 141 940 l 1,9,-1
 291 1085 l 1,10,-1
 524 840 l 1,11,-1
 758 1083 l 1,0,-1
EndSplineSet
EndChar
StartChar: Oslash
Encoding: 216 216 152
Width: 1024
Flags: W
LayerCount: 2
Back
Fore
SplineSet
514 -37 m 256,0,1
 455 -37 455 -37 403.5 -22.5 c 128,-1,2
 352 -8 352 -8 305 16 c 1,3,-1
 221 -141 l 1,4,-1
 41 -47 l 1,5,-1
 154 166 l 1,6,7
 95 256 95 256 65 377 c 128,-1,8
 35 498 35 498 35 641 c 0,9,10
 35 789 35 789 68.5 912 c 128,-1,11
 102 1035 102 1035 164.5 1123 c 128,-1,12
 227 1211 227 1211 316 1260 c 128,-1,13
 405 1309 405 1309 516 1309 c 0,14,15
 573 1309 573 1309 626.5 1293.5 c 128,-1,16
 680 1278 680 1278 729 1249 c 1,17,-1
 807 1397 l 1,18,-1
 995 1300 l 1,19,-1
 883 1092 l 1,20,21
 932 1010 932 1010 960.5 897 c 128,-1,22
 989 784 989 784 989 639 c 0,23,24
 989 516 989 516 970 418 c 128,-1,25
 951 320 951 320 918 245 c 128,-1,26
 885 170 885 170 840 116.5 c 128,-1,27
 795 63 795 63 742 29 c 128,-1,28
 689 -5 689 -5 631 -21 c 128,-1,29
 573 -37 573 -37 514 -37 c 256,0,1
627 1059 m 1,30,31
 576 1104 576 1104 518 1104 c 0,32,33
 469 1104 469 1104 424.5 1082 c 128,-1,34
 380 1060 380 1060 346 1008 c 128,-1,35
 312 956 312 956 292 869.5 c 128,-1,36
 272 783 272 783 272 653 c 0,37,38
 272 588 272 588 278 533 c 128,-1,39
 284 478 284 478 293 430 c 1,40,-1
 627 1059 l 1,30,31
737 819 m 1,41,-1
 410 209 l 1,42,43
 433 190 433 190 460 181 c 128,-1,44
 487 172 487 172 516 172 c 0,45,46
 562 172 562 172 604.5 195 c 128,-1,47
 647 218 647 218 679 273 c 128,-1,48
 711 328 711 328 730.5 418.5 c 128,-1,49
 750 509 750 509 750 643 c 0,50,51
 750 693 750 693 746.5 737 c 128,-1,52
 743 781 743 781 737 819 c 1,41,-1
EndSplineSet
EndChar
StartChar: Thorn
Encoding: 222 222 158
Width: 1024
Flags: W
LayerCount: 2
Back
Fore
SplineSet
102 1276 m 1,0,-1
 352 1276 l 1,1,2
 356 1272 356 1272 356 1266 c 0,3,4
 356 1262 356 1262 353.5 1257.5 c 128,-1,5
 351 1253 351 1253 348 1246 c 128,-1,6
 345 1239 345 1239 342 1229 c 128,-1,7
 339 1219 339 1219 338 1204 c 2,8,-1
 338 1057 l 1,9,-1
 535 1057 l 2,10,11
 649 1057 649 1057 730 1026.5 c 128,-1,12
 811 996 811 996 863.5 943.5 c 128,-1,13
 916 891 916 891 940.5 821.5 c 128,-1,14
 965 752 965 752 965 674 c 256,15,16
 965 596 965 596 941 527.5 c 128,-1,17
 917 459 917 459 866 408 c 128,-1,18
 815 357 815 357 735.5 327 c 128,-1,19
 656 297 656 297 545 297 c 2,20,-1
 336 297 l 1,21,-1
 336 0 l 1,22,-1
 102 0 l 1,23,-1
 102 1276 l 1,0,-1
336 492 m 1,24,-1
 528 492 l 2,25,26
 581 492 581 492 619 505.5 c 128,-1,27
 657 519 657 519 681.5 542.5 c 128,-1,28
 706 566 706 566 717.5 598 c 128,-1,29
 729 630 729 630 729 668 c 0,30,31
 729 704 729 704 717 737.5 c 128,-1,32
 705 771 705 771 680.5 797 c 128,-1,33
 656 823 656 823 618.5 838.5 c 128,-1,34
 581 854 581 854 530 854 c 2,35,-1
 338 854 l 1,36,-1
 336 492 l 1,24,-1
EndSplineSet
EndChar
StartChar: germandbls
Encoding: 223 223 159
Width: 1024
Flags: W
LayerCount: 2
Back
Fore
SplineSet
78 0 m 1,0,-1
 78 854 l 2,1,2
 78 980 78 980 104.5 1078 c 128,-1,3
 131 1176 131 1176 182 1243.5 c 128,-1,4
 233 1311 233 1311 307.5 1346.5 c 128,-1,5
 382 1382 382 1382 477 1382 c 0,6,7
 565 1382 565 1382 637 1349 c 128,-1,8
 709 1316 709 1316 759 1261.5 c 128,-1,9
 809 1207 809 1207 836.5 1137.5 c 128,-1,10
 864 1068 864 1068 864 995 c 0,11,12
 864 955 864 955 853 917 c 128,-1,13
 842 879 842 879 823 845.5 c 128,-1,14
 804 812 804 812 778.5 784.5 c 128,-1,15
 753 757 753 757 725 739 c 1,16,17
 776 718 776 718 818 683.5 c 128,-1,18
 860 649 860 649 889 603 c 128,-1,19
 918 557 918 557 934 500 c 128,-1,20
 950 443 950 443 950 379 c 0,21,22
 950 287 950 287 925 211.5 c 128,-1,23
 900 136 900 136 850.5 82 c 128,-1,24
 801 28 801 28 727 -1.5 c 128,-1,25
 653 -31 653 -31 555 -31 c 0,26,27
 498 -31 498 -31 448 -14.5 c 128,-1,28
 398 2 398 2 342 33 c 1,29,-1
 457 213 l 1,30,31
 509 164 509 164 563 164 c 0,32,33
 599 164 599 164 629.5 178.5 c 128,-1,34
 660 193 660 193 682.5 219.5 c 128,-1,35
 705 246 705 246 718 282 c 128,-1,36
 731 318 731 318 731 362 c 0,37,38
 731 420 731 420 715 469 c 128,-1,39
 699 518 699 518 667.5 553 c 128,-1,40
 636 588 636 588 589 607.5 c 128,-1,41
 542 627 542 627 479 627 c 2,42,-1
 377 627 l 1,43,-1
 377 809 l 1,44,-1
 492 809 l 2,45,46
 525 809 525 809 552.5 820.5 c 128,-1,47
 580 832 580 832 600.5 856.5 c 128,-1,48
 621 881 621 881 632 919 c 128,-1,49
 643 957 643 957 643 1010 c 0,50,51
 643 1046 643 1046 632.5 1080 c 128,-1,52
 622 1114 622 1114 601 1140 c 128,-1,53
 580 1166 580 1166 548 1182 c 128,-1,54
 516 1198 516 1198 473 1198 c 0,55,56
 428 1198 428 1198 395 1173 c 128,-1,57
 362 1148 362 1148 340.5 1103 c 128,-1,58
 319 1058 319 1058 309 995.5 c 128,-1,59
 299 933 299 933 299 858 c 2,60,-1
 299 0 l 1,61,-1
 78 0 l 1,0,-1
EndSplineSet
EndChar
StartChar: ae
Encoding: 230 230 166
Width: 1024
Flags: W
LayerCount: 2
Back
Fore
SplineSet
35 842 m 1,0,1
 87 910 87 910 157.5 942.5 c 128,-1,2
 228 975 228 975 309 975 c 0,3,4
 340 975 340 975 372 965.5 c 128,-1,5
 404 956 404 956 433.5 940 c 128,-1,6
 463 924 463 924 488 902.5 c 128,-1,7
 513 881 513 881 530 858 c 1,8,9
 546 882 546 882 567.5 903.5 c 128,-1,10
 589 925 589 925 614 940.5 c 128,-1,11
 639 956 639 956 666.5 965.5 c 128,-1,12
 694 975 694 975 723 975 c 0,13,14
 798 975 798 975 853 945 c 128,-1,15
 908 915 908 915 943 860 c 128,-1,16
 978 805 978 805 995 727.5 c 128,-1,17
 1012 650 1012 650 1012 555 c 2,18,-1
 1012 455 l 1,19,-1
 606 438 l 1,20,-1
 606 365 l 2,21,22
 606 315 606 315 617 274.5 c 128,-1,23
 628 234 628 234 649 204.5 c 128,-1,24
 670 175 670 175 700 159 c 128,-1,25
 730 143 730 143 768 143 c 0,26,27
 849 143 849 143 911 248 c 1,28,-1
 1024 109 l 1,29,30
 970 44 970 44 902.5 9.5 c 128,-1,31
 835 -25 835 -25 758 -25 c 0,32,33
 687 -25 687 -25 626.5 8.5 c 128,-1,34
 566 42 566 42 524 100 c 1,35,36
 506 72 506 72 481 49 c 128,-1,37
 456 26 456 26 426.5 9.5 c 128,-1,38
 397 -7 397 -7 364.5 -16 c 128,-1,39
 332 -25 332 -25 299 -25 c 0,40,41
 231 -25 231 -25 176.5 -1 c 128,-1,42
 122 23 122 23 84 63.5 c 128,-1,43
 46 104 46 104 25 156 c 128,-1,44
 4 208 4 208 4 264 c 0,45,46
 4 337 4 337 33 398 c 128,-1,47
 62 459 62 459 116 503 c 128,-1,48
 170 547 170 547 246.5 573 c 128,-1,49
 323 599 323 599 418 602 c 1,50,51
 418 701 418 701 386.5 756 c 128,-1,52
 355 811 355 811 299 811 c 0,53,54
 261 811 261 811 223 785.5 c 128,-1,55
 185 760 185 760 147 698 c 1,56,-1
 35 842 l 1,0,1
424 430 m 1,57,58
 362 427 362 427 320 413 c 128,-1,59
 278 399 278 399 252 377 c 128,-1,60
 226 355 226 355 214.5 326 c 128,-1,61
 203 297 203 297 203 264 c 0,62,63
 203 243 203 243 211 222.5 c 128,-1,64
 219 202 219 202 233 186 c 128,-1,65
 247 170 247 170 265 160 c 128,-1,66
 283 150 283 150 303 150 c 0,67,68
 369 150 369 150 396.5 195.5 c 128,-1,69
 424 241 424 241 424 332 c 2,70,-1
 424 430 l 1,57,58
827 614 m 1,71,-1
 827 625 l 2,72,73
 827 665 827 665 820.5 699.5 c 128,-1,74
 814 734 814 734 800.5 758.5 c 128,-1,75
 787 783 787 783 767.5 797 c 128,-1,76
 748 811 748 811 723 811 c 0,77,78
 694 811 694 811 672.5 794.5 c 128,-1,79
 651 778 651 778 636 750.5 c 128,-1,80
 621 723 621 723 613.5 686 c 128,-1,81
 606 649 606 649 606 608 c 1,82,-1
 827 614 l 1,71,-1
EndSplineSet
EndChar
StartChar: ccedilla
Encoding: 231 231 167
Width: 1024
Flags: W
LayerCount: 2
Back
Fore
SplineSet
799 621 m 1,0,1
 790 623 790 623 786 628.5 c 128,-1,2
 782 634 782 634 780 641 c 128,-1,3
 778 648 778 648 776.5 656.5 c 128,-1,4
 775 665 775 665 772 674 c 0,5,6
 744 722 744 722 691.5 754 c 128,-1,7
 639 786 639 786 563 786 c 0,8,9
 511 786 511 786 465 763.5 c 128,-1,10
 419 741 419 741 385 700.5 c 128,-1,11
 351 660 351 660 331 604 c 128,-1,12
 311 548 311 548 311 481 c 0,13,14
 311 413 311 413 329.5 355.5 c 128,-1,15
 348 298 348 298 381.5 255 c 128,-1,16
 415 212 415 212 461.5 188 c 128,-1,17
 508 164 508 164 565 164 c 0,18,19
 593 164 593 164 623.5 170.5 c 128,-1,20
 654 177 654 177 685 192 c 128,-1,21
 716 207 716 207 746 231.5 c 128,-1,22
 776 256 776 256 805 291 c 1,23,-1
 938 137 l 1,24,25
 878 68 878 68 807.5 29.5 c 128,-1,26
 737 -9 737 -9 659 -23 c 1,27,-1
 655 -63 l 1,28,29
 733 -71 733 -71 774 -110 c 128,-1,30
 815 -149 815 -149 815 -209 c 0,31,32
 815 -241 815 -241 799 -273.5 c 128,-1,33
 783 -306 783 -306 750.5 -331.5 c 128,-1,34
 718 -357 718 -357 669 -373 c 128,-1,35
 620 -389 620 -389 553 -389 c 0,36,37
 488 -389 488 -389 422.5 -367.5 c 128,-1,38
 357 -346 357 -346 295 -295 c 1,39,-1
 371 -166 l 1,40,41
 401 -191 401 -191 427 -207.5 c 128,-1,42
 453 -224 453 -224 478 -233.5 c 128,-1,43
 503 -243 503 -243 527.5 -246.5 c 128,-1,44
 552 -250 552 -250 578 -250 c 0,45,46
 607 -250 607 -250 618 -238 c 128,-1,47
 629 -226 629 -226 629 -215 c 256,48,49
 629 -204 629 -204 615 -193 c 128,-1,50
 601 -182 601 -182 575 -182 c 2,51,-1
 475 -182 l 1,52,-1
 496 -29 l 1,53,54
 403 -19 403 -19 326 22.5 c 128,-1,55
 249 64 249 64 194 129.5 c 128,-1,56
 139 195 139 195 108.5 281.5 c 128,-1,57
 78 368 78 368 78 469 c 0,58,59
 78 576 78 576 113 668.5 c 128,-1,60
 148 761 148 761 212 829.5 c 128,-1,61
 276 898 276 898 365.5 937.5 c 128,-1,62
 455 977 455 977 563 977 c 0,63,64
 623 977 623 977 679 965 c 128,-1,65
 735 953 735 953 784.5 930 c 128,-1,66
 834 907 834 907 875 872.5 c 128,-1,67
 916 838 916 838 946 793 c 1,68,-1
 799 621 l 1,0,1
EndSplineSet
EndChar
StartChar: eth
Encoding: 240 240 176
Width: 1024
Flags: W
LayerCount: 2
Back
Fore
SplineSet
473 1401 m 1,0,1
 516 1373 516 1373 556 1343.5 c 128,-1,2
 596 1314 596 1314 633 1282 c 1,3,-1
 868 1343 l 1,4,-1
 926 1190 l 1,5,-1
 762 1147 l 1,6,7
 859 1019 859 1019 911 861.5 c 128,-1,8
 963 704 963 704 963 514 c 0,9,10
 963 392 963 392 935.5 291.5 c 128,-1,11
 908 191 908 191 852.5 119 c 128,-1,12
 797 47 797 47 714.5 7 c 128,-1,13
 632 -33 632 -33 522 -33 c 0,14,15
 426 -33 426 -33 344.5 4.5 c 128,-1,16
 263 42 263 42 203 107.5 c 128,-1,17
 143 173 143 173 109.5 262.5 c 128,-1,18
 76 352 76 352 76 457 c 0,19,20
 76 559 76 559 106.5 651 c 128,-1,21
 137 743 137 743 192.5 813 c 128,-1,22
 248 883 248 883 325.5 924 c 128,-1,23
 403 965 403 965 496 965 c 0,24,25
 520 965 520 965 547 959.5 c 128,-1,26
 574 954 574 954 600 944.5 c 128,-1,27
 626 935 626 935 650.5 921 c 128,-1,28
 675 907 675 907 694 889 c 1,29,30
 674 931 674 931 646.5 980.5 c 128,-1,31
 619 1030 619 1030 569 1087 c 1,32,-1
 315 1016 l 1,33,-1
 254 1178 l 1,34,-1
 424 1221 l 1,35,36
 382 1252 382 1252 334 1283 c 128,-1,37
 286 1314 286 1314 227 1346 c 1,38,-1
 473 1401 l 1,0,1
528 160 m 0,39,40
 571 160 571 160 608 179.5 c 128,-1,41
 645 199 645 199 672 238 c 128,-1,42
 699 277 699 277 714 336 c 128,-1,43
 729 395 729 395 729 475 c 0,44,45
 729 556 729 556 712 612.5 c 128,-1,46
 695 669 695 669 666.5 705 c 128,-1,47
 638 741 638 741 601 757.5 c 128,-1,48
 564 774 564 774 524 774 c 0,49,50
 480 774 480 774 441.5 754.5 c 128,-1,51
 403 735 403 735 375 697 c 128,-1,52
 347 659 347 659 331 603 c 128,-1,53
 315 547 315 547 315 475 c 0,54,55
 315 407 315 407 330 349 c 128,-1,56
 345 291 345 291 372.5 249 c 128,-1,57
 400 207 400 207 439.5 183.5 c 128,-1,58
 479 160 479 160 528 160 c 0,39,40
EndSplineSet
EndChar
StartChar: divide
Encoding: 247 247 183
Width: 1024
Flags: W
LayerCount: 2
Back
Fore
SplineSet
127 762 m 1,0,-1
 899 762 l 1,1,-1
 899 559 l 1,2,-1
 127 559 l 1,3,-1
 127 762 l 1,0,-1
522 1071 m 0,4,5
 553 1071 553 1071 577 1058.5 c 128,-1,6
 601 1046 601 1046 618 1027.5 c 128,-1,7
 635 1009 635 1009 644 987 c 128,-1,8
 653 965 653 965 653 946 c 0,9,10
 653 922 653 922 642.5 900 c 128,-1,11
 632 878 632 878 614.5 861.5 c 128,-1,12
 597 845 597 845 573 835 c 128,-1,13
 549 825 549 825 522 825 c 256,14,15
 495 825 495 825 471.5 835 c 128,-1,16
 448 845 448 845 430 861.5 c 128,-1,17
 412 878 412 878 401.5 900 c 128,-1,18
 391 922 391 922 391 946 c 0,19,20
 391 971 391 971 402 994 c 128,-1,21
 413 1017 413 1017 431 1034 c 128,-1,22
 449 1051 449 1051 472.5 1061 c 128,-1,23
 496 1071 496 1071 522 1071 c 0,4,5
522 489 m 0,24,25
 554 489 554 489 578.5 477 c 128,-1,26
 603 465 603 465 619.5 446.5 c 128,-1,27
 636 428 636 428 644.5 406.5 c 128,-1,28
 653 385 653 385 653 367 c 0,29,30
 653 341 653 341 642.5 319 c 128,-1,31
 632 297 632 297 614.5 281 c 128,-1,32
 597 265 597 265 573 255.5 c 128,-1,33
 549 246 549 246 522 246 c 0,34,35
 496 246 496 246 472 255.5 c 128,-1,36
 448 265 448 265 429.5 281 c 128,-1,37
 411 297 411 297 400 319 c 128,-1,38
 389 341 389 341 389 367 c 0,39,40
 389 394 389 394 400.5 416.5 c 128,-1,41
 412 439 412 439 430.5 455 c 128,-1,42
 449 471 449 471 473 480 c 128,-1,43
 497 489 497 489 522 489 c 0,24,25
EndSplineSet
EndChar
StartChar: oslash
Encoding: 248 248 184
Width: 1024
Flags: W
LayerCount: 2
Back
Fore
SplineSet
899 975 m 1,0,-1
 829 848 l 1,1,2
 892 783 892 783 928.5 689 c 128,-1,3
 965 595 965 595 965 473 c 0,4,5
 965 354 965 354 931 260 c 128,-1,6
 897 166 897 166 837.5 101 c 128,-1,7
 778 36 778 36 696 1.5 c 128,-1,8
 614 -33 614 -33 518 -33 c 0,9,10
 438 -33 438 -33 362 -4 c 1,11,-1
 291 -139 l 1,12,-1
 115 -47 l 1,13,-1
 197 104 l 1,14,15
 132 171 132 171 95.5 263.5 c 128,-1,16
 59 356 59 356 59 469 c 0,17,18
 59 578 59 578 95.5 671 c 128,-1,19
 132 764 132 764 195 832 c 128,-1,20
 258 900 258 900 341.5 938.5 c 128,-1,21
 425 977 425 977 520 977 c 0,22,23
 555 977 555 977 590 971.5 c 128,-1,24
 625 966 625 966 657 956 c 1,25,-1
 721 1071 l 1,26,-1
 899 975 l 1,0,-1
455 162 m 1,27,28
 470 157 470 157 485.5 155.5 c 128,-1,29
 501 154 501 154 518 154 c 0,30,31
 618 154 618 154 677.5 235 c 128,-1,32
 737 316 737 316 737 469 c 0,33,34
 737 562 737 562 713 633 c 1,35,-1
 455 162 l 1,27,28
565 786 m 1,36,37
 543 793 543 793 514 793 c 0,38,39
 465 793 465 793 424.5 771.5 c 128,-1,40
 384 750 384 750 355.5 709 c 128,-1,41
 327 668 327 668 311 609.5 c 128,-1,42
 295 551 295 551 295 477 c 0,43,44
 295 434 295 434 299.5 396 c 128,-1,45
 304 358 304 358 315 324 c 1,46,-1
 565 786 l 1,36,37
EndSplineSet
EndChar
StartChar: thorn
Encoding: 254 254 190
Width: 1024
Flags: W
LayerCount: 2
Back
Fore
SplineSet
330 489 m 0,0,1
 330 400 330 400 343 337.5 c 128,-1,2
 356 275 356 275 380 235.5 c 128,-1,3
 404 196 404 196 438.5 178 c 128,-1,4
 473 160 473 160 516 160 c 0,5,6
 550 160 550 160 587 176 c 128,-1,7
 624 192 624 192 655 228 c 128,-1,8
 686 264 686 264 705.5 322.5 c 128,-1,9
 725 381 725 381 725 467 c 0,10,11
 725 558 725 558 705.5 623.5 c 128,-1,12
 686 689 686 689 649 729 c 0,13,14
 621 760 621 760 589.5 775.5 c 128,-1,15
 558 791 558 791 510 791 c 0,16,17
 454 791 454 791 419 766.5 c 128,-1,18
 384 742 384 742 364.5 700 c 128,-1,19
 345 658 345 658 337.5 603.5 c 128,-1,20
 330 549 330 549 330 489 c 0,0,1
102 1382 m 1,21,-1
 360 1382 l 1,22,23
 360 1370 360 1370 356 1363 c 128,-1,24
 352 1356 352 1356 347.5 1350.5 c 128,-1,25
 343 1345 343 1345 338 1339 c 128,-1,26
 333 1333 333 1333 332 1323 c 2,27,-1
 332 874 l 1,28,29
 377 924 377 924 435 950.5 c 128,-1,30
 493 977 493 977 553 977 c 0,31,32
 634 977 634 977 707 947 c 128,-1,33
 780 917 780 917 835.5 857 c 128,-1,34
 891 797 891 797 923.5 707.5 c 128,-1,35
 956 618 956 618 956 498 c 0,36,37
 956 366 956 366 922.5 266.5 c 128,-1,38
 889 167 889 167 833 101 c 128,-1,39
 777 35 777 35 705 2 c 128,-1,40
 633 -31 633 -31 555 -31 c 0,41,42
 529 -31 529 -31 499 -25 c 128,-1,43
 469 -19 469 -19 439.5 -7 c 128,-1,44
 410 5 410 5 382.5 22.5 c 128,-1,45
 355 40 355 40 334 63 c 1,46,-1
 334 -342 l 1,47,-1
 102 -342 l 1,48,-1
 102 1382 l 1,21,-1
EndSplineSet
EndChar
StartChar: Aogonek
Encoding: 260 260 194
Width: 1024
Flags: W
LayerCount: 2
Back
Fore
SplineSet
786 0 m 1,0,-1
 670 330 l 1,1,-1
 336 330 l 1,2,-1
 236 0 l 1,3,-1
 0 0 l 1,4,-1
 424 1307 l 1,5,-1
 561 1307 l 1,6,-1
 1028 0 l 1,7,8
 980 -45 980 -45 949 -73.5 c 128,-1,9
 918 -102 918 -102 900 -121 c 128,-1,10
 882 -140 882 -140 875 -152 c 128,-1,11
 868 -164 868 -164 868 -176 c 0,12,13
 868 -190 868 -190 876 -199.5 c 128,-1,14
 884 -209 884 -209 899 -209 c 0,15,16
 911 -209 911 -209 922 -206 c 128,-1,17
 933 -203 933 -203 947.5 -194 c 128,-1,18
 962 -185 962 -185 981 -169.5 c 128,-1,19
 1000 -154 1000 -154 1028 -129 c 1,20,-1
 1028 -307 l 1,21,22
 986 -339 986 -339 944 -356 c 128,-1,23
 902 -373 902 -373 854 -373 c 0,24,25
 757 -373 757 -373 711.5 -331 c 128,-1,26
 666 -289 666 -289 666 -223 c 0,27,28
 666 -199 666 -199 672 -175.5 c 128,-1,29
 678 -152 678 -152 694 -126 c 128,-1,30
 710 -100 710 -100 738 -69.5 c 128,-1,31
 766 -39 766 -39 809 0 c 1,32,-1
 786 0 l 1,0,-1
627 489 m 1,33,-1
 496 877 l 1,34,-1
 373 489 l 1,35,-1
 627 489 l 1,33,-1
EndSplineSet
EndChar
StartChar: aogonek
Encoding: 261 261 195
Width: 1024
Flags: W
LayerCount: 2
Back
Fore
SplineSet
154 821 m 1,0,1
 302 977 302 977 516 977 c 0,2,3
 607 977 607 977 679 954 c 128,-1,4
 751 931 751 931 801 882.5 c 128,-1,5
 851 834 851 834 878 759.5 c 128,-1,6
 905 685 905 685 905 582 c 2,7,-1
 905 0 l 1,8,9
 857 -45 857 -45 826 -73.5 c 128,-1,10
 795 -102 795 -102 777 -121 c 128,-1,11
 759 -140 759 -140 752 -152 c 128,-1,12
 745 -164 745 -164 745 -176 c 0,13,14
 745 -190 745 -190 753 -199.5 c 128,-1,15
 761 -209 761 -209 776 -209 c 0,16,17
 788 -209 788 -209 799 -206 c 128,-1,18
 810 -203 810 -203 824.5 -194 c 128,-1,19
 839 -185 839 -185 858 -169.5 c 128,-1,20
 877 -154 877 -154 905 -129 c 1,21,-1
 905 -307 l 1,22,23
 863 -339 863 -339 821 -356 c 128,-1,24
 779 -373 779 -373 731 -373 c 0,25,26
 634 -373 634 -373 588.5 -331 c 128,-1,27
 543 -289 543 -289 543 -223 c 0,28,29
 543 -199 543 -199 549 -175.5 c 128,-1,30
 555 -152 555 -152 571 -126 c 128,-1,31
 587 -100 587 -100 615 -69.5 c 128,-1,32
 643 -39 643 -39 686 0 c 1,33,-1
 686 86 l 1,34,35
 632 35 632 35 557.5 5 c 128,-1,36
 483 -25 483 -25 408 -25 c 0,37,38
 324 -25 324 -25 262.5 -2.5 c 128,-1,39
 201 20 201 20 161 58 c 128,-1,40
 121 96 121 96 101.5 147 c 128,-1,41
 82 198 82 198 82 254 c 0,42,43
 82 328 82 328 113.5 389.5 c 128,-1,44
 145 451 145 451 206 495.5 c 128,-1,45
 267 540 267 540 356.5 565 c 128,-1,46
 446 590 446 590 563 590 c 2,47,-1
 684 590 l 1,48,49
 682 699 682 699 640 748 c 128,-1,50
 598 797 598 797 508 797 c 0,51,52
 391 797 391 797 270 670 c 1,53,-1
 154 821 l 1,0,1
690 416 m 1,54,55
 669 418 669 418 648.5 418 c 128,-1,56
 628 418 628 418 606 418 c 0,57,58
 516 418 516 418 458 405 c 128,-1,59
 400 392 400 392 367 370.5 c 128,-1,60
 334 349 334 349 321.5 321.5 c 128,-1,61
 309 294 309 294 309 266 c 0,62,63
 309 242 309 242 320 221 c 128,-1,64
 331 200 331 200 350 184.5 c 128,-1,65
 369 169 369 169 394.5 159.5 c 128,-1,66
 420 150 420 150 449 150 c 0,67,68
 496 150 496 150 534 166 c 128,-1,69
 572 182 572 182 600.5 205 c 128,-1,70
 629 228 629 228 647.5 253.5 c 128,-1,71
 666 279 666 279 674 297 c 0,72,73
 683 311 683 311 686.5 341 c 128,-1,74
 690 371 690 371 690 416 c 1,54,55
EndSplineSet
EndChar
StartChar: dcaron
Encoding: 271 271 201
Width: 1024
Flags: W
LayerCount: 2
Back
Fore
SplineSet
1059 1239 m 0,0,1
 1059 1170 1059 1170 1023.5 1090 c 128,-1,2
 988 1010 988 1010 903 907 c 1,3,-1
 799 997 l 1,4,5
 820 1021 820 1021 836.5 1045 c 128,-1,6
 853 1069 853 1069 864.5 1091 c 128,-1,7
 876 1113 876 1113 882.5 1130.5 c 128,-1,8
 889 1148 889 1148 889 1159 c 0,9,10
 889 1162 889 1162 883 1169 c 128,-1,11
 877 1176 877 1176 870 1184 c 0,12,13
 853 1202 853 1202 836 1223 c 128,-1,14
 819 1244 819 1244 819 1276 c 0,15,16
 819 1303 819 1303 828 1326 c 128,-1,17
 837 1349 837 1349 853 1365.5 c 128,-1,18
 869 1382 869 1382 891.5 1391.5 c 128,-1,19
 914 1401 914 1401 940 1401 c 0,20,21
 963 1401 963 1401 984.5 1389 c 128,-1,22
 1006 1377 1006 1377 1022.5 1356 c 128,-1,23
 1039 1335 1039 1335 1049 1305 c 128,-1,24
 1059 1275 1059 1275 1059 1239 c 0,0,1
772 115 m 2,25,26
 772 90 772 90 777.5 60.5 c 128,-1,27
 783 31 783 31 791 0 c 1,28,-1
 580 0 l 1,29,30
 567 9 567 9 563 27 c 128,-1,31
 559 45 559 45 559 59 c 2,32,-1
 559 88 l 1,33,34
 545 61 545 61 522 39 c 128,-1,35
 499 17 499 17 471.5 1.5 c 128,-1,36
 444 -14 444 -14 414 -22.5 c 128,-1,37
 384 -31 384 -31 356 -31 c 0,38,39
 279 -31 279 -31 209.5 -0.5 c 128,-1,40
 140 30 140 30 88 91.5 c 128,-1,41
 36 153 36 153 5.5 245.5 c 128,-1,42
 -25 338 -25 338 -25 463 c 0,43,44
 -25 584 -25 584 6.5 679.5 c 128,-1,45
 38 775 38 775 91 841 c 128,-1,46
 144 907 144 907 212 942 c 128,-1,47
 280 977 280 977 354 977 c 0,48,49
 379 977 379 977 407.5 969 c 128,-1,50
 436 961 436 961 462.5 947.5 c 128,-1,51
 489 934 489 934 511.5 916.5 c 128,-1,52
 534 899 534 899 549 881 c 1,53,-1
 549 1382 l 1,54,-1
 801 1382 l 1,55,56
 801 1371 801 1371 797 1364 c 128,-1,57
 793 1357 793 1357 788 1351 c 128,-1,58
 783 1345 783 1345 778 1338.5 c 128,-1,59
 773 1332 773 1332 772 1323 c 2,60,-1
 772 115 l 2,25,26
551 489 m 0,61,62
 551 549 551 549 545 603.5 c 128,-1,63
 539 658 539 658 522 700 c 128,-1,64
 505 742 505 742 474.5 766.5 c 128,-1,65
 444 791 444 791 395 791 c 0,66,67
 335 791 335 791 298.5 764.5 c 128,-1,68
 262 738 262 738 241.5 693 c 128,-1,69
 221 648 221 648 214 589.5 c 128,-1,70
 207 531 207 531 207 467 c 0,71,72
 207 381 207 381 223.5 322.5 c 128,-1,73
 240 264 240 264 266 228 c 128,-1,74
 292 192 292 192 324.5 176 c 128,-1,75
 357 160 357 160 389 160 c 0,76,77
 428 160 428 160 458.5 178 c 128,-1,78
 489 196 489 196 509.5 235.5 c 128,-1,79
 530 275 530 275 540.5 337.5 c 128,-1,80
 551 400 551 400 551 489 c 0,61,62
EndSplineSet
EndChar
StartChar: dcroat
Encoding: 273 273 203
Width: 1024
Flags: W
LayerCount: 2
Back
Fore
SplineSet
918 115 m 2,0,1
 918 90 918 90 923 60.5 c 128,-1,2
 928 31 928 31 936 0 c 1,3,-1
 719 0 l 1,4,5
 706 9 706 9 702 27 c 128,-1,6
 698 45 698 45 698 59 c 2,7,-1
 698 88 l 1,8,9
 682 59 682 59 655.5 37 c 128,-1,10
 629 15 629 15 598 0 c 128,-1,11
 567 -15 567 -15 533.5 -23 c 128,-1,12
 500 -31 500 -31 469 -31 c 0,13,14
 385 -31 385 -31 311 -0.5 c 128,-1,15
 237 30 237 30 181.5 91.5 c 128,-1,16
 126 153 126 153 93.5 245.5 c 128,-1,17
 61 338 61 338 61 463 c 0,18,19
 61 584 61 584 94 679.5 c 128,-1,20
 127 775 127 775 183 841 c 128,-1,21
 239 907 239 907 312.5 942 c 128,-1,22
 386 977 386 977 467 977 c 0,23,24
 495 977 495 977 525 970 c 128,-1,25
 555 963 555 963 584.5 950.5 c 128,-1,26
 614 938 614 938 640.5 920 c 128,-1,27
 667 902 667 902 688 881 c 1,28,-1
 688 1075 l 1,29,-1
 557 1075 l 1,30,-1
 557 1251 l 1,31,-1
 688 1251 l 1,32,-1
 688 1382 l 1,33,-1
 946 1382 l 1,34,35
 946 1371 946 1371 942 1364 c 128,-1,36
 938 1357 938 1357 933.5 1351 c 128,-1,37
 929 1345 929 1345 924 1338.5 c 128,-1,38
 919 1332 919 1332 918 1323 c 2,39,-1
 918 1251 l 1,40,-1
 1006 1251 l 1,41,-1
 1006 1075 l 1,42,-1
 918 1075 l 1,43,-1
 918 115 l 2,0,1
690 489 m 0,44,45
 690 549 690 549 682 603.5 c 128,-1,46
 674 658 674 658 654 700 c 128,-1,47
 634 742 634 742 598.5 766.5 c 128,-1,48
 563 791 563 791 508 791 c 0,49,50
 460 791 460 791 428.5 775.5 c 128,-1,51
 397 760 397 760 369 729 c 0,52,53
 293 648 293 648 293 467 c 0,54,55
 293 381 293 381 312.5 322.5 c 128,-1,56
 332 264 332 264 363 228 c 128,-1,57
 394 192 394 192 430.5 176 c 128,-1,58
 467 160 467 160 502 160 c 0,59,60
 545 160 545 160 579.5 178 c 128,-1,61
 614 196 614 196 638.5 235.5 c 128,-1,62
 663 275 663 275 676.5 337.5 c 128,-1,63
 690 400 690 400 690 489 c 0,44,45
EndSplineSet
EndChar
StartChar: Eogonek
Encoding: 280 280 204
Width: 1024
Flags: W
LayerCount: 2
Back
Fore
SplineSet
115 1276 m 1,0,-1
 946 1276 l 1,1,-1
 946 1079 l 1,2,-1
 338 1079 l 1,3,-1
 338 764 l 1,4,-1
 842 764 l 1,5,-1
 842 563 l 1,6,-1
 338 563 l 1,7,-1
 338 197 l 1,8,-1
 942 197 l 1,9,-1
 942 0 l 1,10,11
 894 -45 894 -45 863 -73.5 c 128,-1,12
 832 -102 832 -102 814 -121 c 128,-1,13
 796 -140 796 -140 789 -152 c 128,-1,14
 782 -164 782 -164 782 -176 c 0,15,16
 782 -190 782 -190 790 -199.5 c 128,-1,17
 798 -209 798 -209 813 -209 c 0,18,19
 825 -209 825 -209 836 -206 c 128,-1,20
 847 -203 847 -203 861.5 -194 c 128,-1,21
 876 -185 876 -185 895 -169.5 c 128,-1,22
 914 -154 914 -154 942 -129 c 1,23,-1
 942 -307 l 1,24,25
 900 -339 900 -339 858 -356 c 128,-1,26
 816 -373 816 -373 768 -373 c 0,27,28
 671 -373 671 -373 625.5 -331 c 128,-1,29
 580 -289 580 -289 580 -223 c 0,30,31
 580 -199 580 -199 589.5 -175.5 c 128,-1,32
 599 -152 599 -152 619 -126 c 128,-1,33
 639 -100 639 -100 669.5 -69.5 c 128,-1,34
 700 -39 700 -39 743 0 c 1,35,-1
 115 0 l 1,36,-1
 115 1276 l 1,0,-1
EndSplineSet
EndChar
StartChar: eogonek
Encoding: 281 281 205
Width: 1024
Flags: W
LayerCount: 2
Back
Fore
SplineSet
528 977 m 0,0,1
 613 977 613 977 687 947 c 128,-1,2
 761 917 761 917 816.5 858.5 c 128,-1,3
 872 800 872 800 904 712.5 c 128,-1,4
 936 625 936 625 936 510 c 0,5,6
 936 485 936 485 934 461 c 128,-1,7
 932 437 932 437 930 414 c 1,8,-1
 303 414 l 1,9,10
 311 345 311 345 335 295.5 c 128,-1,11
 359 246 359 246 393 213.5 c 128,-1,12
 427 181 427 181 468.5 165.5 c 128,-1,13
 510 150 510 150 553 150 c 0,14,15
 618 150 618 150 680.5 179.5 c 128,-1,16
 743 209 743 209 788 266 c 1,17,-1
 915 137 l 1,18,-1
 788 -31 l 2,19,20
 754 -76 754 -76 740.5 -108 c 128,-1,21
 727 -140 727 -140 727 -160 c 0,22,23
 727 -189 727 -189 744 -199 c 128,-1,24
 761 -209 761 -209 776 -209 c 0,25,26
 788 -209 788 -209 800.5 -206 c 128,-1,27
 813 -203 813 -203 828 -194.5 c 128,-1,28
 843 -186 843 -186 862 -170.5 c 128,-1,29
 881 -155 881 -155 905 -129 c 1,30,-1
 905 -307 l 1,31,32
 863 -339 863 -339 821 -356 c 128,-1,33
 779 -373 779 -373 731 -373 c 0,34,35
 634 -373 634 -373 588.5 -331 c 128,-1,36
 543 -289 543 -289 543 -223 c 0,37,38
 543 -131 543 -131 682 2 c 1,39,40
 664 -6 664 -6 642.5 -12 c 128,-1,41
 621 -18 621 -18 598.5 -23 c 128,-1,42
 576 -28 576 -28 555 -30.5 c 128,-1,43
 534 -33 534 -33 518 -33 c 0,44,45
 423 -33 423 -33 342.5 1 c 128,-1,46
 262 35 262 35 202.5 99 c 128,-1,47
 143 163 143 163 109.5 255.5 c 128,-1,48
 76 348 76 348 76 465 c 0,49,50
 76 584 76 584 110 679 c 128,-1,51
 144 774 144 774 204.5 840 c 128,-1,52
 265 906 265 906 347.5 941.5 c 128,-1,53
 430 977 430 977 528 977 c 0,0,1
707 582 m 1,54,55
 707 627 707 627 693.5 667.5 c 128,-1,56
 680 708 680 708 655.5 738.5 c 128,-1,57
 631 769 631 769 595.5 787 c 128,-1,58
 560 805 560 805 516 805 c 0,59,60
 474 805 474 805 438.5 789 c 128,-1,61
 403 773 403 773 376.5 744 c 128,-1,62
 350 715 350 715 333.5 674 c 128,-1,63
 317 633 317 633 311 582 c 1,64,-1
 707 582 l 1,54,55
EndSplineSet
EndChar
StartChar: dotlessi
Encoding: 305 305 211
Width: 1024
Flags: W
LayerCount: 2
Back
Fore
SplineSet
193 956 m 1,0,-1
 641 956 l 1,1,-1
 641 184 l 1,2,-1
 850 184 l 1,3,-1
 850 0 l 1,4,-1
 182 0 l 1,5,-1
 182 184 l 1,6,-1
 412 184 l 1,7,-1
 412 772 l 1,8,-1
 193 772 l 1,9,-1
 193 956 l 1,0,-1
EndSplineSet
EndChar
StartChar: kgreenlandic
Encoding: 312 312 212
Width: 1024
Flags: W
LayerCount: 2
Back
Fore
SplineSet
123 958 m 1,0,-1
 383 958 l 1,1,2
 383 946 383 946 379 939 c 128,-1,3
 375 932 375 932 370 927 c 128,-1,4
 365 922 365 922 360 916 c 128,-1,5
 355 910 355 910 354 901 c 2,6,-1
 354 604 l 1,7,-1
 721 967 l 1,8,9
 794 950 794 950 838 950 c 2,10,-1
 987 950 l 1,11,-1
 596 573 l 1,12,13
 647 512 647 512 703 436.5 c 128,-1,14
 759 361 759 361 815.5 284 c 128,-1,15
 872 207 872 207 926.5 133.5 c 128,-1,16
 981 60 981 60 1028 2 c 1,17,-1
 748 -8 l 1,18,-1
 432 432 l 1,19,-1
 354 358 l 1,20,-1
 354 0 l 1,21,-1
 123 0 l 1,22,-1
 123 958 l 1,0,-1
EndSplineSet
EndChar
StartChar: Lslash
Encoding: 321 321 217
Width: 1024
Flags: W
LayerCount: 2
Back
Fore
SplineSet
940 195 m 1,0,-1
 940 2 l 1,1,-1
 125 2 l 1,2,-1
 125 453 l 1,3,-1
 10 416 l 1,4,-1
 10 610 l 1,5,-1
 125 647 l 1,6,-1
 125 1276 l 1,7,-1
 375 1276 l 1,8,9
 379 1272 379 1272 379 1266 c 0,10,11
 379 1258 379 1258 371.5 1246.5 c 128,-1,12
 364 1235 364 1235 360 1204 c 1,13,-1
 360 724 l 1,14,-1
 643 817 l 2,15,16
 663 826 663 826 681.5 838 c 128,-1,17
 700 850 700 850 717 864 c 1,18,-1
 717 645 l 1,19,-1
 360 529 l 1,20,-1
 360 195 l 1,21,-1
 940 195 l 1,0,-1
EndSplineSet
EndChar
StartChar: lslash
Encoding: 322 322 218
Width: 1024
Flags: W
LayerCount: 2
Back
Fore
SplineSet
150 1382 m 1,0,-1
 629 1382 l 1,1,-1
 629 803 l 1,2,-1
 686 823 l 2,3,4
 698 829 698 829 724 844.5 c 128,-1,5
 750 860 750 860 801 891 c 1,6,-1
 801 659 l 1,7,-1
 629 601 l 1,8,-1
 629 178 l 1,9,-1
 891 178 l 1,10,-1
 891 0 l 1,11,-1
 137 0 l 1,12,-1
 137 178 l 1,13,-1
 399 178 l 1,14,-1
 399 524 l 1,15,-1
 248 473 l 1,16,-1
 248 672 l 1,17,-1
 399 724 l 1,18,-1
 399 1204 l 1,19,-1
 150 1204 l 1,20,-1
 150 1382 l 1,0,-1
EndSplineSet
EndChar
StartChar: Eng
Encoding: 330 330 223
Width: 1024
Flags: W
LayerCount: 2
Back
Fore
SplineSet
598 158 m 0,0,1
 700 158 700 158 700 348 c 2,2,-1
 700 860 l 2,3,4
 700 930 700 930 688.5 978 c 128,-1,5
 677 1026 677 1026 657 1055 c 128,-1,6
 637 1084 637 1084 609 1097 c 128,-1,7
 581 1110 581 1110 547 1110 c 0,8,9
 503 1110 503 1110 460 1090 c 128,-1,10
 417 1070 417 1070 383 1035 c 128,-1,11
 349 1000 349 1000 328 951 c 128,-1,12
 307 902 307 902 307 844 c 2,13,-1
 307 0 l 1,14,-1
 70 0 l 1,15,-1
 70 1276 l 1,16,-1
 307 1276 l 1,17,-1
 307 1182 l 1,18,19
 361 1236 361 1236 428 1271.5 c 128,-1,20
 495 1307 495 1307 569 1307 c 0,21,22
 657 1307 657 1307 724.5 1281.5 c 128,-1,23
 792 1256 792 1256 838 1202 c 128,-1,24
 884 1148 884 1148 908 1064 c 128,-1,25
 932 980 932 980 932 864 c 2,26,-1
 932 356 l 2,27,28
 932 257 932 257 908.5 183 c 128,-1,29
 885 109 885 109 840.5 59.5 c 128,-1,30
 796 10 796 10 733 -14.5 c 128,-1,31
 670 -39 670 -39 592 -39 c 0,32,33
 538 -39 538 -39 482 -20.5 c 128,-1,34
 426 -2 426 -2 365 35 c 1,35,-1
 471 221 l 1,36,37
 489 221 489 221 502 201 c 0,38,39
 511 185 511 185 534.5 171.5 c 128,-1,40
 558 158 558 158 598 158 c 0,0,1
EndSplineSet
EndChar
StartChar: eng
Encoding: 331 331 224
Width: 1024
Flags: W
LayerCount: 2
Back
Fore
SplineSet
123 0 m 1,0,-1
 123 956 l 1,1,-1
 354 956 l 1,2,-1
 354 858 l 1,3,4
 404 912 404 912 470 944.5 c 128,-1,5
 536 977 536 977 604 977 c 0,6,7
 676 977 676 977 735 955 c 128,-1,8
 794 933 794 933 835.5 885.5 c 128,-1,9
 877 838 877 838 899.5 762.5 c 128,-1,10
 922 687 922 687 922 580 c 2,11,-1
 922 109 l 2,12,13
 922 -16 922 -16 894.5 -106 c 128,-1,14
 867 -196 867 -196 818 -254 c 128,-1,15
 769 -312 769 -312 702 -339.5 c 128,-1,16
 635 -367 635 -367 557 -367 c 0,17,18
 439 -367 439 -367 319 -274 c 1,19,-1
 422 -74 l 1,20,21
 437 -79 437 -79 443.5 -89.5 c 128,-1,22
 450 -100 450 -100 463 -117 c 0,23,24
 467 -123 467 -123 476 -131 c 128,-1,25
 485 -139 485 -139 497.5 -146.5 c 128,-1,26
 510 -154 510 -154 526 -159 c 128,-1,27
 542 -164 542 -164 561 -164 c 0,28,29
 629 -164 629 -164 662.5 -102 c 128,-1,30
 696 -40 696 -40 696 88 c 2,31,-1
 696 578 l 2,32,33
 696 633 696 633 686 673 c 128,-1,34
 676 713 676 713 658 738.5 c 128,-1,35
 640 764 640 764 615 776 c 128,-1,36
 590 788 590 788 559 788 c 0,37,38
 516 788 516 788 478.5 771 c 128,-1,39
 441 754 441 754 413.5 723 c 128,-1,40
 386 692 386 692 370 648.5 c 128,-1,41
 354 605 354 605 354 553 c 2,42,-1
 354 0 l 1,43,-1
 123 0 l 1,0,-1
EndSplineSet
EndChar
StartChar: OE
Encoding: 338 338 228
Width: 1024
Flags: W
LayerCount: 2
Back
Fore
SplineSet
369 1294 m 0,0,1
 397 1294 397 1294 430 1282 c 128,-1,2
 463 1270 463 1270 489 1247 c 1,3,-1
 489 1278 l 1,4,-1
 1010 1278 l 1,5,-1
 1010 1081 l 1,6,-1
 692 1081 l 1,7,-1
 692 764 l 1,8,-1
 961 764 l 1,9,-1
 961 565 l 1,10,-1
 692 565 l 1,11,-1
 692 197 l 1,12,-1
 1006 197 l 1,13,-1
 1006 0 l 1,14,-1
 487 0 l 1,15,-1
 487 33 l 1,16,17
 460 11 460 11 425.5 -1.5 c 128,-1,18
 391 -14 391 -14 362 -14 c 0,19,20
 281 -14 281 -14 215.5 25 c 128,-1,21
 150 64 150 64 103.5 144 c 128,-1,22
 57 224 57 224 31.5 347.5 c 128,-1,23
 6 471 6 471 6 639 c 0,24,25
 6 964 6 964 100.5 1129 c 128,-1,26
 195 1294 195 1294 369 1294 c 0,0,1
369 1104 m 0,27,28
 338 1104 338 1104 312 1081.5 c 128,-1,29
 286 1059 286 1059 266.5 1006 c 128,-1,30
 247 953 247 953 236 863.5 c 128,-1,31
 225 774 225 774 225 641 c 0,32,33
 225 421 225 421 263.5 301.5 c 128,-1,34
 302 182 302 182 385 182 c 0,35,36
 423 182 423 182 447 212 c 128,-1,37
 471 242 471 242 477 295 c 1,38,-1
 477 977 l 1,39,40
 466 1031 466 1031 440 1067.5 c 128,-1,41
 414 1104 414 1104 369 1104 c 0,27,28
EndSplineSet
EndChar
StartChar: oe
Encoding: 339 339 229
Width: 1024
Flags: W
LayerCount: 2
Back
Fore
SplineSet
344 973 m 0,0,1
 371 973 371 973 396.5 965.5 c 128,-1,2
 422 958 422 958 445.5 946 c 128,-1,3
 469 934 469 934 489 918 c 128,-1,4
 509 902 509 902 524 885 c 1,5,6
 540 901 540 901 561 917 c 128,-1,7
 582 933 582 933 606.5 945.5 c 128,-1,8
 631 958 631 958 657.5 965.5 c 128,-1,9
 684 973 684 973 711 973 c 0,10,11
 781 973 781 973 837 947 c 128,-1,12
 893 921 893 921 932 870.5 c 128,-1,13
 971 820 971 820 991.5 747 c 128,-1,14
 1012 674 1012 674 1012 580 c 2,15,-1
 1012 424 l 1,16,-1
 582 424 l 1,17,18
 583 346 583 346 594.5 295 c 128,-1,19
 606 244 606 244 626 213.5 c 128,-1,20
 646 183 646 183 673.5 170.5 c 128,-1,21
 701 158 701 158 735 158 c 0,22,23
 762 158 762 158 784 165 c 128,-1,24
 806 172 806 172 826.5 185.5 c 128,-1,25
 847 199 847 199 868 218.5 c 128,-1,26
 889 238 889 238 913 264 c 1,27,-1
 1032 115 l 1,28,29
 966 47 966 47 895.5 8 c 128,-1,30
 825 -31 825 -31 741 -31 c 0,31,32
 712 -31 712 -31 680 -24 c 128,-1,33
 648 -17 648 -17 617.5 -5.5 c 128,-1,34
 587 6 587 6 561 21 c 128,-1,35
 535 36 535 36 518 53 c 1,36,37
 483 18 483 18 434.5 -5.5 c 128,-1,38
 386 -29 386 -29 332 -29 c 0,39,40
 273 -29 273 -29 215 -5 c 128,-1,41
 157 19 157 19 110.5 76.5 c 128,-1,42
 64 134 64 134 35 231 c 128,-1,43
 6 328 6 328 6 475 c 0,44,45
 6 610 6 610 34.5 705 c 128,-1,46
 63 800 63 800 110 859.5 c 128,-1,47
 157 919 157 919 218 946 c 128,-1,48
 279 973 279 973 344 973 c 0,0,1
688 795 m 0,49,50
 638 795 638 795 612.5 743.5 c 128,-1,51
 587 692 587 692 584 606 c 1,52,-1
 805 606 l 1,53,54
 803 709 803 709 775 752 c 128,-1,55
 747 795 747 795 688 795 c 0,49,50
342 784 m 0,56,57
 316 784 316 784 293 767.5 c 128,-1,58
 270 751 270 751 252 716 c 128,-1,59
 234 681 234 681 223.5 626.5 c 128,-1,60
 213 572 213 572 213 496 c 0,61,62
 213 334 213 334 248 249 c 128,-1,63
 283 164 283 164 348 164 c 0,64,65
 371 164 371 164 384 176 c 128,-1,66
 397 188 397 188 397 205 c 0,67,68
 397 208 397 208 395.5 216.5 c 128,-1,69
 394 225 394 225 391 244 c 0,70,71
 380 309 380 309 376.5 374.5 c 128,-1,72
 373 440 373 440 373 494 c 0,73,74
 373 579 373 579 377.5 634 c 128,-1,75
 382 689 382 689 387 715 c 0,76,77
 389 724 389 724 389 727.5 c 128,-1,78
 389 731 389 731 389 733 c 0,79,80
 389 752 389 752 378 768 c 128,-1,81
 367 784 367 784 342 784 c 0,56,57
EndSplineSet
EndChar
StartChar: Scedilla
Encoding: 350 350 236
Width: 1024
Flags: W
LayerCount: 2
Back
Fore
SplineSet
780 946 m 1,0,1
 765 947 765 947 758.5 952 c 128,-1,2
 752 957 752 957 748.5 965 c 128,-1,3
 745 973 745 973 743 982.5 c 128,-1,4
 741 992 741 992 735 1001 c 0,5,6
 701 1052 701 1052 640 1086 c 128,-1,7
 579 1120 579 1120 496 1120 c 0,8,9
 460 1120 460 1120 430.5 1108.5 c 128,-1,10
 401 1097 401 1097 380.5 1077.5 c 128,-1,11
 360 1058 360 1058 349 1032.5 c 128,-1,12
 338 1007 338 1007 338 979 c 0,13,14
 338 946 338 946 349.5 916.5 c 128,-1,15
 361 887 361 887 391.5 858.5 c 128,-1,16
 422 830 422 830 474.5 801 c 128,-1,17
 527 772 527 772 608 739 c 0,18,19
 705 700 705 700 769.5 657.5 c 128,-1,20
 834 615 834 615 872.5 567.5 c 128,-1,21
 911 520 911 520 926.5 466.5 c 128,-1,22
 942 413 942 413 942 352 c 0,23,24
 942 288 942 288 923 226 c 128,-1,25
 904 164 904 164 862.5 112.5 c 128,-1,26
 821 61 821 61 755.5 23.5 c 128,-1,27
 690 -14 690 -14 598 -29 c 1,28,-1
 594 -63 l 1,29,30
 671 -71 671 -71 712.5 -110 c 128,-1,31
 754 -149 754 -149 754 -209 c 0,32,33
 754 -241 754 -241 738 -273.5 c 128,-1,34
 722 -306 722 -306 689.5 -331.5 c 128,-1,35
 657 -357 657 -357 608 -373 c 128,-1,36
 559 -389 559 -389 492 -389 c 0,37,38
 427 -389 427 -389 361 -367.5 c 128,-1,39
 295 -346 295 -346 233 -295 c 1,40,-1
 309 -166 l 1,41,42
 339 -191 339 -191 365 -207.5 c 128,-1,43
 391 -224 391 -224 416 -233.5 c 128,-1,44
 441 -243 441 -243 465.5 -246.5 c 128,-1,45
 490 -250 490 -250 516 -250 c 0,46,47
 545 -250 545 -250 556 -238 c 128,-1,48
 567 -226 567 -226 567 -215 c 256,49,50
 567 -204 567 -204 553.5 -193 c 128,-1,51
 540 -182 540 -182 514 -182 c 2,52,-1
 414 -182 l 1,53,-1
 432 -35 l 1,54,55
 210 -12 210 -12 57 156 c 1,56,-1
 174 360 l 1,57,58
 186 357 186 357 192.5 351 c 128,-1,59
 199 345 199 345 204 337 c 128,-1,60
 209 329 209 329 214 319 c 128,-1,61
 219 309 219 309 227 297 c 0,62,63
 248 271 248 271 275.5 246 c 128,-1,64
 303 221 303 221 338 202 c 128,-1,65
 373 183 373 183 415 171.5 c 128,-1,66
 457 160 457 160 508 160 c 0,67,68
 602 160 602 160 655.5 203.5 c 128,-1,69
 709 247 709 247 709 340 c 0,70,71
 709 369 709 369 697 395.5 c 128,-1,72
 685 422 685 422 656.5 447.5 c 128,-1,73
 628 473 628 473 580 499.5 c 128,-1,74
 532 526 532 526 459 555 c 0,75,76
 363 594 363 594 295 637 c 128,-1,77
 227 680 227 680 183.5 729 c 128,-1,78
 140 778 140 778 120 833 c 128,-1,79
 100 888 100 888 100 950 c 0,80,81
 100 1025 100 1025 131 1090 c 128,-1,82
 162 1155 162 1155 217.5 1204 c 128,-1,83
 273 1253 273 1253 349.5 1281 c 128,-1,84
 426 1309 426 1309 518 1309 c 0,85,86
 634 1309 634 1309 736 1260 c 128,-1,87
 838 1211 838 1211 909 1118 c 1,88,-1
 780 946 l 1,0,1
EndSplineSet
EndChar
StartChar: scedilla
Encoding: 351 351 237
Width: 1024
Flags: W
LayerCount: 2
Back
Fore
SplineSet
799 645 m 1,0,1
 791 645 791 645 786.5 649.5 c 128,-1,2
 782 654 782 654 779.5 660.5 c 128,-1,3
 777 667 777 667 775 674.5 c 128,-1,4
 773 682 773 682 770 688 c 0,5,6
 752 710 752 710 725 730.5 c 128,-1,7
 698 751 698 751 665.5 766 c 128,-1,8
 633 781 633 781 596.5 790 c 128,-1,9
 560 799 560 799 524 799 c 0,10,11
 493 799 493 799 465 794.5 c 128,-1,12
 437 790 437 790 415.5 780 c 128,-1,13
 394 770 394 770 381.5 754 c 128,-1,14
 369 738 369 738 369 715 c 0,15,16
 369 689 369 689 382.5 671.5 c 128,-1,17
 396 654 396 654 423 639.5 c 128,-1,18
 450 625 450 625 491 612 c 128,-1,19
 532 599 532 599 588 584 c 0,20,21
 759 536 759 536 839.5 461 c 128,-1,22
 920 386 920 386 920 289 c 0,23,24
 920 232 920 232 897.5 180 c 128,-1,25
 875 128 875 128 833.5 86 c 128,-1,26
 792 44 792 44 732.5 14.5 c 128,-1,27
 673 -15 673 -15 598 -27 c 1,28,-1
 594 -63 l 1,29,30
 671 -71 671 -71 712.5 -110 c 128,-1,31
 754 -149 754 -149 754 -209 c 0,32,33
 754 -241 754 -241 738 -273.5 c 128,-1,34
 722 -306 722 -306 689.5 -331.5 c 128,-1,35
 657 -357 657 -357 608 -373 c 128,-1,36
 559 -389 559 -389 492 -389 c 0,37,38
 427 -389 427 -389 361 -367.5 c 128,-1,39
 295 -346 295 -346 233 -295 c 1,40,-1
 309 -166 l 1,41,42
 339 -191 339 -191 365 -207.5 c 128,-1,43
 391 -224 391 -224 416 -233.5 c 128,-1,44
 441 -243 441 -243 465.5 -246.5 c 128,-1,45
 490 -250 490 -250 516 -250 c 0,46,47
 545 -250 545 -250 556 -238 c 128,-1,48
 567 -226 567 -226 567 -215 c 256,49,50
 567 -204 567 -204 553.5 -193 c 128,-1,51
 540 -182 540 -182 514 -182 c 2,52,-1
 414 -182 l 1,53,-1
 434 -29 l 1,54,55
 338 -18 338 -18 254.5 20 c 128,-1,56
 171 58 171 58 96 129 c 1,57,-1
 215 344 l 1,58,59
 227 342 227 342 233 329.5 c 128,-1,60
 239 317 239 317 248 295 c 0,61,62
 264 269 264 269 294 244.5 c 128,-1,63
 324 220 324 220 361 200 c 128,-1,64
 398 180 398 180 438.5 168 c 128,-1,65
 479 156 479 156 516 156 c 0,66,67
 598 156 598 156 643 179.5 c 128,-1,68
 688 203 688 203 688 250 c 0,69,70
 688 274 688 274 678 292 c 128,-1,71
 668 310 668 310 646.5 325.5 c 128,-1,72
 625 341 625 341 590 354.5 c 128,-1,73
 555 368 555 368 504 383 c 0,74,75
 476 391 476 391 448.5 399 c 128,-1,76
 421 407 421 407 393 418 c 0,77,78
 337 439 337 439 293 465.5 c 128,-1,79
 249 492 249 492 218.5 525 c 128,-1,80
 188 558 188 558 172 599.5 c 128,-1,81
 156 641 156 641 156 692 c 256,82,83
 156 743 156 743 184.5 794 c 128,-1,84
 213 845 213 845 263 885.5 c 128,-1,85
 313 926 313 926 382.5 951.5 c 128,-1,86
 452 977 452 977 535 977 c 0,87,88
 644 977 644 977 737.5 938 c 128,-1,89
 831 899 831 899 909 811 c 1,90,-1
 799 645 l 1,0,1
EndSplineSet
EndChar
StartChar: Tcedilla
Encoding: 354 354 240
Width: 1024
Flags: W
LayerCount: 2
Back
Fore
SplineSet
41 1276 m 1,0,-1
 981 1276 l 1,1,-1
 981 1077 l 1,2,-1
 621 1077 l 1,3,-1
 621 0 l 1,4,-1
 582 0 l 1,5,-1
 573 -63 l 1,6,7
 651 -71 651 -71 692 -110 c 128,-1,8
 733 -149 733 -149 733 -209 c 0,9,10
 733 -241 733 -241 717 -273.5 c 128,-1,11
 701 -306 701 -306 668.5 -331.5 c 128,-1,12
 636 -357 636 -357 587 -373 c 128,-1,13
 538 -389 538 -389 471 -389 c 0,14,15
 406 -389 406 -389 340.5 -367.5 c 128,-1,16
 275 -346 275 -346 213 -295 c 1,17,-1
 289 -166 l 1,18,19
 319 -191 319 -191 345 -207.5 c 128,-1,20
 371 -224 371 -224 396 -233.5 c 128,-1,21
 421 -243 421 -243 445.5 -246.5 c 128,-1,22
 470 -250 470 -250 496 -250 c 0,23,24
 525 -250 525 -250 536 -238 c 128,-1,25
 547 -226 547 -226 547 -215 c 256,26,27
 547 -204 547 -204 533.5 -193 c 128,-1,28
 520 -182 520 -182 494 -182 c 2,29,-1
 393 -182 l 1,30,-1
 418 0 l 1,31,-1
 387 0 l 1,32,-1
 387 1077 l 1,33,-1
 41 1077 l 1,34,-1
 41 1276 l 1,0,-1
EndSplineSet
EndChar
StartChar: tcedilla
Encoding: 355 355 241
Width: 1024
Flags: W
LayerCount: 2
Back
Fore
SplineSet
348 1180 m 1,0,-1
 602 1223 l 1,1,2
 602 1197 602 1197 594 1180 c 128,-1,3
 586 1163 586 1163 580 1141 c 2,4,-1
 559 956 l 1,5,-1
 848 956 l 1,6,-1
 848 770 l 1,7,-1
 551 770 l 1,8,9
 548 696 548 696 541.5 617 c 128,-1,10
 535 538 535 538 535 461 c 0,11,12
 535 383 535 383 538.5 327 c 128,-1,13
 542 271 542 271 553.5 236 c 128,-1,14
 565 201 565 201 586.5 184.5 c 128,-1,15
 608 168 608 168 643 168 c 0,16,17
 677 168 677 168 733 197.5 c 128,-1,18
 789 227 789 227 860 281 c 1,19,-1
 932 92 l 1,20,21
 872 49 872 49 813.5 20.5 c 128,-1,22
 755 -8 755 -8 696 -20 c 1,23,-1
 692 -63 l 1,24,25
 770 -71 770 -71 811 -110 c 128,-1,26
 852 -149 852 -149 852 -209 c 0,27,28
 852 -241 852 -241 836 -273.5 c 128,-1,29
 820 -306 820 -306 787.5 -331.5 c 128,-1,30
 755 -357 755 -357 706 -373 c 128,-1,31
 657 -389 657 -389 590 -389 c 0,32,33
 525 -389 525 -389 459.5 -367.5 c 128,-1,34
 394 -346 394 -346 332 -295 c 1,35,-1
 408 -166 l 1,36,37
 438 -191 438 -191 464 -207.5 c 128,-1,38
 490 -224 490 -224 514.5 -233.5 c 128,-1,39
 539 -243 539 -243 563.5 -246.5 c 128,-1,40
 588 -250 588 -250 614 -250 c 0,41,42
 643 -250 643 -250 654.5 -238 c 128,-1,43
 666 -226 666 -226 666 -215 c 256,44,45
 666 -204 666 -204 652 -193 c 128,-1,46
 638 -182 638 -182 612 -182 c 2,47,-1
 512 -182 l 1,48,-1
 532 -27 l 1,49,50
 413 -7 413 -7 358 86 c 128,-1,51
 303 179 303 179 303 358 c 0,52,53
 303 427 303 427 307 528.5 c 128,-1,54
 311 630 311 630 322 770 c 1,55,-1
 115 770 l 1,56,-1
 115 956 l 1,57,-1
 334 956 l 1,58,-1
 348 1180 l 1,0,-1
EndSplineSet
EndChar
StartChar: florin
Encoding: 402 402 254
Width: 1024
Flags: W
LayerCount: 2
Back
Fore
SplineSet
926 1087 m 1,0,1
 892 1087 892 1087 873 1099 c 128,-1,2
 854 1111 854 1111 848 1139 c 0,3,4
 840 1171 840 1171 813.5 1187.5 c 128,-1,5
 787 1204 787 1204 750 1204 c 0,6,7
 727 1204 727 1204 705 1194 c 128,-1,8
 683 1184 683 1184 666 1157 c 128,-1,9
 649 1130 649 1130 637 1081.5 c 128,-1,10
 625 1033 625 1033 621 956 c 2,11,-1
 612 817 l 1,12,-1
 840 817 l 1,13,-1
 840 633 l 1,14,-1
 596 633 l 1,15,16
 591 566 591 566 586 493.5 c 128,-1,17
 581 421 581 421 575 346.5 c 128,-1,18
 569 272 569 272 562.5 199 c 128,-1,19
 556 126 556 126 549 59 c 0,20,21
 538 -48 538 -48 509.5 -126.5 c 128,-1,22
 481 -205 481 -205 438.5 -256.5 c 128,-1,23
 396 -308 396 -308 341.5 -333 c 128,-1,24
 287 -358 287 -358 225 -358 c 0,25,26
 168 -358 168 -358 115.5 -333.5 c 128,-1,27
 63 -309 63 -309 16 -258 c 1,28,-1
 131 -78 l 1,29,30
 154 -80 154 -80 162 -89.5 c 128,-1,31
 170 -99 170 -99 176 -109 c 0,32,33
 187 -130 187 -130 203.5 -143 c 128,-1,34
 220 -156 220 -156 240 -156 c 0,35,36
 275 -156 275 -156 297.5 -95 c 128,-1,37
 320 -34 320 -34 328 68 c 2,38,-1
 373 633 l 1,39,-1
 145 633 l 1,40,-1
 145 817 l 1,41,-1
 383 817 l 1,42,-1
 397 981 l 2,43,44
 416 1193 416 1193 505.5 1291 c 128,-1,45
 595 1389 595 1389 741 1389 c 0,46,47
 893 1389 893 1389 1006 1255 c 1,48,-1
 926 1087 l 1,0,1
EndSplineSet
EndChar
StartChar: dotlessj
Encoding: 567 567 255
Width: 1024
Flags: W
LayerCount: 2
Back
Fore
SplineSet
203 956 m 1,0,-1
 766 956 l 1,1,-1
 766 47 l 2,2,3
 766 -61 766 -61 735.5 -138.5 c 128,-1,4
 705 -216 705 -216 652.5 -265.5 c 128,-1,5
 600 -315 600 -315 529 -338.5 c 128,-1,6
 458 -362 458 -362 377 -362 c 0,7,8
 281 -362 281 -362 202.5 -321.5 c 128,-1,9
 124 -281 124 -281 59 -203 c 1,10,-1
 201 -16 l 1,11,12
 211 -20 211 -20 214.5 -25.5 c 128,-1,13
 218 -31 218 -31 220 -38.5 c 128,-1,14
 222 -46 222 -46 226 -56.5 c 128,-1,15
 230 -67 230 -67 240 -82 c 0,16,17
 250 -96 250 -96 265 -111 c 128,-1,18
 280 -126 280 -126 298.5 -139 c 128,-1,19
 317 -152 317 -152 338.5 -160 c 128,-1,20
 360 -168 360 -168 383 -168 c 0,21,22
 414 -168 414 -168 442 -156.5 c 128,-1,23
 470 -145 470 -145 490.5 -120 c 128,-1,24
 511 -95 511 -95 523 -56 c 128,-1,25
 535 -17 535 -17 535 39 c 2,26,-1
 535 770 l 1,27,-1
 203 770 l 1,28,-1
 203 956 l 1,0,-1
EndSplineSet
EndChar
StartChar: afii57929
Encoding: 700 700 299
Width: 1024
Flags: W
LayerCount: 2
Back
Fore
SplineSet
668 1239 m 0,0,1
 668 1102 668 1102 463 897 c 1,2,-1
 344 999 l 1,3,4
 369 1023 369 1023 390.5 1047 c 128,-1,5
 412 1071 412 1071 427 1092 c 128,-1,6
 442 1113 442 1113 450.5 1130.5 c 128,-1,7
 459 1148 459 1148 459 1159 c 0,8,9
 459 1162 459 1162 452.5 1169 c 128,-1,10
 446 1176 446 1176 438 1184 c 0,11,12
 417 1202 417 1202 399 1223 c 128,-1,13
 381 1244 381 1244 381 1276 c 0,14,15
 381 1303 381 1303 391 1326 c 128,-1,16
 401 1349 401 1349 419.5 1365.5 c 128,-1,17
 438 1382 438 1382 463 1391.5 c 128,-1,18
 488 1401 488 1401 518 1401 c 0,19,20
 547 1401 547 1401 574 1389 c 128,-1,21
 601 1377 601 1377 622 1356 c 128,-1,22
 643 1335 643 1335 655.5 1305 c 128,-1,23
 668 1275 668 1275 668 1239 c 0,0,1
EndSplineSet
EndChar
StartChar: circumflex
Encoding: 710 710 256
Width: 1024
Flags: W
LayerCount: 2
Back
Fore
SplineSet
254 1130 m 1,0,-1
 489 1427 l 1,1,-1
 555 1427 l 1,2,-1
 791 1128 l 1,3,-1
 672 1040 l 1,4,-1
 516 1221 l 1,5,-1
 352 1042 l 1,6,-1
 254 1130 l 1,0,-1
EndSplineSet
EndChar
StartChar: caron
Encoding: 711 711 257
Width: 1024
Flags: W
LayerCount: 2
Back
Fore
SplineSet
791 1348 m 1,0,-1
 555 1051 l 1,1,-1
 489 1051 l 1,2,-1
 254 1350 l 1,3,-1
 373 1438 l 1,4,-1
 528 1257 l 1,5,-1
 692 1436 l 1,6,-1
 791 1348 l 1,0,-1
EndSplineSet
EndChar
StartChar: uni02CB
Encoding: 715 715 259
Width: 1024
Flags: W
LayerCount: 2
Back
Fore
SplineSet
686 1126 m 1,0,-1
 571 1059 l 1,1,-1
 356 1348 l 1,2,-1
 522 1462 l 1,3,-1
 686 1126 l 1,0,-1
EndSplineSet
EndChar
StartChar: breve
Encoding: 728 728 260
Width: 1024
Flags: W
LayerCount: 2
Back
Fore
SplineSet
299 1382 m 1,0,1
 342 1307 342 1307 400.5 1272 c 128,-1,2
 459 1237 459 1237 518 1237 c 0,3,4
 545 1237 545 1237 573.5 1244 c 128,-1,5
 602 1251 602 1251 631 1268 c 128,-1,6
 660 1285 660 1285 688 1313 c 128,-1,7
 716 1341 716 1341 743 1382 c 1,8,-1
 842 1235 l 1,9,10
 808 1193 808 1193 768 1161 c 128,-1,11
 728 1129 728 1129 685.5 1106.5 c 128,-1,12
 643 1084 643 1084 598.5 1072.5 c 128,-1,13
 554 1061 554 1061 512 1061 c 0,14,15
 432 1061 432 1061 346.5 1100.5 c 128,-1,16
 261 1140 261 1140 174 1231 c 1,17,-1
 299 1382 l 1,0,1
EndSplineSet
EndChar
StartChar: dotaccent
Encoding: 729 729 261
Width: 1024
Flags: W
LayerCount: 2
Back
Fore
SplineSet
418 1354 m 0,0,1
 457 1393 457 1393 520 1393 c 0,2,3
 548 1393 548 1393 574.5 1382 c 128,-1,4
 601 1371 601 1371 620.5 1352.5 c 128,-1,5
 640 1334 640 1334 652 1309.5 c 128,-1,6
 664 1285 664 1285 664 1257 c 0,7,8
 664 1230 664 1230 652 1205.5 c 128,-1,9
 640 1181 640 1181 620.5 1162.5 c 128,-1,10
 601 1144 601 1144 574.5 1133 c 128,-1,11
 548 1122 548 1122 520 1122 c 0,12,13
 490 1122 490 1122 464 1133 c 128,-1,14
 438 1144 438 1144 418.5 1162.5 c 128,-1,15
 399 1181 399 1181 388 1205.5 c 128,-1,16
 377 1230 377 1230 377 1257 c 0,17,18
 377 1285 377 1285 386.5 1308.5 c 128,-1,19
 396 1332 396 1332 418 1354 c 0,0,1
EndSplineSet
EndChar
StartChar: ring
Encoding: 730 730 262
Width: 1024
Flags: W
LayerCount: 2
Back
Fore
SplineSet
510 1456 m 0,0,1
 554 1456 554 1456 593 1440 c 128,-1,2
 632 1424 632 1424 661.5 1396 c 128,-1,3
 691 1368 691 1368 708 1331.5 c 128,-1,4
 725 1295 725 1295 725 1253 c 256,5,6
 725 1211 725 1211 708 1174 c 128,-1,7
 691 1137 691 1137 661.5 1109 c 128,-1,8
 632 1081 632 1081 593 1065 c 128,-1,9
 554 1049 554 1049 510 1049 c 0,10,11
 467 1049 467 1049 428.5 1065 c 128,-1,12
 390 1081 390 1081 361.5 1109 c 128,-1,13
 333 1137 333 1137 316 1174 c 128,-1,14
 299 1211 299 1211 299 1253 c 256,15,16
 299 1295 299 1295 316 1331.5 c 128,-1,17
 333 1368 333 1368 361.5 1396 c 128,-1,18
 390 1424 390 1424 428.5 1440 c 128,-1,19
 467 1456 467 1456 510 1456 c 0,0,1
446 1255 m 256,20,21
 446 1223 446 1223 465 1201.5 c 128,-1,22
 484 1180 484 1180 512 1180 c 256,23,24
 540 1180 540 1180 559 1201.5 c 128,-1,25
 578 1223 578 1223 578 1255 c 256,26,27
 578 1287 578 1287 559 1310 c 128,-1,28
 540 1333 540 1333 512 1333 c 256,29,30
 484 1333 484 1333 465 1310 c 128,-1,31
 446 1287 446 1287 446 1255 c 256,20,21
EndSplineSet
EndChar
StartChar: ogonek
Encoding: 731 731 263
Width: 1024
Flags: W
LayerCount: 2
Back
Fore
SplineSet
905 0 m 1,0,1
 857 -45 857 -45 826 -73.5 c 128,-1,2
 795 -102 795 -102 777 -121 c 128,-1,3
 759 -140 759 -140 752 -152 c 128,-1,4
 745 -164 745 -164 745 -176 c 0,5,6
 745 -190 745 -190 753 -199.5 c 128,-1,7
 761 -209 761 -209 776 -209 c 0,8,9
 788 -209 788 -209 799 -206 c 128,-1,10
 810 -203 810 -203 824.5 -194 c 128,-1,11
 839 -185 839 -185 858 -169.5 c 128,-1,12
 877 -154 877 -154 905 -129 c 1,13,-1
 905 -307 l 1,14,15
 863 -339 863 -339 821 -356 c 128,-1,16
 779 -373 779 -373 731 -373 c 0,17,18
 634 -373 634 -373 588.5 -331 c 128,-1,19
 543 -289 543 -289 543 -223 c 0,20,21
 543 -199 543 -199 549 -175.5 c 128,-1,22
 555 -152 555 -152 571 -126 c 128,-1,23
 587 -100 587 -100 615 -69.5 c 128,-1,24
 643 -39 643 -39 686 0 c 1,25,-1
 905 0 l 1,0,1
EndSplineSet
EndChar
StartChar: tilde
Encoding: 732 732 264
Width: 1024
Flags: W
LayerCount: 2
Back
Fore
SplineSet
176 1217 m 1,0,1
 301 1421 301 1421 434 1421 c 0,2,3
 478 1421 478 1421 513.5 1400.5 c 128,-1,4
 549 1380 549 1380 578 1352 c 0,5,6
 585 1344 585 1344 594.5 1334 c 128,-1,7
 604 1324 604 1324 614 1315 c 128,-1,8
 624 1306 624 1306 635.5 1300 c 128,-1,9
 647 1294 647 1294 659 1294 c 0,10,11
 674 1294 674 1294 688 1304 c 128,-1,12
 702 1314 702 1314 715.5 1330.5 c 128,-1,13
 729 1347 729 1347 742.5 1368 c 128,-1,14
 756 1389 756 1389 770 1411 c 1,15,-1
 883 1284 l 1,16,17
 850 1243 850 1243 822.5 1211 c 128,-1,18
 795 1179 795 1179 770 1157 c 128,-1,19
 745 1135 745 1135 720 1123.5 c 128,-1,20
 695 1112 695 1112 668 1112 c 0,21,22
 629 1112 629 1112 596.5 1128.5 c 128,-1,23
 564 1145 564 1145 535 1169 c 0,24,25
 526 1177 526 1177 514 1190 c 128,-1,26
 502 1203 502 1203 488.5 1216 c 128,-1,27
 475 1229 475 1229 460 1238 c 128,-1,28
 445 1247 445 1247 430 1247 c 0,29,30
 399 1247 399 1247 375 1213.5 c 128,-1,31
 351 1180 351 1180 317 1114 c 1,32,-1
 176 1217 l 1,0,1
EndSplineSet
EndChar
StartChar: hungarumlaut
Encoding: 733 733 265
Width: 1024
Flags: W
LayerCount: 2
Back
Fore
SplineSet
412 1462 m 1,0,-1
 578 1348 l 1,1,-1
 362 1059 l 1,2,-1
 248 1126 l 1,3,-1
 412 1462 l 1,0,-1
729 1462 m 1,4,-1
 895 1348 l 1,5,-1
 680 1059 l 1,6,-1
 565 1126 l 1,7,-1
 729 1462 l 1,4,-1
EndSplineSet
EndChar
StartChar: endash
Encoding: 8211 8211 305
Width: 1024
Flags: W
LayerCount: 2
Back
Fore
SplineSet
66 750 m 5,0,-1
 958 750 l 5,1,-1
 958 563 l 5,2,-1
 66 563 l 5,3,-1
 66 750 l 5,0,-1
EndSplineSet
EndChar
StartChar: emdash
Encoding: 8212 8212 304
Width: 1024
Flags: W
LayerCount: 2
Back
Fore
SplineSet
62 750 m 5,0,-1
 975 750 l 5,1,-1
 975 563 l 5,2,-1
 62 563 l 5,3,-1
 62 750 l 5,0,-1
EndSplineSet
EndChar
StartChar: quoteleft
Encoding: 8216 8216 266
Width: 1024
Flags: W
LayerCount: 2
Back
Fore
SplineSet
336 920 m 0,0,1
 336 1001 336 1001 396 1101.5 c 128,-1,2
 456 1202 456 1202 578 1327 c 1,3,-1
 692 1223 l 1,4,5
 663 1196 663 1196 639 1167.5 c 128,-1,6
 615 1139 615 1139 597 1112 c 128,-1,7
 579 1085 579 1085 569 1061.5 c 128,-1,8
 559 1038 559 1038 559 1022 c 0,9,10
 559 1011 559 1011 568 1001.5 c 128,-1,11
 577 992 577 992 590 981 c 0,12,13
 616 959 616 959 636.5 934.5 c 128,-1,14
 657 910 657 910 657 874 c 0,15,16
 657 844 657 844 646 818 c 128,-1,17
 635 792 635 792 615 772.5 c 128,-1,18
 595 753 595 753 566.5 742 c 128,-1,19
 538 731 538 731 504 731 c 0,20,21
 472 731 472 731 441.5 745 c 128,-1,22
 411 759 411 759 387.5 784 c 128,-1,23
 364 809 364 809 350 843.5 c 128,-1,24
 336 878 336 878 336 920 c 0,0,1
EndSplineSet
EndChar
StartChar: quoteright
Encoding: 8217 8217 267
Width: 1024
Flags: W
LayerCount: 2
Back
Fore
SplineSet
659 1139 m 0,0,1
 659 1057 659 1057 599.5 956.5 c 128,-1,2
 540 856 540 856 418 731 c 1,3,-1
 303 836 l 1,4,5
 331 863 331 863 355.5 891.5 c 128,-1,6
 380 920 380 920 398 946.5 c 128,-1,7
 416 973 416 973 426 996.5 c 128,-1,8
 436 1020 436 1020 436 1036 c 0,9,10
 436 1047 436 1047 427 1056.5 c 128,-1,11
 418 1066 418 1066 406 1077 c 0,12,13
 380 1099 380 1099 359 1124 c 128,-1,14
 338 1149 338 1149 338 1184 c 0,15,16
 338 1214 338 1214 349 1240 c 128,-1,17
 360 1266 360 1266 380 1285.5 c 128,-1,18
 400 1305 400 1305 428.5 1316 c 128,-1,19
 457 1327 457 1327 492 1327 c 0,20,21
 524 1327 524 1327 554 1313 c 128,-1,22
 584 1299 584 1299 607.5 1274 c 128,-1,23
 631 1249 631 1249 645 1214.5 c 128,-1,24
 659 1180 659 1180 659 1139 c 0,0,1
EndSplineSet
EndChar
StartChar: quotesinglbase
Encoding: 8218 8218 268
Width: 1024
Flags: W
LayerCount: 2
Back
Fore
SplineSet
662 61 m 0,0,1
 662 -20 662 -20 602 -120.5 c 128,-1,2
 542 -221 542 -221 420 -346 c 1,3,-1
 305 -242 l 1,4,5
 333 -215 333 -215 357.5 -186.5 c 128,-1,6
 382 -158 382 -158 400 -131 c 128,-1,7
 418 -104 418 -104 428 -80.5 c 128,-1,8
 438 -57 438 -57 438 -41 c 0,9,10
 438 -30 438 -30 429 -20.5 c 128,-1,11
 420 -11 420 -11 408 0 c 0,12,13
 382 22 382 22 361 46.5 c 128,-1,14
 340 71 340 71 340 106 c 0,15,16
 340 136 340 136 351 162 c 128,-1,17
 362 188 362 188 382 207.5 c 128,-1,18
 402 227 402 227 430.5 238.5 c 128,-1,19
 459 250 459 250 494 250 c 0,20,21
 526 250 526 250 556.5 236 c 128,-1,22
 587 222 587 222 610.5 197 c 128,-1,23
 634 172 634 172 648 137.5 c 128,-1,24
 662 103 662 103 662 61 c 0,0,1
EndSplineSet
EndChar
StartChar: quotedblleft
Encoding: 8220 8220 269
Width: 1024
Flags: W
LayerCount: 2
Back
Fore
SplineSet
553 920 m 0,0,1
 553 1001 553 1001 613 1101.5 c 128,-1,2
 673 1202 673 1202 795 1327 c 1,3,-1
 909 1223 l 1,4,5
 881 1196 881 1196 856.5 1167.5 c 128,-1,6
 832 1139 832 1139 814 1112 c 128,-1,7
 796 1085 796 1085 786 1061.5 c 128,-1,8
 776 1038 776 1038 776 1022 c 0,9,10
 776 1011 776 1011 785.5 1001.5 c 128,-1,11
 795 992 795 992 807 981 c 0,12,13
 833 959 833 959 853.5 934.5 c 128,-1,14
 874 910 874 910 874 874 c 0,15,16
 874 844 874 844 863 818 c 128,-1,17
 852 792 852 792 832 772.5 c 128,-1,18
 812 753 812 753 783.5 742 c 128,-1,19
 755 731 755 731 721 731 c 0,20,21
 689 731 689 731 658.5 745 c 128,-1,22
 628 759 628 759 604.5 784 c 128,-1,23
 581 809 581 809 567 843.5 c 128,-1,24
 553 878 553 878 553 920 c 0,0,1
131 920 m 0,25,26
 131 1001 131 1001 191 1101.5 c 128,-1,27
 251 1202 251 1202 373 1327 c 1,28,-1
 487 1223 l 1,29,30
 459 1196 459 1196 434.5 1167.5 c 128,-1,31
 410 1139 410 1139 392 1112 c 128,-1,32
 374 1085 374 1085 364 1061.5 c 128,-1,33
 354 1038 354 1038 354 1022 c 0,34,35
 354 1011 354 1011 363.5 1001.5 c 128,-1,36
 373 992 373 992 385 981 c 0,37,38
 411 959 411 959 432 934.5 c 128,-1,39
 453 910 453 910 453 874 c 0,40,41
 453 844 453 844 442 818 c 128,-1,42
 431 792 431 792 410.5 772.5 c 128,-1,43
 390 753 390 753 361.5 742 c 128,-1,44
 333 731 333 731 299 731 c 0,45,46
 267 731 267 731 236.5 745 c 128,-1,47
 206 759 206 759 182.5 784 c 128,-1,48
 159 809 159 809 145 843.5 c 128,-1,49
 131 878 131 878 131 920 c 0,25,26
EndSplineSet
EndChar
StartChar: quotedblright
Encoding: 8221 8221 270
Width: 1024
Flags: W
LayerCount: 2
Back
Fore
SplineSet
457 1139 m 0,0,1
 457 1057 457 1057 397 956.5 c 128,-1,2
 337 856 337 856 215 731 c 1,3,-1
 100 836 l 1,4,5
 128 863 128 863 152.5 891.5 c 128,-1,6
 177 920 177 920 195 946.5 c 128,-1,7
 213 973 213 973 223 996.5 c 128,-1,8
 233 1020 233 1020 233 1036 c 0,9,10
 233 1047 233 1047 224 1056.5 c 128,-1,11
 215 1066 215 1066 203 1077 c 0,12,13
 177 1099 177 1099 156 1124 c 128,-1,14
 135 1149 135 1149 135 1184 c 0,15,16
 135 1214 135 1214 146 1240 c 128,-1,17
 157 1266 157 1266 177.5 1285.5 c 128,-1,18
 198 1305 198 1305 226 1316 c 128,-1,19
 254 1327 254 1327 289 1327 c 0,20,21
 321 1327 321 1327 351.5 1313 c 128,-1,22
 382 1299 382 1299 405.5 1274 c 128,-1,23
 429 1249 429 1249 443 1214.5 c 128,-1,24
 457 1180 457 1180 457 1139 c 0,0,1
879 1139 m 0,25,26
 879 1057 879 1057 819 956.5 c 128,-1,27
 759 856 759 856 637 731 c 1,28,-1
 522 836 l 1,29,30
 550 863 550 863 574.5 891.5 c 128,-1,31
 599 920 599 920 617 946.5 c 128,-1,32
 635 973 635 973 645 996.5 c 128,-1,33
 655 1020 655 1020 655 1036 c 0,34,35
 655 1047 655 1047 646 1056.5 c 128,-1,36
 637 1066 637 1066 625 1077 c 0,37,38
 599 1099 599 1099 578 1124 c 128,-1,39
 557 1149 557 1149 557 1184 c 0,40,41
 557 1214 557 1214 568 1240 c 128,-1,42
 579 1266 579 1266 599 1285.5 c 128,-1,43
 619 1305 619 1305 647.5 1316 c 128,-1,44
 676 1327 676 1327 711 1327 c 0,45,46
 743 1327 743 1327 773.5 1313 c 128,-1,47
 804 1299 804 1299 827.5 1274 c 128,-1,48
 851 1249 851 1249 865 1214.5 c 128,-1,49
 879 1180 879 1180 879 1139 c 0,25,26
EndSplineSet
EndChar
StartChar: quotedblbase
Encoding: 8222 8222 271
Width: 1024
Flags: W
LayerCount: 2
Back
Fore
SplineSet
457 61 m 0,0,1
 457 -20 457 -20 397 -120.5 c 128,-1,2
 337 -221 337 -221 215 -346 c 1,3,-1
 100 -242 l 1,4,5
 128 -215 128 -215 152.5 -186.5 c 128,-1,6
 177 -158 177 -158 195 -131 c 128,-1,7
 213 -104 213 -104 223 -80.5 c 128,-1,8
 233 -57 233 -57 233 -41 c 0,9,10
 233 -30 233 -30 224 -20.5 c 128,-1,11
 215 -11 215 -11 203 0 c 0,12,13
 177 22 177 22 156 46.5 c 128,-1,14
 135 71 135 71 135 106 c 0,15,16
 135 136 135 136 146 162 c 128,-1,17
 157 188 157 188 177.5 207.5 c 128,-1,18
 198 227 198 227 226 238.5 c 128,-1,19
 254 250 254 250 289 250 c 0,20,21
 321 250 321 250 351.5 236 c 128,-1,22
 382 222 382 222 405.5 197 c 128,-1,23
 429 172 429 172 443 137.5 c 128,-1,24
 457 103 457 103 457 61 c 0,0,1
879 61 m 0,25,26
 879 -20 879 -20 819 -120.5 c 128,-1,27
 759 -221 759 -221 637 -346 c 1,28,-1
 522 -242 l 1,29,30
 550 -215 550 -215 574.5 -186.5 c 128,-1,31
 599 -158 599 -158 617 -131 c 128,-1,32
 635 -104 635 -104 645 -80.5 c 128,-1,33
 655 -57 655 -57 655 -41 c 0,34,35
 655 -30 655 -30 646 -20.5 c 128,-1,36
 637 -11 637 -11 625 0 c 0,37,38
 599 22 599 22 578 46.5 c 128,-1,39
 557 71 557 71 557 106 c 0,40,41
 557 136 557 136 568 162 c 128,-1,42
 579 188 579 188 599 207.5 c 128,-1,43
 619 227 619 227 647.5 238.5 c 128,-1,44
 676 250 676 250 711 250 c 0,45,46
 743 250 743 250 773.5 236 c 128,-1,47
 804 222 804 222 827.5 197 c 128,-1,48
 851 172 851 172 865 137.5 c 128,-1,49
 879 103 879 103 879 61 c 0,25,26
EndSplineSet
EndChar
StartChar: dagger
Encoding: 8224 8224 272
Width: 1024
Flags: W
LayerCount: 2
Back
Fore
SplineSet
397 1335 m 1,0,-1
 618 1335 l 1,1,-1
 618 971 l 1,2,-1
 932 971 l 1,3,-1
 932 782 l 1,4,-1
 618 782 l 1,5,-1
 618 -307 l 1,6,-1
 397 -307 l 1,7,-1
 397 782 l 1,8,-1
 82 782 l 1,9,-1
 82 971 l 1,10,-1
 397 971 l 1,11,-1
 397 1335 l 1,0,-1
EndSplineSet
EndChar
StartChar: daggerdbl
Encoding: 8225 8225 273
Width: 1024
Flags: W
LayerCount: 2
Back
Fore
SplineSet
397 1333 m 1,0,-1
 618 1333 l 1,1,-1
 618 969 l 1,2,-1
 932 969 l 1,3,-1
 932 780 l 1,4,-1
 618 780 l 1,5,-1
 618 283 l 1,6,-1
 932 283 l 1,7,-1
 932 92 l 1,8,-1
 618 92 l 1,9,-1
 618 -307 l 1,10,-1
 397 -307 l 1,11,-1
 397 92 l 1,12,-1
 82 92 l 1,13,-1
 82 283 l 1,14,-1
 397 283 l 1,15,-1
 397 780 l 1,16,-1
 82 780 l 1,17,-1
 82 969 l 1,18,-1
 397 969 l 1,19,-1
 397 1333 l 1,0,-1
EndSplineSet
EndChar
StartChar: bullet
Encoding: 8226 8226 274
Width: 1024
Flags: W
LayerCount: 2
Back
Fore
SplineSet
313 616 m 256,0,1
 313 656 313 656 329.5 691.5 c 128,-1,2
 346 727 346 727 374 753.5 c 128,-1,3
 402 780 402 780 439.5 795.5 c 128,-1,4
 477 811 477 811 520 811 c 256,5,6
 563 811 563 811 601 795.5 c 128,-1,7
 639 780 639 780 667 753.5 c 128,-1,8
 695 727 695 727 711 691.5 c 128,-1,9
 727 656 727 656 727 616 c 256,10,11
 727 576 727 576 711 541 c 128,-1,12
 695 506 695 506 667 479.5 c 128,-1,13
 639 453 639 453 601 437.5 c 128,-1,14
 563 422 563 422 520 422 c 256,15,16
 477 422 477 422 439.5 437.5 c 128,-1,17
 402 453 402 453 374 479.5 c 128,-1,18
 346 506 346 506 329.5 541 c 128,-1,19
 313 576 313 576 313 616 c 256,0,1
EndSplineSet
EndChar
StartChar: ellipsis
Encoding: 8230 8230 275
Width: 1024
Flags: W
LayerCount: 2
Back
Fore
SplineSet
350 111 m 256,0,1
 350 140 350 140 360.5 165.5 c 128,-1,2
 371 191 371 191 390.5 209.5 c 128,-1,3
 410 228 410 228 436 239 c 128,-1,4
 462 250 462 250 494 250 c 0,5,6
 525 250 525 250 552 239 c 128,-1,7
 579 228 579 228 598 209.5 c 128,-1,8
 617 191 617 191 628 165.5 c 128,-1,9
 639 140 639 140 639 111 c 256,10,11
 639 82 639 82 628 56.5 c 128,-1,12
 617 31 617 31 598 12 c 128,-1,13
 579 -7 579 -7 552 -18 c 128,-1,14
 525 -29 525 -29 494 -29 c 0,15,16
 462 -29 462 -29 436 -18 c 128,-1,17
 410 -7 410 -7 390.5 12 c 128,-1,18
 371 31 371 31 360.5 56.5 c 128,-1,19
 350 82 350 82 350 111 c 256,0,1
688 111 m 256,20,21
 688 140 688 140 698.5 165.5 c 128,-1,22
 709 191 709 191 728 209.5 c 128,-1,23
 747 228 747 228 773.5 239 c 128,-1,24
 800 250 800 250 831 250 c 256,25,26
 862 250 862 250 889 239 c 128,-1,27
 916 228 916 228 935.5 209.5 c 128,-1,28
 955 191 955 191 966 165.5 c 128,-1,29
 977 140 977 140 977 111 c 256,30,31
 977 82 977 82 966 56.5 c 128,-1,32
 955 31 955 31 935.5 12 c 128,-1,33
 916 -7 916 -7 889 -18 c 128,-1,34
 862 -29 862 -29 831 -29 c 256,35,36
 800 -29 800 -29 773.5 -18 c 128,-1,37
 747 -7 747 -7 728 12 c 128,-1,38
 709 31 709 31 698.5 56.5 c 128,-1,39
 688 82 688 82 688 111 c 256,20,21
10 111 m 256,40,41
 10 140 10 140 20.5 165.5 c 128,-1,42
 31 191 31 191 50.5 209.5 c 128,-1,43
 70 228 70 228 96 239 c 128,-1,44
 122 250 122 250 154 250 c 0,45,46
 185 250 185 250 212 239 c 128,-1,47
 239 228 239 228 258 209.5 c 128,-1,48
 277 191 277 191 288 165.5 c 128,-1,49
 299 140 299 140 299 111 c 256,50,51
 299 82 299 82 288 56.5 c 128,-1,52
 277 31 277 31 258 12 c 128,-1,53
 239 -7 239 -7 212 -18 c 128,-1,54
 185 -29 185 -29 154 -29 c 0,55,56
 122 -29 122 -29 96 -18 c 128,-1,57
 70 -7 70 -7 50.5 12 c 128,-1,58
 31 31 31 31 20.5 56.5 c 128,-1,59
 10 82 10 82 10 111 c 256,40,41
EndSplineSet
EndChar
StartChar: guilsinglleft
Encoding: 8249 8249 276
Width: 1024
Flags: W
LayerCount: 2
Back
Fore
SplineSet
250 526 m 1,0,-1
 586 852 l 1,1,-1
 721 713 l 1,2,-1
 487 489 l 1,3,-1
 731 227 l 1,4,-1
 592 88 l 1,5,-1
 250 457 l 1,6,-1
 250 526 l 1,0,-1
EndSplineSet
EndChar
StartChar: guilsinglright
Encoding: 8250 8250 277
Width: 1024
Flags: W
LayerCount: 2
Back
Fore
SplineSet
737 457 m 1,0,-1
 395 88 l 1,1,-1
 256 227 l 1,2,-1
 500 489 l 1,3,-1
 266 713 l 1,4,-1
 401 852 l 1,5,-1
 737 526 l 1,6,-1
 737 457 l 1,0,-1
EndSplineSet
EndChar
StartChar: fraction
Encoding: 8260 8260 278
Width: 1024
Flags: W
LayerCount: 2
Back
Fore
SplineSet
123 -8 m 1,0,-1
 758 1374 l 1,1,-1
 928 1278 l 1,2,-1
 291 -100 l 1,3,-1
 123 -8 l 1,0,-1
EndSplineSet
EndChar
StartChar: uni2074
Encoding: 8308 8308 279
Width: 1024
Flags: W
LayerCount: 2
Back
Fore
SplineSet
584 1343 m 1,0,-1
 731 1343 l 1,1,-1
 731 883 l 1,2,-1
 848 883 l 1,3,-1
 848 719 l 1,4,-1
 731 719 l 1,5,-1
 731 537 l 1,6,-1
 528 537 l 1,7,-1
 528 721 l 1,8,-1
 186 721 l 1,9,-1
 186 836 l 1,10,-1
 584 1343 l 1,0,-1
541 1034 m 1,11,-1
 412 872 l 1,12,-1
 541 872 l 1,13,-1
 541 1034 l 1,11,-1
EndSplineSet
EndChar
StartChar: Euro
Encoding: 8364 8364 280
Width: 1024
Flags: W
LayerCount: 2
Back
Fore
SplineSet
905 954 m 1,0,1
 887 978 887 978 867.5 1005 c 128,-1,2
 848 1032 848 1032 821 1055 c 128,-1,3
 794 1078 794 1078 754.5 1093 c 128,-1,4
 715 1108 715 1108 657 1108 c 0,5,6
 568 1108 568 1108 497 1048.5 c 128,-1,7
 426 989 426 989 395 872 c 1,8,-1
 877 872 l 1,9,-1
 807 686 l 1,10,-1
 365 686 l 1,11,12
 363 669 363 669 362.5 653 c 128,-1,13
 362 637 362 637 362 625 c 2,14,-1
 362 594 l 1,15,-1
 778 594 l 1,16,-1
 707 410 l 1,17,-1
 383 410 l 1,18,19
 412 288 412 288 482 223 c 128,-1,20
 552 158 552 158 655 158 c 0,21,22
 717 158 717 158 769 187 c 128,-1,23
 821 216 821 216 877 268 c 1,24,-1
 971 100 l 1,25,26
 898 37 898 37 820.5 3 c 128,-1,27
 743 -31 743 -31 647 -31 c 0,28,29
 554 -31 554 -31 474.5 -1 c 128,-1,30
 395 29 395 29 332.5 86 c 128,-1,31
 270 143 270 143 227.5 225 c 128,-1,32
 185 307 185 307 166 410 c 1,33,-1
 39 410 l 1,34,-1
 82 594 l 1,35,-1
 147 598 l 1,36,-1
 147 643 l 2,37,38
 147 654 147 654 147.5 664 c 128,-1,39
 148 674 148 674 150 686 c 1,40,-1
 41 686 l 1,41,-1
 84 872 l 1,42,-1
 180 872 l 1,43,44
 205 985 205 985 254.5 1064.5 c 128,-1,45
 304 1144 304 1144 368.5 1194 c 128,-1,46
 433 1244 433 1244 509.5 1267 c 128,-1,47
 586 1290 586 1290 666 1290 c 0,48,49
 856 1290 856 1290 981 1153 c 1,50,-1
 905 954 l 1,0,1
EndSplineSet
EndChar
StartChar: trademark
Encoding: 8482 8482 281
Width: 1024
Flags: W
LayerCount: 2
Back
Fore
SplineSet
489 1303 m 1,0,-1
 489 1171 l 1,1,-1
 338 1171 l 1,2,-1
 338 655 l 1,3,-1
 190 655 l 1,4,-1
 190 1171 l 1,5,-1
 37 1171 l 1,6,-1
 37 1303 l 1,7,-1
 489 1303 l 1,0,-1
635 1303 m 1,8,-1
 752 1038 l 1,9,-1
 877 1303 l 1,10,-1
 989 1303 l 1,11,-1
 989 655 l 1,12,-1
 844 655 l 1,13,-1
 844 1008 l 1,14,-1
 776 866 l 1,15,-1
 715 866 l 1,16,-1
 657 1001 l 1,17,-1
 657 655 l 1,18,-1
 516 655 l 1,19,-1
 516 1303 l 1,20,-1
 635 1303 l 1,8,-1
EndSplineSet
EndChar
StartChar: uparrow
Encoding: 8593 8593 282
Width: 1024
Flags: W
LayerCount: 2
Back
Fore
SplineSet
92 834 m 1,0,-1
 477 1321 l 1,1,-1
 571 1321 l 1,2,-1
 932 827 l 1,3,-1
 764 717 l 1,4,-1
 625 958 l 1,5,-1
 625 -72 l 1,6,-1
 403 -72 l 1,7,-1
 403 969 l 1,8,-1
 240 713 l 1,9,-1
 92 834 l 1,0,-1
EndSplineSet
EndChar
StartChar: downarrow
Encoding: 8595 8595 283
Width: 1024
Flags: W
LayerCount: 2
Back
Fore
SplineSet
932 416 m 1,0,-1
 547 -72 l 1,1,-1
 453 -72 l 1,2,-1
 92 422 l 1,3,-1
 260 532 l 1,4,-1
 399 270 l 1,5,-1
 399 1321 l 1,6,-1
 621 1321 l 1,7,-1
 621 260 l 1,8,-1
 784 537 l 1,9,-1
 932 416 l 1,0,-1
EndSplineSet
EndChar
